<svg width="1919" height="285" viewBox="0 0 1919 285" fill="none" xmlns="http://www.w3.org/2000/svg">
<path d="M400.846 195.74H370.552V303.579H400.846V195.74Z" fill="#F1D92B"/>
<path d="M533.26 118.107H511.548V131.124H507.719V315.734H537.092V131.124H533.26V118.107Z" fill="#F1D92B"/>
<path d="M620.92 177.864V324.191H597.625V177.864H600.667V167.558H617.881V177.864H620.92Z" fill="#F1D92B"/>
<path d="M205.171 196.046H176.784V287.732H205.171V196.046Z" fill="#F1D92B"/>
<path d="M144.347 167.332H140.293V140.745H139.081V130.161H136.977V122.362H135.569V114.489H134.226V101.55H132.817V114.489H131.475V122.362H130.055V130.161H127.948V140.745H126.736V167.332H122.685V187.081H119.21V309.277H147.833V187.081H144.347V167.332Z" fill="#F1D92B"/>
<path d="M325.57 224.023V346.219H296.961V224.023H300.437V204.3H304.488V177.687H305.7V167.129H307.804V159.307H309.226V151.457H310.555V138.518H311.977V151.457H313.306V159.307H314.728V167.129H316.832V177.687H318.044V204.3H322.095V224.023H325.57Z" fill="#F1D92B"/>
<path d="M429.667 159.99H428.168V152.265H420.205V147.48H419.641V142.62H419.193V83.3701H417.534V142.62H417.086V147.48H416.493V152.265H408.534V159.99H407.06V170.068H404.4V344.194H432.325V170.068H429.667V159.99Z" fill="#F1D92B"/>
<path d="M484.189 184.702V304.542H458.448V184.702H461.41V176.269H462.698V169.762H464.922V167.558H466.228V160.925H470.675V135.201H471.964V160.925H476.414V167.558H477.805V169.762H479.926V176.269H481.226V184.702H484.189Z" fill="#F1D92B"/>
<path d="M263.733 140.922H262.088V131.479H259.391V128.263H257.627V118.591H251.982V81.2178H250.337V118.591H244.692V128.263H243.047V131.479H240.219V140.922H238.574V153.178H234.808V327.433H267.499V153.178H263.733V140.922Z" fill="#F1D92B"/>
<path d="M63.7018 141.986H64.9505V130.516H55.4626V88.4854H53.2246V130.516H43.7367V141.986H44.9883V145.937H37V324.014H71.6758V145.937H63.7018V141.986Z" fill="#F1D92B"/>
<path d="M449.038 235.898H427.126V305.706H449.038V235.898Z" fill="#F1D92B"/>
<path d="M409.269 245.267H385.133V322.696H409.269V245.267Z" fill="#F1D92B"/>
<path d="M64.563 147.989H39.9253V149.85H64.563V147.989Z" fill="#F1D92B"/>
<path d="M68.6559 151.886H50.0137V153.289H68.6559V151.886Z" fill="#F1D92B"/>
<path d="M53.0023 196.395H37V198.45H53.0023V196.395Z" fill="#F1D92B"/>
<path d="M50.0145 200.978H37V203.033H50.0145V200.978Z" fill="#F1D92B"/>
<path d="M71.6757 215.043H62.5156V216.307H71.6757V215.043Z" fill="#F1D92B"/>
<path d="M137.087 140.745H126.738V141.629H137.087V140.745Z" fill="#F1D92B"/>
<path d="M138.548 143.106H129.702V143.738H138.548V143.106Z" fill="#F1D92B"/>
<path d="M143.299 168.038H132.625V169.302H143.299V168.038Z" fill="#F1D92B"/>
<path d="M143.301 170.776H135.259V171.62H143.301V170.776Z" fill="#F1D92B"/>
<path d="M139.608 187.08H119.21V188.281H139.608V187.08Z" fill="#F1D92B"/>
<path d="M146.627 226.896H137.416V228.203H146.627V226.896Z" fill="#F1D92B"/>
<path d="M145.971 229.423H125.354V230.266H145.971V229.423Z" fill="#F1D92B"/>
<path d="M201.567 197.187H177.771V198.344H201.567V197.187Z" fill="#F1D92B"/>
<path d="M201.569 199.925H185.777V200.768H201.569V199.925Z" fill="#F1D92B"/>
<path d="M202.336 210.146H179.417V211.726H202.336V210.146Z" fill="#F1D92B"/>
<path d="M264.021 153.178H234.808V154.519H264.021V153.178Z" fill="#F1D92B"/>
<path d="M265.995 157.678H245.762V158.784H265.995V157.678Z" fill="#F1D92B"/>
<path d="M264.018 170.776H239.674V173.481H264.018V170.776Z" fill="#F1D92B"/>
<path d="M264.022 175.851H236.715V177.271H264.022V175.851Z" fill="#F1D92B"/>
<path d="M265.175 201.927H240.666V203.665H265.175V201.927Z" fill="#F1D92B"/>
<path d="M307.12 167.129V198.345H304.489V177.687H305.701V167.129H307.12Z" fill="#F1D92B"/>
<path d="M325.571 224.022V241.887H317.965V198.344H318.044V204.299H322.096V224.022H325.571Z" fill="#F1D92B"/>
<path d="M397.199 195.74H370.552V197.739H397.199V195.74Z" fill="#F1D92B"/>
<path d="M397.92 200.663H376.042V201.927H397.92V200.663Z" fill="#F1D92B"/>
<path d="M397.921 221.164H376.858V223.697H397.921V221.164Z" fill="#F1D92B"/>
<path d="M428.165 152.266H408.531V153.99H428.165V152.266Z" fill="#F1D92B"/>
<path d="M429.669 159.99H407.061V161.894H429.669V159.99Z" fill="#F1D92B"/>
<path d="M423.524 173.481H408.531V174.639H423.524V173.481Z" fill="#F1D92B"/>
<path d="M426.817 177.169H414.974V178.644H426.817V177.169Z" fill="#F1D92B"/>
<path d="M426.816 205.614H409.269V207.061H426.816V205.614Z" fill="#F1D92B"/>
<path d="M405.82 249.661H385.703V250.916H405.82V249.661Z" fill="#F1D92B"/>
<path d="M406.64 253.446H391.615V255.236H406.64V253.446Z" fill="#F1D92B"/>
<path d="M407.076 270.104H387.387V271.251H407.076V270.104Z" fill="#F1D92B"/>
<path d="M402.361 277.148H393.917V278.867H402.361V277.148Z" fill="#F1D92B"/>
<path d="M448.419 235.898H427.126V237.537H448.419V235.898Z" fill="#F1D92B"/>
<path d="M446.885 242.368H433.067V244.069H446.885V242.368Z" fill="#F1D92B"/>
<path d="M481.428 187.39H460.16V188.445H481.428V187.39Z" fill="#F1D92B"/>
<path d="M482.648 190.234H464.978V191.209H482.648V190.234Z" fill="#F1D92B"/>
<path d="M482.646 198.661H461.027V201.294H482.646V198.661Z" fill="#F1D92B"/>
<path d="M479.456 205.614H461.854V206.338H479.456V205.614Z" fill="#F1D92B"/>
<path d="M482.648 214.986H463.487V215.998H482.648V214.986Z" fill="#F1D92B"/>
<path d="M481.428 233.691H462.686V235.001H481.428V233.691Z" fill="#F1D92B"/>
<path d="M478.794 165.896V168.424H464.922V167.557H466.227V165.896H478.794Z" fill="#F1D92B"/>
<path d="M530.502 118.107H511.549V120.066H530.502V118.107Z" fill="#F1D92B"/>
<path d="M532.969 131.124H507.719V133.185H532.969V131.124Z" fill="#F1D92B"/>
<path d="M534.614 135.201H516.191V137.768H534.614V135.201Z" fill="#F1D92B"/>
<path d="M531.959 168.425H511.549V170.006H531.959V168.425Z" fill="#F1D92B"/>
<path d="M535.6 174.639H512.242V175.694H535.6V174.639Z" fill="#F1D92B"/>
<path d="M534.707 205.614H510.981V207.061H534.707V205.614Z" fill="#F1D92B"/>
<path d="M602.714 167.558V230.529H597.625V177.864H600.667V167.558H602.714Z" fill="#F1D92B"/>
<path d="M503.861 249.084H496.346V285.343H503.861V249.084Z" fill="#0694D5"/>
<path d="M560.091 225.004H555.563V289.951H560.091V225.004Z" fill="#0694D5"/>
<path d="M577.063 212.9H559.995V289.949H577.063V212.9Z" fill="#0694D5"/>
<path d="M573.528 198.14V235.385L562.791 223.409V186.161L566.118 189.878L567.578 191.504L570.184 194.409L573.528 198.14Z" fill="#0694D5"/>
<path d="M570.185 186.821V200.949L566.119 196.441V182.312L567.579 183.931L570.185 186.821Z" fill="#0694D5"/>
<path d="M615.34 227.889H605.51V288.911H615.34V227.889Z" fill="#0694D5"/>
<path d="M613.364 209.355H607.73V247.667H613.364V209.355Z" fill="#0694D5"/>
<path d="M611.335 205.152H609.493V213.889H611.335V205.152Z" fill="#0694D5"/>
<path d="M635.706 224.547H617.745V277.416H635.706V224.547Z" fill="#0694D5"/>
<path d="M630.182 217.94H622.26V228.195H630.182V217.94Z" fill="#0694D5"/>
<path d="M628.496 213.886H623.889V219.812H628.496V213.886Z" fill="#0694D5"/>
<path d="M653.221 231.08L653.184 274.912L638.55 272.631V247.387H640.024V236.323L642.641 231.08H653.221Z" fill="#0694D5"/>
<path d="M535.98 194.341H521.874V282.811H535.98V194.341Z" fill="#0694D5"/>
<path d="M512.256 232.929H501.015V286.152H512.256V232.929Z" fill="#0694D5"/>
<path d="M517.349 260.856H511.796V286.026H517.349V260.856Z" fill="#0694D5"/>
<path d="M509.979 217.56H504.439V242.726H509.979V217.56Z" fill="#0694D5"/>
<path d="M532.721 191.556H525.155V196.593H532.721V191.556Z" fill="#0694D5"/>
<path d="M533.231 186.667H524.653V192.439H533.231V186.667Z" fill="#0694D5"/>
<path d="M529.392 165.78H528.471V187.859H529.392V165.78Z" fill="#0694D5"/>
<path d="M497.275 212.19H480.418V285.974H497.275V212.19Z" fill="#0694D5"/>
<path d="M494.529 192.467V219.889L483.921 228.648V201.252L487.211 198.525L488.112 197.781L491.239 195.191L494.529 192.467Z" fill="#0694D5"/>
<path d="M491.236 189.605V200.037L487.208 203.379V192.947L491.236 189.605Z" fill="#0694D5"/>
<path d="M468.023 196.999H453.917V285.443H468.023V196.999Z" fill="#0694D5"/>
<path d="M464.764 194.188H457.195V199.254H464.764V194.188Z" fill="#0694D5"/>
<path d="M465.274 189.351H456.681V195.1H465.274V189.351Z" fill="#0694D5"/>
<path d="M461.429 168.461H460.508V190.54H461.429V168.461Z" fill="#0694D5"/>
<path d="M463.958 185.353H457.982V191.125H463.958V185.353Z" fill="#0694D5"/>
<path d="M437.519 229.51H424.858V285.469H437.519V229.51Z" fill="#0694D5"/>
<path d="M411.593 261.869H399.645V283.568H411.593V261.869Z" fill="#0694D5"/>
<path d="M402.115 254.425H394.511V283.568H402.115V254.425Z" fill="#0694D5"/>
<path d="M378.129 243.893H366.076V285.166H378.129V243.893Z" fill="#0694D5"/>
<path d="M366.627 182.619H350.046V287.039H366.627V182.619Z" fill="#0694D5"/>
<path d="M364.469 175.249H352.219V193.025H364.469V175.249Z" fill="#0694D5"/>
<path d="M362.861 166.766H353.806V179.908H362.861V166.766Z" fill="#0694D5"/>
<path d="M358.812 151.22H357.863V173.299H358.812V151.22Z" fill="#0694D5"/>
<path d="M556.894 240.145H549.063V287.038H556.894V240.145Z" fill="#0694D5"/>
<path d="M657.696 283.645H346.474V313.271H657.696V283.645Z" fill="#0694D5"/>
<path d="M552.747 189.529H539.627V303.217H552.747V189.529Z" fill="#0694D5"/>
<path d="M551.498 182.945H540.878V207.812H551.498V182.945Z" fill="#0694D5"/>
<path d="M550.785 177.908H541.559V184.06H550.785V177.908Z" fill="#0694D5"/>
<path d="M546.577 132.912H545.802V184.186H546.577V132.912Z" fill="#0694D5"/>
<path d="M547.048 174.769H545.312V177.959H547.048V174.769Z" fill="#0694D5"/>
<path d="M546.786 171.604H545.589V175.452H546.786V171.604Z" fill="#0694D5"/>
<path d="M422.238 256.958H409.577V299.292H422.238V256.958Z" fill="#0694D5"/>
<path d="M428.584 247.36H415.909V303.319H428.584V247.36Z" fill="#0694D5"/>
<path d="M445.69 249.768H433.018V305.724H445.69V249.768Z" fill="#0694D5"/>
<path d="M454.073 263.187H441.401V305.723H454.073V263.187Z" fill="#0694D5"/>
<path d="M402.119 279.14H376.589V295.698H402.119V279.14Z" fill="#0694D5"/>
<path d="M358.625 253.135V307.954H7.68716V314.309H5.44918V315.724H0.710938V253.135H4.2917V161.526H6.79197V154.688H8.63367V146.815H13.2921V132.357H14.3726V146.815H19.031V154.688H20.887V161.526H23.373V251.666H25.2289V190.869H36.6013V212.545H45.9694V237.409H54.2742V176.515H57.0652V169.222H58.274V163.702H60.2868V161.729H61.5383V156.032H65.6693V133.927H66.918V156.032H71.0519V161.729H72.3035V163.702H74.3019V169.222H75.5022V176.515H78.2904V251.666H90.3327V205.101H93.503V198.697H101.742V205.101H104.898V251.666H110.007L109.964 236.222V236.214L109.796 171.301L132.062 182.767V251.666H154.236V188.997H158.265V178.894L162.054 176.338V171.146L166.675 168.059V173.248L170.464 170.692V188.997H173.62V223.28H177.925V208.291H181.848V194.011H188.242V208.291H190.848V234.244H196.704V251.666H198.651V232.145H202.981V251.666H215.181V193.757H218.947V191.81H218.365V185.784H222.761V164.005H223.813V185.784H228.235V191.81H227.642V193.757H231.394V251.666H233.184V215.027H242.17V243.738H242.552V236.145H245.765V223.509H248.961V210.393L252.79 212.216V208.52L257.466 210.698V214.421L261.32 216.245V223.509H265.385V240.196H268.966V202.545H288.601V217.634H294.128V240.196H298.088V230.093H300.654V220.876H302.681V218.823H304.799V220.876H307.129V230.093H309.407V240.196H312.169V221.685H317.355V217.685H319.237V215.23H324.525V217.685H326.475V221.685H332.818V230.219H334.791V240.196H336.108V221.762H337.79V211.482L340.807 206.57H352.966L352.926 240.196H358.112V253.135H358.625Z" fill="#0694D5"/>
<path d="M66.2236 157.099L63.4611 158.52V162.642L61.1575 165.001L60.499 171.604L58.5261 174.483V180.961L56.7158 185.704L54.2754 237.409V176.516H57.0665V169.223H58.2752V163.703H60.288V161.73H61.5396V156.032H65.6706V133.928L66.2236 157.099Z" fill="#0694D5"/>
<path d="M101.74 198.697L96.0272 200.873V205.93L92.4094 209.406L90.3311 251.666V205.101H93.5013V198.697H101.74Z" fill="#0694D5"/>
<path d="M132.063 182.768L112.48 175.903L109.965 236.219L109.797 171.298L132.063 182.768Z" fill="#0694D5"/>
<path d="M166.674 168.06L163.288 172.182V177.871L159.633 180.681V189.881L155.758 191.425L154.236 251.667V188.998H158.264V178.895L162.053 176.339V171.147L166.674 168.06Z" fill="#0694D5"/>
<path d="M188.243 194.012L183.248 196.202V209.898L179.228 210.53L177.925 223.281V208.292H181.848V194.012H188.243Z" fill="#0694D5"/>
<path d="M202.982 232.146L199.769 233.638L198.651 251.666V232.146H202.982Z" fill="#0694D5"/>
<path d="M223.813 164.005L223.166 187.353H219.511V194.657L216.147 195.852C216.147 195.852 215.203 250.962 215.18 251.669V193.76H218.946V191.813H218.368V185.786H222.764V164.011H223.816L223.813 164.005Z" fill="#0694D5"/>
<path d="M257.465 210.699L254.015 210.11V213.481L250.212 212.569L249.63 224.507L246.631 225.139L245.764 236.146V223.509H248.96V210.393L252.789 212.217V208.521L257.465 210.699Z" fill="#0694D5"/>
<path d="M288.601 202.545L271.271 205.332L268.967 240.196V202.545H288.601Z" fill="#0694D5"/>
<path d="M304.799 218.824V219.099L303.291 219.47V221.712H301.264V230.637L298.575 231.003L298.088 240.197V230.094H300.654V220.877H302.681V218.824H304.799Z" fill="#0694D5"/>
<path d="M324.523 215.229L320.563 216.467V218.837H318.26V222.102L312.94 222.734L312.167 240.196V221.685H317.353V217.685H319.235V215.229H324.523Z" fill="#0694D5"/>
<path d="M350.042 206.57L341.672 208.248L339.479 213.657L337.789 221.762V211.482L340.805 206.57H350.042Z" fill="#0694D5"/>
<path d="M362.864 166.766L358.813 167.621L357.863 167.821L354.835 168.459V176.043H353.809V184.542H351.181L350.046 206.57V182.618H352.218V175.248H353.809V166.766H357.863V151.22H358.336L358.345 166.766L358.813 166.658V166.766H362.864Z" fill="#0694D5"/>
<path d="M402.118 254.425L396.724 256.958L394.511 279.137V254.425H402.118Z" fill="#0694D5"/>
<path d="M437.516 229.51L426.879 231.425L425.713 247.36L425.562 249.439H417.449V257.984L415.906 258.287L411.59 259.133L409.577 261.812V256.958H415.906V247.36H424.855V229.51H437.516Z" fill="#0694D5"/>
<path d="M460.971 168.462V186.072L460.512 186.13L458.85 186.333V189.809L457.984 190.292L457.536 190.541L457.194 194.186L457.818 195.098L457.984 195.338L457.807 196.996L457.753 197.499L457.191 197.611L454.845 198.079L454.072 263.184C454.072 263.184 454.015 262.061 453.915 260.076V196.996H457.191V195.098H456.681V189.349H457.981V185.349H460.509V168.459H460.968L460.971 168.462Z" fill="#0694D5"/>
<path d="M491.237 189.605L488.11 194.074V200.275L487.209 200.858L484.965 202.313V213.34L483.919 213.625L482.408 214.043L480.418 283.644V212.19H483.919V201.252L487.209 198.525V192.947L491.237 189.605Z" fill="#0694D5"/>
<path d="M509.978 217.56V217.748L506.637 219.098V235.382H502.991C502.991 235.382 501.175 248.532 501.026 249.081C501.021 249.104 501.018 249.107 501.018 249.081V232.926H504.442V217.557H509.981L509.978 217.56Z" fill="#0694D5"/>
<path d="M533.229 186.667L529.389 187.39L528.465 187.565L526.891 187.859V194.189L526.68 194.34L525.149 195.435L523.675 196.493L521.874 282.81V194.34H525.149V192.442H524.65V186.667H533.229Z" fill="#0694D5"/>
<path d="M550.786 177.908L546.575 178.748L545.8 178.905L542.795 179.503V184.06L541.56 184.823V190.444L540.879 190.721L540.528 190.864L539.627 222.62V189.529H540.879V182.945H541.56V177.908H545.312V174.769H545.589V174.217L545.8 174.365L546.364 174.769L546.575 174.917L546.786 175.066L547.051 175.255L550.786 177.908Z" fill="#0694D5"/>
<path d="M567.577 183.931V192.759L566.118 191.469L563.922 189.528V214.938L562.791 214.532L560.997 213.886V226.585H556.892L555.563 240.144V225.004H559.997V212.899H562.791V186.16L566.118 189.877V182.312L567.577 183.931Z" fill="#0694D5"/>
<path d="M611.335 205.152L610.18 207.565V210.567H608.92L608.49 227.892L608.481 228.195L607.728 228.395L606.234 228.792L605.507 283.645V283.771C605.507 283.771 605.493 283.728 605.476 283.645H605.505V227.889H607.728V209.352H609.49V205.149H611.332L611.335 205.152Z" fill="#0694D5"/>
<path d="M628.496 213.886L624.531 215.235V218.957L623.889 219.097L622.923 219.309V225.435L622.258 225.553L619.413 226.05L617.745 277.415V224.546H622.258V217.94H623.889V213.886H628.496Z" fill="#0694D5"/>
<path d="M653.221 231.08L643.098 233.639L641.49 249.019H639.733L638.55 272.631V247.387H640.024V236.323L642.641 231.08H653.221Z" fill="#0694D5"/>
<path d="M658 220.149V350.389H0V86.5378H6.61986V63.2639H9.76443V31.6108H14.477V0.217773H15.6345V31.6108H20.3471V63.2639H23.4888V86.5378H31.2547V272.966H40.429V238.497H45.3098V212.218L51.1257 215.852V208.402L53.3409 209.774L58.2986 212.847V220.338L64.1145 223.931V238.497H70.341V271.891H75.7748V196.543H105.687V226.747H114.111V271.891H120.138V251.691H124.021V233.197H127.126V229.12H130.339V233.197H133.902V251.691H137.352V271.891H141.563V234.792H149.5V226.821H152.354V221.893H160.396V226.821H163.384V234.792H173.029V251.914H176.042V271.891H187.503V234.938H190.083V214.368L194.69 204.545H213.232L213.192 242.757H218.877V250.396H225.392V260.03H231.655V271.891H234.221V239.312H239.985V271.891H243.697V223.299H246.54V217.147H249.411V212.218H257.45V217.147H260.424V223.299H263.634V271.891H266.451V234.603H286.39V271.891H288.876V235.458H302.535V249.02H313.089V281.566H315.196V248.28H331.857V281.566H334.197V238.16H336.886V232.676H339.372V228.302H346.094V232.676H348.489V238.16H350.858V252.394H357.82V275.965H361.914V267.406H367.351V260.547H374.193V281.566H376.402L376.38 248.626V248.623L376.362 221.447H391.854L395.683 230.195V248.577H397.853V281.566H407.446V263.698H409.961V248.466H414.804V223.151H419.699V196.875L425.515 200.509V193.093L432.674 197.541V204.991L438.493 208.622V223.151H444.716V256.548H450.164V181.16H480.065V211.441H488.501V256.548H494.514V236.31H498.408V217.888H501.501V213.774H504.726V217.888H508.292V236.31H511.742V256.548H515.95V219.483H523.872V211.441H526.743V206.584H534.786V211.441H537.756V219.483H547.404V256.548H553.274V219.594H555.814V199.025L560.433 189.239H577.567V160.476H586.083V141.911H594.439V160.476H602.951V235.901H607.61V201.175H612.693V193.353H617.166V201.175H621.639V235.901H627.193V189.759H630.272V178.415H631.589V169.782H635.959V160.848H639.734V123.417H641.103V160.848H644.88V169.782H649.251V178.415H650.568V189.759H653.632V220.149H658Z" fill="#D91250"/>
<path d="M14.477 31.6113L11.6432 35.2421V65.6716L8.35322 66.3835V89.9776H2.26649V350.39H0V86.5384H6.61986V63.2645H9.76443V31.6113H14.477Z" fill="#D91250"/>
<path d="M53.3396 209.775V220.055L46.9535 215.275V241.879H41.742L40.4277 258.535V238.497H45.3085V212.219L51.1244 215.852V208.402L53.3396 209.775Z" fill="#D91250"/>
<path d="M90.3317 196.541L77.7135 200.472L75.7749 265.088V196.541H90.3317Z" fill="#D91250"/>
<path d="M128.928 229.12L127.996 230.815V234.552H124.652V253.675H120.538L120.139 267.7V251.691H124.022V233.197H127.126V229.12H128.928Z" fill="#D91250"/>
<path d="M152.999 221.893V227.765H150.53V236.481H142.744L141.563 266.01V234.792H149.5V226.821H152.354V221.893H152.999Z" fill="#D91250"/>
<path d="M213.231 204.545L195.874 206.1L191.432 215.274V237.173H188.47L187.501 271.891V234.937H190.081V214.368L194.688 204.545H213.231Z" fill="#D91250"/>
<path d="M239.987 239.312L235.3 240.721L234.222 271.891V239.312H239.987Z" fill="#D91250"/>
<path d="M257.453 212.219L250.437 213.737V218.746H247.529V224.838H245.063L243.7 256.222V223.3H246.543V217.147H249.413V212.219H257.453Z" fill="#D91250"/>
<path d="M286.388 234.604L268.419 237.56L266.451 268.249V234.604H286.388Z" fill="#D91250"/>
<path d="M302.532 235.458L291.226 237.714L288.874 271.891V235.458H302.532Z" fill="#D91250"/>
<path d="M331.856 248.28L317.71 250.822L315.195 281.563V248.28H331.856Z" fill="#D91250"/>
<path d="M346.093 228.303L340.245 229.361V234.038H337.648V238.975H335.02L334.196 251.671V238.16H336.884V232.677H339.37V228.303H346.093Z" fill="#D91250"/>
<path d="M374.19 260.547L368.462 262.053V268.632H363.419L361.911 274.186V267.405H367.348V260.547H374.19Z" fill="#D91250"/>
<path d="M395.683 230.195L390.144 224.426H379.544L376.587 249.407C376.587 249.407 376.513 249.129 376.382 248.623L376.365 221.447H391.854L395.683 230.192V230.195Z" fill="#D91250"/>
<path d="M432.675 197.542L426.99 195.998V203.606L420.923 199.803V226.022H416.208L415.908 249.968L411.592 251.154L409.961 263.699V248.467H414.805V223.152H419.7V196.876L425.516 200.51V193.094L432.675 197.542Z" fill="#D91250"/>
<path d="M480.068 181.16L455.835 187.647L450.167 256.548V181.16H480.068Z" fill="#D91250"/>
<path d="M504.726 213.773L502.089 215.369V219.98H499.697V237.485L495.694 238.791L494.514 247.542V236.31H498.409V217.887H501.502V213.773H504.726Z" fill="#D91250"/>
<path d="M534.787 206.584L528.173 209.623V213.531H525.028V220.933L517.938 222.882L515.951 251.022V219.483H523.874V211.441H526.745V206.584H534.787Z" fill="#D91250"/>
<path d="M594.438 141.91L588.719 144.912V163.849H580.186V191.723L562.79 193.378L555.814 219.594V199.024L560.432 189.238H577.566V160.476H586.082V141.91H594.438Z" fill="#D91250"/>
<path d="M617.169 193.354L614.149 194.714V203.145L608.85 203.968L607.612 235.902V201.175H612.696V193.354H617.169Z" fill="#D91250"/>
<path d="M639.736 160.849L637.421 162.847V171.584H632.794V179.191H631.038V191.424H628.187L627.195 235.902V189.76H630.274V178.416H631.591V169.783H635.962V160.849H639.736Z" fill="#D91250"/>
<path d="M1060.12 248.297H1029.82V356.135H1060.12V248.297Z" fill="#F1D92B"/>
<path d="M1192.53 170.664H1170.82V183.68H1166.99V368.29H1196.36V183.68H1192.53V170.664Z" fill="#F1D92B"/>
<path d="M1280.19 230.42V376.748H1256.9V230.42H1259.94V220.114H1277.15V230.42H1280.19Z" fill="#F1D92B"/>
<path d="M864.442 248.603H836.055V340.289H864.442V248.603Z" fill="#F1D92B"/>
<path d="M803.618 219.889H799.564V193.301H798.352V182.718H796.248V174.919H794.84V167.046H793.497V154.106H792.089V167.046H790.746V174.919H789.326V182.718H787.219V193.301H786.008V219.889H781.956V239.637H778.481V361.833H807.105V239.637H803.618V219.889Z" fill="#F1D92B"/>
<path d="M984.841 276.579V398.775H956.232V276.579H959.708V256.856H963.759V230.243H964.971V219.686H967.075V211.864H968.497V204.013H969.826V191.074H971.248V204.013H972.577V211.864H973.999V219.686H976.103V230.243H977.315V256.856H981.366V276.579H984.841Z" fill="#F1D92B"/>
<path d="M1088.94 212.547H1087.44V204.822H1079.48V200.036H1078.91V195.176H1078.46V135.927H1076.8V195.176H1076.36V200.036H1075.76V204.822H1067.8V212.547H1066.33V222.624H1063.67V396.751H1091.6V222.624H1088.94V212.547Z" fill="#F1D92B"/>
<path d="M1143.46 237.259V357.099H1117.72V237.259H1120.68V228.825H1121.97V222.318H1124.19V220.114H1125.5V213.482H1129.95V187.758H1131.23V213.482H1135.69V220.114H1137.08V222.318H1139.2V228.825H1140.5V237.259H1143.46Z" fill="#F1D92B"/>
<path d="M923.004 193.479H921.359V184.036H918.662V180.82H916.898V171.148H911.253V133.774H909.608V171.148H903.963V180.82H902.318V184.036H899.49V193.479H897.845V205.734H894.079V379.99H926.77V205.734H923.004V193.479Z" fill="#F1D92B"/>
<path d="M722.973 194.542H724.221V183.073H714.734V141.042H712.496V183.073H703.008V194.542H704.259V198.493H696.271V376.571H730.947V198.493H722.973V194.542Z" fill="#F1D92B"/>
<path d="M723.834 200.546H699.196V202.407H723.834V200.546Z" fill="#F1D92B"/>
<path d="M727.927 204.442H709.284V205.846H727.927V204.442Z" fill="#F1D92B"/>
<path d="M712.273 248.951H696.271V251.007H712.273V248.951Z" fill="#F1D92B"/>
<path d="M709.285 253.534H696.271V255.59H709.285V253.534Z" fill="#F1D92B"/>
<path d="M730.947 267.6H721.787V268.863H730.947V267.6Z" fill="#F1D92B"/>
<path d="M796.358 193.302H786.009V194.185H796.358V193.302Z" fill="#F1D92B"/>
<path d="M797.819 195.663H788.973V196.295H797.819V195.663Z" fill="#F1D92B"/>
<path d="M802.57 220.595H791.896V221.858H802.57V220.595Z" fill="#F1D92B"/>
<path d="M802.572 223.333H794.53V224.176H802.572V223.333Z" fill="#F1D92B"/>
<path d="M798.88 239.637H778.481V240.837H798.88V239.637Z" fill="#F1D92B"/>
<path d="M805.898 279.453H796.686V280.76H805.898V279.453Z" fill="#F1D92B"/>
<path d="M805.242 281.979H784.625V282.823H805.242V281.979Z" fill="#F1D92B"/>
<path d="M860.838 249.743H837.042V250.901H860.838V249.743Z" fill="#F1D92B"/>
<path d="M860.84 252.481H845.049V253.325H860.84V252.481Z" fill="#F1D92B"/>
<path d="M861.607 262.702H838.688V264.283H861.607V262.702Z" fill="#F1D92B"/>
<path d="M923.292 205.734H894.079V207.075H923.292V205.734Z" fill="#F1D92B"/>
<path d="M925.266 210.234H905.033V211.341H925.266V210.234Z" fill="#F1D92B"/>
<path d="M923.289 223.333H898.945V226.037H923.289V223.333Z" fill="#F1D92B"/>
<path d="M923.293 228.407H895.986V229.828H923.293V228.407Z" fill="#F1D92B"/>
<path d="M924.446 254.483H899.937V256.222H924.446V254.483Z" fill="#F1D92B"/>
<path d="M966.391 219.686V250.901H963.76V230.243H964.972V219.686H966.391Z" fill="#F1D92B"/>
<path d="M984.842 276.579V294.443H977.236V250.9H977.315V256.855H981.367V276.579H984.842Z" fill="#F1D92B"/>
<path d="M1056.47 248.297H1029.82V250.295H1056.47V248.297Z" fill="#F1D92B"/>
<path d="M1057.19 253.22H1035.31V254.483H1057.19V253.22Z" fill="#F1D92B"/>
<path d="M1057.19 273.721H1036.13V276.254H1057.19V273.721Z" fill="#F1D92B"/>
<path d="M1087.44 204.822H1067.8V206.546H1087.44V204.822Z" fill="#F1D92B"/>
<path d="M1088.94 212.547H1066.33V214.451H1088.94V212.547Z" fill="#F1D92B"/>
<path d="M1082.8 226.038H1067.8V227.196H1082.8V226.038Z" fill="#F1D92B"/>
<path d="M1086.09 229.726H1074.25V231.201H1086.09V229.726Z" fill="#F1D92B"/>
<path d="M1086.09 258.171H1068.54V259.617H1086.09V258.171Z" fill="#F1D92B"/>
<path d="M1140.7 239.946H1119.43V241.001H1140.7V239.946Z" fill="#F1D92B"/>
<path d="M1141.92 242.791H1124.25V243.766H1141.92V242.791Z" fill="#F1D92B"/>
<path d="M1141.92 251.218H1120.3V253.851H1141.92V251.218Z" fill="#F1D92B"/>
<path d="M1138.73 258.171H1121.13V258.894H1138.73V258.171Z" fill="#F1D92B"/>
<path d="M1141.92 267.543H1122.76V268.555H1141.92V267.543Z" fill="#F1D92B"/>
<path d="M1138.07 218.453V220.98H1124.19V220.114H1125.5V218.453H1138.07Z" fill="#F1D92B"/>
<path d="M1189.77 170.664H1170.82V172.622H1189.77V170.664Z" fill="#F1D92B"/>
<path d="M1192.24 183.681H1166.99V185.742H1192.24V183.681Z" fill="#F1D92B"/>
<path d="M1193.89 187.758H1175.46V190.325H1193.89V187.758Z" fill="#F1D92B"/>
<path d="M1191.23 220.981H1170.82V222.562H1191.23V220.981Z" fill="#F1D92B"/>
<path d="M1194.87 227.195H1171.51V228.25H1194.87V227.195Z" fill="#F1D92B"/>
<path d="M1193.98 258.171H1170.25V259.617H1193.98V258.171Z" fill="#F1D92B"/>
<path d="M1261.99 220.114V283.086H1256.9V230.42H1259.94V220.114H1261.99Z" fill="#F1D92B"/>
<path d="M1235.06 278.9H1217.99V355.949H1235.06V278.9Z" fill="#D91250"/>
<path d="M1231.53 264.14V301.385L1220.79 289.409V252.161L1224.12 255.878L1225.58 257.504L1228.18 260.409L1231.53 264.14Z" fill="#D91250"/>
<path d="M1228.18 252.821V266.949L1224.12 262.441V248.312L1225.58 249.931L1228.18 252.821Z" fill="#D91250"/>
<path d="M1271.36 275.355H1265.73V313.667H1271.36V275.355Z" fill="#D91250"/>
<path d="M1269.33 271.152H1267.49V279.889H1269.33V271.152Z" fill="#D91250"/>
<path d="M1288.18 283.94H1280.26V294.195H1288.18V283.94Z" fill="#D91250"/>
<path d="M1286.5 279.886H1281.89V285.812H1286.5V279.886Z" fill="#D91250"/>
<path d="M1193.98 260.341H1179.87V348.811H1193.98V260.341Z" fill="#D91250"/>
<path d="M1167.98 283.56H1162.44V308.726H1167.98V283.56Z" fill="#D91250"/>
<path d="M1190.72 257.556H1183.15V262.593H1190.72V257.556Z" fill="#D91250"/>
<path d="M1191.23 252.667H1182.65V258.439H1191.23V252.667Z" fill="#D91250"/>
<path d="M1187.39 231.78H1186.47V253.859H1187.39V231.78Z" fill="#D91250"/>
<path d="M1155.28 278.19H1138.42V351.974H1155.28V278.19Z" fill="#D91250"/>
<path d="M1152.53 258.467V285.889L1141.92 294.648V267.252L1145.21 264.525L1146.11 263.781L1149.24 261.191L1152.53 258.467Z" fill="#D91250"/>
<path d="M1149.24 255.605V266.037L1145.21 269.379V258.947L1149.24 255.605Z" fill="#D91250"/>
<path d="M1126.02 262.999H1111.92V351.443H1126.02V262.999Z" fill="#D91250"/>
<path d="M1122.76 260.188H1115.19V265.254H1122.76V260.188Z" fill="#D91250"/>
<path d="M1123.27 255.351H1114.68V261.1H1123.27V255.351Z" fill="#D91250"/>
<path d="M1119.43 234.461H1118.51V256.54H1119.43V234.461Z" fill="#D91250"/>
<path d="M1121.96 251.353H1115.98V257.125H1121.96V251.353Z" fill="#D91250"/>
<path d="M1024.63 248.619H1008.05V353.039H1024.63V248.619Z" fill="#D91250"/>
<path d="M1022.47 241.249H1010.22V259.025H1022.47V241.249Z" fill="#D91250"/>
<path d="M1020.86 232.766H1011.81V245.908H1020.86V232.766Z" fill="#D91250"/>
<path d="M1016.81 217.22H1015.86V239.299H1016.81V217.22Z" fill="#D91250"/>
<path d="M1210.75 255.529H1197.63V369.217H1210.75V255.529Z" fill="#D91250"/>
<path d="M1209.5 248.945H1198.88V273.812H1209.5V248.945Z" fill="#D91250"/>
<path d="M1208.78 243.908H1199.56V250.06H1208.78V243.908Z" fill="#D91250"/>
<path d="M1204.58 198.912H1203.8V250.186H1204.58V198.912Z" fill="#D91250"/>
<path d="M1205.05 240.769H1203.31V243.959H1205.05V240.769Z" fill="#D91250"/>
<path d="M1204.79 237.604H1203.59V241.452H1204.79V237.604Z" fill="#D91250"/>
<path d="M1016.62 279.135V333.954H665.687V340.309H663.449V341.724H658.711V279.135H662.291V187.526H664.792V180.688H666.633V172.815H671.292V158.357H672.372V172.815H677.031V180.688H678.887V187.526H681.373V277.666H683.229V216.869H694.601V238.545H703.969V263.409H712.274V202.515H715.065V195.222H716.274V189.702H718.287V187.729H719.538V182.032H723.669V159.927H724.918V182.032H729.052V187.729H730.303V189.702H732.302V195.222H733.502V202.515H736.29V277.666H748.332V231.101H751.503V224.697H759.742V231.101H762.898V277.666H768.007L767.964 262.222V262.214L767.796 197.301L790.062 208.767V277.666H812.236V214.997H816.264V204.894L820.053 202.338V197.146L824.675 194.059V199.248L828.464 196.692V214.997H831.619V249.28H835.924V234.291H839.847V220.011H846.242V234.291H848.848V260.244H854.703V277.666H856.651V258.145H860.981V277.666H873.18V219.757H876.946V217.81H876.365V211.784H880.761V190.005H881.813V211.784H886.235V217.81H885.642V219.757H889.394V277.666H891.184V241.027H900.17V269.738H900.552V262.145H903.765V249.509H906.961V236.393L910.79 238.216V234.52L915.465 236.698V240.421L919.32 242.245V249.509H923.385V266.196H926.966V228.545H946.6V243.634H952.128V266.196H956.088V256.093H958.654V246.876H960.681V244.823H962.799V246.876H965.128V256.093H967.406V266.196H970.169V247.685H975.355V243.685H977.236V241.23H982.525V243.685H984.475V247.685H990.818V256.219H992.791V266.196H994.108V247.762H995.79V237.482L998.806 232.57H1010.97L1010.93 266.196H1016.11V279.135H1016.62Z" fill="#D91250"/>
<path d="M724.223 223.099L721.461 224.52V228.642L719.157 231.001L718.499 237.604L716.526 240.483V246.961L714.716 251.704L712.275 303.409V242.516H715.066V235.223H716.275V229.703H718.288V227.73H719.539V222.032H723.67V199.928L724.223 223.099Z" fill="#D91250"/>
<path d="M759.74 264.697L754.027 266.873V271.93L750.409 275.406L748.331 317.666V271.101H751.501V264.697H759.74Z" fill="#D91250"/>
<path d="M790.063 248.768L770.48 241.903L767.965 302.219L767.797 237.298L790.063 248.768Z" fill="#D91250"/>
<path d="M824.674 234.06L821.287 238.182V243.871L817.632 246.681V255.881L813.758 257.425L812.235 317.667V254.998H816.264V244.895L820.053 242.339V237.147L824.674 234.06Z" fill="#D91250"/>
<path d="M846.243 260.012L841.248 262.202V275.898L837.228 276.53L835.925 289.281V274.292H839.848V260.012H846.243Z" fill="#D91250"/>
<path d="M881.813 230.005L881.166 253.353H877.511V260.657L874.147 261.852C874.147 261.852 873.203 316.962 873.18 317.669V259.76H876.946V257.813H876.368V251.786H880.764V230.011H881.816L881.813 230.005Z" fill="#D91250"/>
<path d="M915.464 276.699L912.015 276.11V279.481L908.212 278.569L907.63 290.507L904.631 291.139L903.764 302.146V289.509H906.96V276.393L910.789 278.217V274.521L915.464 276.699Z" fill="#D91250"/>
<path d="M946.601 268.545L929.27 271.332L926.967 306.196V268.545H946.601Z" fill="#D91250"/>
<path d="M962.799 284.824V285.099L961.291 285.47V287.712H959.264V296.637L956.575 297.003L956.088 306.197V296.094H958.653V286.877H960.68V284.824H962.799Z" fill="#D91250"/>
<path d="M982.523 281.229L978.563 282.467V284.837H976.259V288.102L970.94 288.734L970.167 306.196V287.685H975.353V283.685H977.234V281.229H982.523Z" fill="#D91250"/>
<path d="M1008.04 272.57L999.672 274.248L997.479 279.657L995.789 287.762V277.482L998.805 272.57H1008.04Z" fill="#D91250"/>
<path d="M1020.86 232.766L1016.81 233.621L1015.86 233.821L1012.84 234.459V242.043H1011.81V250.542H1009.18L1008.05 272.57V248.618H1010.22V241.248H1011.81V232.766H1015.86V217.22H1016.34L1016.34 232.766L1016.81 232.658V232.766H1020.86Z" fill="#D91250"/>
<path d="M1118.97 234.462V252.072L1118.51 252.13L1116.85 252.333V255.809L1115.98 256.292L1115.54 256.541L1115.19 260.186L1115.82 261.098L1115.98 261.338L1115.81 262.996L1115.75 263.499L1115.19 263.611L1112.84 264.079L1112.07 329.184C1112.07 329.184 1112.01 328.061 1111.92 326.076V262.996H1115.19V261.098H1114.68V255.349H1115.98V251.349H1118.51V234.459H1118.97L1118.97 234.462Z" fill="#D91250"/>
<path d="M1149.24 255.605L1146.11 260.074V266.275L1145.21 266.858L1142.96 268.313V279.34L1141.92 279.625L1140.41 280.043L1138.42 349.644V278.19H1141.92V267.252L1145.21 264.525V258.947L1149.24 255.605Z" fill="#D91250"/>
<path d="M1167.98 283.56V283.748L1164.64 285.098V301.382H1160.99C1160.99 301.382 1159.17 314.532 1159.03 315.081C1159.02 315.104 1159.02 315.107 1159.02 315.081V298.926H1162.44V283.557H1167.98L1167.98 283.56Z" fill="#D91250"/>
<path d="M1191.23 252.667L1187.39 253.39L1186.46 253.565L1184.89 253.859V260.189L1184.68 260.34L1183.15 261.435L1181.68 262.493L1179.87 348.81V260.34H1183.15V258.442H1182.65V252.667H1191.23Z" fill="#D91250"/>
<path d="M1208.79 243.908L1204.57 244.748L1203.8 244.905L1200.79 245.503V250.06L1199.56 250.823V256.444L1198.88 256.721L1198.53 256.864L1197.63 288.62V255.529H1198.88V248.945H1199.56V243.908H1203.31V240.769H1203.59V240.217L1203.8 240.365L1204.36 240.769L1204.57 240.917L1204.79 241.066L1205.05 241.255L1208.79 243.908Z" fill="#D91250"/>
<path d="M1225.58 249.931V258.759L1224.12 257.469L1221.92 255.528V280.938L1220.79 280.532L1219 279.886V292.585H1214.89L1213.56 306.144V291.004H1218V278.899H1220.79V252.16L1224.12 255.877V248.312L1225.58 249.931Z" fill="#D91250"/>
<path d="M1269.33 271.152L1268.18 273.565V276.567H1266.92L1266.49 293.892L1266.48 294.195L1265.73 294.395L1264.23 294.792L1263.51 349.645V349.771C1263.51 349.771 1263.49 349.728 1263.48 349.645H1263.5V293.889H1265.73V275.352H1267.49V271.149H1269.33L1269.33 271.152Z" fill="#D91250"/>
<path d="M1286.5 279.886L1282.53 281.235V284.957L1281.89 285.097L1280.92 285.309V291.435L1280.26 291.553L1277.41 292.05L1275.75 343.415V290.546H1280.26V283.94H1281.89V279.886H1286.5Z" fill="#D91250"/>
<path d="M1316 286.149V416.389H658V152.538H664.62V129.264H667.764V97.6108H672.477V66.2178H673.634V97.6108H678.347V129.264H681.489V152.538H689.255V338.966H698.429V304.497H703.31V278.218L709.126 281.852V274.402L711.341 275.774L716.299 278.847V286.338L722.115 289.931V304.497H728.341V337.891H733.775V262.543H763.687V292.747H772.111V337.891H778.138V317.691H782.021V299.197H785.126V295.12H788.339V299.197H791.902V317.691H795.352V337.891H799.563V300.792H807.5V292.821H810.354V287.893H818.396V292.821H821.384V300.792H831.029V317.914H834.042V337.891H845.503V300.938H848.083V280.368L852.69 270.545H871.232L871.192 308.757H876.877V316.396H883.392V326.03H889.655V337.891H892.221V305.312H897.985V337.891H901.697V289.299H904.54V283.147H907.411V278.218H915.45V283.147H918.424V289.299H921.634V337.891H924.451V300.603H944.39V337.891H946.876V301.458H960.535V315.02H971.089V347.566H973.196V314.28H989.857V347.566H992.197V304.16H994.886V298.676H997.372V294.302H1004.09V298.676H1006.49V304.16H1008.86V318.394H1015.82V341.965H1019.91V333.406H1025.35V326.547H1032.19V347.566H1034.4L1034.38 314.626V314.623L1034.36 287.447H1049.85L1053.68 296.195V314.577H1055.85V347.566H1065.45V329.698H1067.96V314.466H1072.8V289.151H1077.7V262.875L1083.52 266.509V259.093L1090.67 263.541V270.991L1096.49 274.622V289.151H1102.72V322.548H1108.16V247.16H1138.07V277.441H1146.5V322.548H1152.51V302.31H1156.41V283.888H1159.5V279.774H1162.73V283.888H1166.29V302.31H1169.74V322.548H1173.95V285.483H1181.87V277.441H1184.74V272.584H1192.79V277.441H1195.76V285.483H1205.4V322.548H1211.27V285.594H1213.81V265.025L1218.43 255.239H1235.57V226.476H1244.08V207.911H1252.44V226.476H1260.95V301.901H1265.61V267.175H1270.69V259.353H1275.17V267.175H1279.64V301.901H1285.19V255.759H1288.27V244.415H1289.59V235.782H1293.96V226.848H1297.73V189.417H1299.1V226.848H1302.88V235.782H1307.25V244.415H1308.57V255.759H1311.63V286.149H1316Z" fill="#D91250"/>
<path d="M672.477 97.6113L669.643 101.242V131.672L666.353 132.383V155.978H660.266V416.39H658V152.538H664.62V129.264H667.764V97.6113H672.477Z" fill="#D91250"/>
<path d="M711.34 275.775V286.055L704.954 281.275V307.879H699.742L698.428 324.535V304.497H703.309V278.219L709.124 281.852V274.402L711.34 275.775Z" fill="#D91250"/>
<path d="M748.332 262.541L735.714 266.472L733.775 331.088V262.541H748.332Z" fill="#D91250"/>
<path d="M871.231 270.545L853.874 272.1L849.432 281.274V303.173H846.47L845.501 337.891V300.937H848.081V280.368L852.688 270.545H871.231Z" fill="#D91250"/>
<path d="M915.453 278.219L908.437 279.737V284.746H905.529V290.838H903.063L901.7 322.222V289.3H904.543V283.147H907.413V278.219H915.453Z" fill="#D91250"/>
<path d="M1090.67 263.542L1084.99 261.998V269.606L1078.92 265.803V292.022H1074.21L1073.91 315.968L1069.59 317.154L1067.96 329.699V314.467H1072.8V289.152H1077.7V262.876L1083.52 266.51V259.094L1090.67 263.542Z" fill="#D91250"/>
<path d="M1138.07 247.16L1113.83 253.647L1108.17 322.548V247.16H1138.07Z" fill="#D91250"/>
<path d="M1162.73 279.773L1160.09 281.369V285.98H1157.7V303.485L1153.69 304.791L1152.51 313.542V302.31H1156.41V283.887H1159.5V279.773H1162.73Z" fill="#D91250"/>
<path d="M1192.79 272.584L1186.17 275.623V279.531H1183.03V286.933L1175.94 288.882L1173.95 317.022V285.483H1181.87V277.441H1184.74V272.584H1192.79Z" fill="#D91250"/>
<path d="M1252.44 207.91L1246.72 210.912V229.849H1238.19V257.723L1220.79 259.378L1213.81 285.594V265.024L1218.43 255.238H1235.57V226.476H1244.08V207.91H1252.44Z" fill="#D91250"/>
<path d="M1275.17 259.354L1272.15 260.714V269.145L1266.85 269.968L1265.61 301.902V267.175H1270.7V259.354H1275.17Z" fill="#D91250"/>
<path d="M1297.74 226.849L1295.42 228.847V237.584H1290.79V245.191H1289.04V257.424H1286.19L1285.2 301.902V255.76H1288.27V244.416H1289.59V235.783H1293.96V226.849H1297.74Z" fill="#D91250"/>
<path d="M1525.88 233.297H1556.18V341.135H1525.88V233.297Z" fill="#F1D92B"/>
<path d="M1393.47 155.664H1415.18V168.68H1419.01V353.29H1389.64V168.68H1393.47V155.664Z" fill="#F1D92B"/>
<path d="M1305.81 215.42V361.748H1329.1V215.42H1326.06V205.114H1308.85V215.42H1305.81Z" fill="#F1D92B"/>
<path d="M1721.56 233.603H1749.94V325.289H1721.56V233.603Z" fill="#F1D92B"/>
<path d="M1782.38 204.889H1786.44V178.301H1787.65V167.718H1789.75V159.919H1791.16V152.046H1792.5V139.106H1793.91V152.046H1795.25V159.919H1796.67V167.718H1798.78V178.301H1799.99V204.889H1804.04V224.637H1807.52V346.833H1778.9V224.637H1782.38V204.889Z" fill="#F1D92B"/>
<path d="M1601.16 261.579V383.775H1629.77V261.579H1626.29V241.856H1622.24V215.243H1621.03V204.686H1618.93V196.864H1617.5V189.013H1616.17V176.074H1614.75V189.013H1613.42V196.864H1612V204.686H1609.9V215.243H1608.68V241.856H1604.63V261.579H1601.16Z" fill="#F1D92B"/>
<path d="M1497.06 197.547H1498.56V189.822H1506.52V185.036H1507.09V180.176H1507.54V120.927H1509.2V180.176H1509.64V185.036H1510.24V189.822H1518.2V197.547H1519.67V207.624H1522.33V381.751H1494.4V207.624H1497.06V197.547Z" fill="#F1D92B"/>
<path d="M1442.54 222.259V342.099H1468.28V222.259H1465.32V213.825H1464.03V207.318H1461.81V205.114H1460.5V198.482H1456.05V172.758H1454.77V198.482H1450.31V205.114H1448.92V207.318H1446.8V213.825H1445.5V222.259H1442.54Z" fill="#F1D92B"/>
<path d="M1663 178.479H1664.64V169.036H1667.34V165.82H1669.1V156.148H1674.75V118.774H1676.39V156.148H1682.04V165.82H1683.68V169.036H1686.51V178.479H1688.16V190.734H1691.92V364.99H1659.23V190.734H1663V178.479Z" fill="#F1D92B"/>
<path d="M1863.03 179.542H1861.78V168.073H1871.27V126.042H1873.5V168.073H1882.99V179.542H1881.74V183.493H1889.73V361.571H1855.05V183.493H1863.03V179.542Z" fill="#F1D92B"/>
<path d="M1477.69 273.455H1499.6V343.262H1477.69V273.455Z" fill="#F1D92B"/>
<path d="M1517.46 282.823H1541.6V360.252H1517.46V282.823Z" fill="#F1D92B"/>
<path d="M1862.17 185.546H1886.8V187.407H1862.17V185.546Z" fill="#F1D92B"/>
<path d="M1858.07 189.442H1876.72V190.846H1858.07V189.442Z" fill="#F1D92B"/>
<path d="M1873.73 233.951H1889.73V236.007H1873.73V233.951Z" fill="#F1D92B"/>
<path d="M1876.71 238.534H1889.73V240.59H1876.71V238.534Z" fill="#F1D92B"/>
<path d="M1855.05 252.6H1864.21V253.863H1855.05V252.6Z" fill="#F1D92B"/>
<path d="M1789.64 178.302H1799.99V179.185H1789.64V178.302Z" fill="#F1D92B"/>
<path d="M1788.18 180.663H1797.03V181.295H1788.18V180.663Z" fill="#F1D92B"/>
<path d="M1783.43 205.595H1794.1V206.858H1783.43V205.595Z" fill="#F1D92B"/>
<path d="M1783.43 208.333H1791.47V209.176H1783.43V208.333Z" fill="#F1D92B"/>
<path d="M1787.12 224.637H1807.52V225.837H1787.12V224.637Z" fill="#F1D92B"/>
<path d="M1780.1 264.453H1789.31V265.76H1780.1V264.453Z" fill="#F1D92B"/>
<path d="M1780.76 266.979H1801.38V267.823H1780.76V266.979Z" fill="#F1D92B"/>
<path d="M1725.16 234.743H1748.96V235.901H1725.16V234.743Z" fill="#F1D92B"/>
<path d="M1725.16 237.481H1740.95V238.325H1725.16V237.481Z" fill="#F1D92B"/>
<path d="M1724.39 247.702H1747.31V249.283H1724.39V247.702Z" fill="#F1D92B"/>
<path d="M1662.71 190.734H1691.92V192.075H1662.71V190.734Z" fill="#F1D92B"/>
<path d="M1660.73 195.234H1680.97V196.341H1660.73V195.234Z" fill="#F1D92B"/>
<path d="M1662.71 208.333H1687.06V211.037H1662.71V208.333Z" fill="#F1D92B"/>
<path d="M1662.71 213.407H1690.01V214.828H1662.71V213.407Z" fill="#F1D92B"/>
<path d="M1661.55 239.483H1686.06V241.222H1661.55V239.483Z" fill="#F1D92B"/>
<path d="M1619.61 204.686V235.901H1622.24V215.243H1621.03V204.686H1619.61Z" fill="#F1D92B"/>
<path d="M1601.16 261.579V279.443H1608.76V235.9H1608.68V241.855H1604.63V261.579H1601.16Z" fill="#F1D92B"/>
<path d="M1529.53 233.297H1556.18V235.295H1529.53V233.297Z" fill="#F1D92B"/>
<path d="M1528.81 238.22H1550.69V239.483H1528.81V238.22Z" fill="#F1D92B"/>
<path d="M1528.81 258.721H1549.87V261.254H1528.81V258.721Z" fill="#F1D92B"/>
<path d="M1498.56 189.822H1518.2V191.546H1498.56V189.822Z" fill="#F1D92B"/>
<path d="M1497.06 197.547H1519.67V199.451H1497.06V197.547Z" fill="#F1D92B"/>
<path d="M1503.2 211.038H1518.2V212.196H1503.2V211.038Z" fill="#F1D92B"/>
<path d="M1499.91 214.726H1511.75V216.201H1499.91V214.726Z" fill="#F1D92B"/>
<path d="M1499.91 243.171H1517.46V244.617H1499.91V243.171Z" fill="#F1D92B"/>
<path d="M1478.31 273.455H1499.6V275.093H1478.31V273.455Z" fill="#F1D92B"/>
<path d="M1479.84 279.925H1493.66V281.626H1479.84V279.925Z" fill="#F1D92B"/>
<path d="M1445.3 224.946H1466.57V226.001H1445.3V224.946Z" fill="#F1D92B"/>
<path d="M1444.08 227.791H1461.75V228.766H1444.08V227.791Z" fill="#F1D92B"/>
<path d="M1444.08 236.218H1465.7V238.851H1444.08V236.218Z" fill="#F1D92B"/>
<path d="M1447.27 243.171H1464.87V243.894H1447.27V243.171Z" fill="#F1D92B"/>
<path d="M1444.08 252.543H1463.24V253.555H1444.08V252.543Z" fill="#F1D92B"/>
<path d="M1445.3 271.248H1464.04V272.557H1445.3V271.248Z" fill="#F1D92B"/>
<path d="M1447.93 203.453V205.98H1461.81V205.114H1460.5V203.453H1447.93Z" fill="#F1D92B"/>
<path d="M1396.23 155.664H1415.18V157.622H1396.23V155.664Z" fill="#F1D92B"/>
<path d="M1393.76 168.681H1419.01V170.742H1393.76V168.681Z" fill="#F1D92B"/>
<path d="M1392.11 172.758H1410.54V175.325H1392.11V172.758Z" fill="#F1D92B"/>
<path d="M1394.77 205.981H1415.18V207.562H1394.77V205.981Z" fill="#F1D92B"/>
<path d="M1391.13 212.195H1414.49V213.25H1391.13V212.195Z" fill="#F1D92B"/>
<path d="M1392.02 243.171H1415.75V244.617H1392.02V243.171Z" fill="#F1D92B"/>
<path d="M1324.01 205.114V268.086H1329.1V215.42H1326.06V205.114H1324.01Z" fill="#F1D92B"/>
<path d="M1367.91 276.004H1372.44V340.951H1367.91V276.004Z" fill="#D91250"/>
<path d="M1350.94 263.9H1368.01V340.949H1350.94V263.9Z" fill="#D91250"/>
<path d="M1354.47 249.14V286.385L1365.21 274.409V237.161L1361.88 240.878L1360.42 242.504L1357.82 245.409L1354.47 249.14Z" fill="#D91250"/>
<path d="M1357.82 237.821V251.949L1361.88 247.441V233.312L1360.42 234.931L1357.82 237.821Z" fill="#D91250"/>
<path d="M1312.66 278.889H1322.49V339.911H1312.66V278.889Z" fill="#D91250"/>
<path d="M1314.64 260.355H1320.27V298.667H1314.64V260.355Z" fill="#D91250"/>
<path d="M1316.67 256.152H1318.51V264.889H1316.67V256.152Z" fill="#D91250"/>
<path d="M1292.29 275.547H1310.25V328.416H1292.29V275.547Z" fill="#D91250"/>
<path d="M1297.82 268.94H1305.74V279.195H1297.82V268.94Z" fill="#D91250"/>
<path d="M1299.5 264.886H1304.11V270.812H1299.5V264.886Z" fill="#D91250"/>
<path d="M1274.78 282.08L1274.82 325.912L1289.45 323.631V298.387H1287.98V287.323L1285.36 282.08H1274.78Z" fill="#D91250"/>
<path d="M1392.02 245.341H1406.13V333.811H1392.02V245.341Z" fill="#D91250"/>
<path d="M1415.74 283.929H1426.99V337.152H1415.74V283.929Z" fill="#D91250"/>
<path d="M1418.02 268.56H1423.56V293.726H1418.02V268.56Z" fill="#D91250"/>
<path d="M1395.28 242.556H1402.85V247.593H1395.28V242.556Z" fill="#D91250"/>
<path d="M1394.77 237.667H1403.35V243.439H1394.77V237.667Z" fill="#D91250"/>
<path d="M1398.61 216.78H1399.53V238.859H1398.61V216.78Z" fill="#D91250"/>
<path d="M1430.72 263.19H1447.58V336.974H1430.72V263.19Z" fill="#D91250"/>
<path d="M1433.47 243.467V270.889L1444.08 279.648V252.252L1440.79 249.525L1439.89 248.781L1436.76 246.191L1433.47 243.467Z" fill="#D91250"/>
<path d="M1436.76 240.605V251.037L1440.79 254.379V243.947L1436.76 240.605Z" fill="#D91250"/>
<path d="M1459.98 247.999H1474.08V336.443H1459.98V247.999Z" fill="#D91250"/>
<path d="M1463.24 245.188H1470.81V250.254H1463.24V245.188Z" fill="#D91250"/>
<path d="M1462.73 240.351H1471.32V246.1H1462.73V240.351Z" fill="#D91250"/>
<path d="M1466.57 219.461H1467.49V241.54H1466.57V219.461Z" fill="#D91250"/>
<path d="M1464.04 236.353H1470.02V242.125H1464.04V236.353Z" fill="#D91250"/>
<path d="M1490.48 280.51H1503.14V336.469H1490.48V280.51Z" fill="#D91250"/>
<path d="M1561.37 233.619H1577.95V338.039H1561.37V233.619Z" fill="#D91250"/>
<path d="M1563.53 226.249H1575.78V244.025H1563.53V226.249Z" fill="#D91250"/>
<path d="M1565.14 217.766H1574.19V230.908H1565.14V217.766Z" fill="#D91250"/>
<path d="M1569.19 202.22H1570.14V224.299H1569.19V202.22Z" fill="#D91250"/>
<path d="M1375.25 240.529H1388.37V354.217H1375.25V240.529Z" fill="#D91250"/>
<path d="M1376.5 233.945H1387.12V258.812H1376.5V233.945Z" fill="#D91250"/>
<path d="M1377.22 228.908H1386.44V235.06H1377.22V228.908Z" fill="#D91250"/>
<path d="M1381.42 183.912H1382.2V235.186H1381.42V183.912Z" fill="#D91250"/>
<path d="M1380.95 225.769H1382.69V228.959H1380.95V225.769Z" fill="#D91250"/>
<path d="M1381.21 222.604H1382.41V226.452H1381.21V222.604Z" fill="#D91250"/>
<path d="M1569.38 264.135V318.954H1920.31V325.309H1922.55V326.724H1927.29V264.135H1923.71V172.526H1921.21V165.688H1919.37V157.815H1914.71V143.357H1913.63V157.815H1908.97V165.688H1907.11V172.526H1904.63V262.666H1902.77V201.869H1891.4V223.545H1882.03V248.409H1873.73V187.515H1870.94V180.222H1869.73V174.702H1867.71V172.729H1866.46V167.032H1862.33V144.927H1861.08V167.032H1856.95V172.729H1855.7V174.702H1853.7V180.222H1852.5V187.515H1849.71V262.666H1837.67V216.101H1834.5V209.697H1826.26V216.101H1823.1V262.666H1817.99L1818.04 247.222V247.214L1818.2 182.301L1795.94 193.767V262.666H1773.76V199.997H1769.74V189.894L1765.95 187.338V182.146L1761.33 179.059V184.248L1757.54 181.692V199.997H1754.38V234.28H1750.08V219.291H1746.15V205.011H1739.76V219.291H1737.15V245.244H1731.3V262.666H1729.35V243.145H1725.02V262.666H1712.82V204.757H1709.05V202.81H1709.64V196.784H1705.24V175.005H1704.19V196.784H1699.77V202.81H1700.36V204.757H1696.61V262.666H1694.82V226.027H1685.83V254.738H1685.45V247.145H1682.23V234.509H1679.04V221.393L1675.21 223.216V219.52L1670.53 221.698V225.421L1666.68 227.245V234.509H1662.61V251.196H1659.03V213.545H1639.4V228.634H1633.87V251.196H1629.91V241.093H1627.35V231.876H1625.32V229.823H1623.2V231.876H1620.87V241.093H1618.59V251.196H1615.83V232.685H1610.65V228.685H1608.76V226.23H1603.48V228.685H1601.53V232.685H1595.18V241.219H1593.21V251.196H1591.89V232.762H1590.21V222.482L1587.19 217.57H1575.03L1575.07 251.196H1569.89V264.135H1569.38Z" fill="#D91250"/>
<path d="M1861.78 208.099L1864.54 209.52V213.642L1866.84 216.001L1867.5 222.604L1869.47 225.483V231.961L1871.28 236.704L1873.72 288.409V227.516H1870.93V220.223H1869.73V214.703H1867.71V212.73H1866.46V207.032H1862.33V184.928L1861.78 208.099Z" fill="#D91250"/>
<path d="M1826.26 249.697L1831.97 251.873V256.93L1835.59 260.406L1837.67 302.666V256.101H1834.5V249.697H1826.26Z" fill="#D91250"/>
<path d="M1795.94 233.768L1815.52 226.903L1818.03 287.219L1818.2 222.298L1795.94 233.768Z" fill="#D91250"/>
<path d="M1761.33 219.06L1764.71 223.182V228.871L1768.37 231.681V240.881L1772.24 242.425L1773.76 302.667V239.998H1769.74V229.895L1765.95 227.339V222.147L1761.33 219.06Z" fill="#D91250"/>
<path d="M1739.76 245.012L1744.75 247.202V260.898L1748.77 261.53L1750.07 274.281V259.292H1746.15V245.012H1739.76Z" fill="#D91250"/>
<path d="M1725.02 283.146L1728.23 284.638L1729.35 302.666V283.146H1725.02Z" fill="#D91250"/>
<path d="M1704.19 215.005L1704.83 238.353H1708.49V245.657L1711.85 246.852C1711.85 246.852 1712.8 301.962 1712.82 302.669V244.76H1709.05V242.813H1709.63V236.786H1705.24V215.011H1704.18L1704.19 215.005Z" fill="#D91250"/>
<path d="M1670.54 261.699L1673.99 261.11V264.481L1677.79 263.569L1678.37 275.507L1681.37 276.139L1682.24 287.146V274.509H1679.04V261.393L1675.21 263.217V259.521L1670.54 261.699Z" fill="#D91250"/>
<path d="M1639.4 253.545L1656.73 256.332L1659.03 291.196V253.545H1639.4Z" fill="#D91250"/>
<path d="M1623.2 269.824V270.099L1624.71 270.47V272.712H1626.74V281.637L1629.42 282.003L1629.91 291.197V281.094H1627.35V271.877H1625.32V269.824H1623.2Z" fill="#D91250"/>
<path d="M1603.48 266.229L1607.44 267.467V269.837H1609.74V273.102L1615.06 273.734L1615.83 291.196V272.685H1610.65V268.685H1608.77V266.229H1603.48Z" fill="#D91250"/>
<path d="M1577.96 257.57L1586.33 259.248L1588.52 264.657L1590.21 272.762V262.482L1587.2 257.57H1577.96Z" fill="#D91250"/>
<path d="M1565.14 217.766L1569.19 218.621L1570.14 218.821L1573.16 219.459V227.043H1574.19V235.542H1576.82L1577.95 257.57V233.618H1575.78V226.248H1574.19V217.766H1570.14V202.22H1569.66L1569.66 217.766L1569.19 217.658V217.766H1565.14Z" fill="#D91250"/>
<path d="M1490.48 280.51L1501.12 282.425L1502.29 298.36L1502.44 300.439H1510.55V308.984L1512.09 309.287L1516.41 310.133L1518.42 312.812V307.958H1512.09V298.36H1503.14V280.51H1490.48Z" fill="#D91250"/>
<path d="M1467.03 219.462V237.072L1467.49 237.13L1469.15 237.333V240.809L1470.02 241.292L1470.46 241.541L1470.81 245.186L1470.18 246.098L1470.02 246.338L1470.19 247.996L1470.25 248.499L1470.81 248.611L1473.16 249.079L1473.93 314.184C1473.93 314.184 1473.99 313.061 1474.08 311.076V247.996H1470.81V246.098H1471.32V240.349H1470.02V236.349H1467.49V219.459H1467.03L1467.03 219.462Z" fill="#D91250"/>
<path d="M1436.76 240.605L1439.89 245.074V251.275L1440.79 251.858L1443.04 253.313V264.34L1444.08 264.625L1445.59 265.043L1447.58 334.644V263.19H1444.08V252.252L1440.79 249.525V243.947L1436.76 240.605Z" fill="#D91250"/>
<path d="M1418.02 268.56V268.748L1421.36 270.098V286.382H1425.01C1425.01 286.382 1426.83 299.532 1426.97 300.081C1426.98 300.104 1426.98 300.107 1426.98 300.081V283.926H1423.56V268.557H1418.02L1418.02 268.56Z" fill="#D91250"/>
<path d="M1394.77 237.667L1398.61 238.39L1399.54 238.565L1401.11 238.859V245.189L1401.32 245.34L1402.85 246.435L1404.32 247.493L1406.13 333.81V245.34H1402.85V243.442H1403.35V237.667H1394.77Z" fill="#D91250"/>
<path d="M1377.21 228.908L1381.43 229.748L1382.2 229.905L1385.21 230.503V235.06L1386.44 235.823V241.444L1387.12 241.721L1387.47 241.864L1388.37 273.62V240.529H1387.12V233.945H1386.44V228.908H1382.69V225.769H1382.41V225.217L1382.2 225.365L1381.64 225.769L1381.43 225.917L1381.21 226.066L1380.95 226.255L1377.21 228.908Z" fill="#D91250"/>
<path d="M1360.42 234.931V243.759L1361.88 242.469L1364.08 240.528V265.938L1365.21 265.532L1367 264.886V277.585H1371.11L1372.44 291.144V276.004H1368V263.899H1365.21V237.16L1361.88 240.877V233.312L1360.42 234.931Z" fill="#D91250"/>
<path d="M1316.67 256.152L1317.82 258.565V261.567H1319.08L1319.51 278.892L1319.52 279.195L1320.27 279.395L1321.77 279.792L1322.49 334.645V334.771C1322.49 334.771 1322.51 334.728 1322.52 334.645H1322.5V278.889H1320.27V260.352H1318.51V256.149H1316.67L1316.67 256.152Z" fill="#D91250"/>
<path d="M1299.5 264.886L1303.47 266.235V269.957L1304.11 270.097L1305.08 270.309V276.435L1305.74 276.553L1308.59 277.05L1310.25 328.415V275.546H1305.74V268.94H1304.11V264.886H1299.5Z" fill="#D91250"/>
<path d="M1274.78 282.08L1284.9 284.639L1286.51 300.019H1288.27L1289.45 323.631V298.387H1287.98V287.323L1285.36 282.08H1274.78Z" fill="#D91250"/>
<path d="M1913.52 82.6113L1916.36 86.2421V116.672L1919.65 117.383V140.978H1925.73V401.39H1928V137.538H1921.38V114.264H1918.24V82.6113H1913.52Z" fill="#F1D92B"/>
<path d="M1874.66 260.775V271.055L1881.05 266.275V292.879H1886.26L1887.57 309.535V289.497H1882.69V263.219L1876.88 266.852V259.402L1874.66 260.775Z" fill="#F1D92B"/>
<path d="M1837.67 247.541L1850.29 251.472L1852.23 316.088V247.541H1837.67Z" fill="#F1D92B"/>
<path d="M1799.07 280.12L1800 281.815V285.552H1803.35V304.675H1807.46L1807.86 318.7V302.691H1803.98V284.197H1800.87V280.12H1799.07Z" fill="#F1D92B"/>
<path d="M1775 272.893V278.765H1777.47V287.481H1785.26L1786.44 317.01V285.792H1778.5V277.821H1775.65V272.893H1775Z" fill="#F1D92B"/>
<path d="M1714.77 255.545L1732.13 257.1L1736.57 266.274V288.173H1739.53L1740.5 322.891V285.937H1737.92V265.368L1733.31 255.545H1714.77Z" fill="#F1D92B"/>
<path d="M1670.55 263.219L1677.56 264.737V269.746H1680.47V275.838H1682.94L1684.3 307.222V274.3H1681.46V268.147H1678.59V263.219H1670.55Z" fill="#F1D92B"/>
<path d="M1581.91 279.303L1587.75 280.361V285.038H1590.35V289.975H1592.98L1593.8 302.671V289.16H1591.12V283.677H1588.63V279.303H1581.91Z" fill="#F1D92B"/>
<path d="M1532.32 281.195L1537.86 275.426H1548.46L1551.41 300.407C1551.41 300.407 1551.49 300.129 1551.62 299.623L1551.64 272.447H1536.15L1532.32 281.192V281.195Z" fill="#F1D92B"/>
<path d="M1495.33 248.542L1501.01 246.998V254.606L1507.08 250.803V277.022H1511.79L1512.09 300.968L1516.41 302.154L1518.04 314.699V299.467H1513.2V274.152H1508.3V247.876L1502.48 251.51V244.094L1495.33 248.542Z" fill="#F1D92B"/>
<path d="M1423.27 264.773L1425.91 266.369V270.98H1428.3V288.485L1432.31 289.791L1433.49 298.542V287.31H1429.59V268.887H1426.5V264.773H1423.27Z" fill="#F1D92B"/>
<path d="M1393.21 257.584L1399.83 260.623V264.531H1402.97V271.933L1410.06 273.882L1412.05 302.022V270.483H1404.13V262.441H1401.26V257.584H1393.21Z" fill="#F1D92B"/>
<path d="M1310.83 244.354L1313.85 245.714V254.145L1319.15 254.968L1320.39 286.902V252.175H1315.3V244.354H1310.83Z" fill="#F1D92B"/>
</svg>
