<svg width="143" height="38" viewBox="0 0 143 38" fill="none" xmlns="http://www.w3.org/2000/svg">
<path d="M14.2852 11.4736L24.061 27.8351H4.50939L14.2852 11.4736Z" fill="white"/>
<path d="M30.5195 19.8428L22.5012 6.62046L38.5379 6.62047L30.5195 19.8428Z" fill="white"/>
<path d="M127.144 18.2058C127.144 16.6926 127.485 15.3605 128.167 14.2096C128.87 13.0587 129.818 12.1636 131.012 11.5242C132.205 10.8635 133.559 10.5332 135.072 10.5332C136.585 10.5332 137.928 10.8635 139.1 11.5242C140.293 12.1636 141.242 13.0587 141.945 14.2096C142.648 15.3605 143 16.6926 143 18.2058C143 19.6976 142.648 21.0297 141.945 22.2019C141.242 23.3528 140.293 24.2585 139.1 24.9192C137.928 25.5586 136.585 25.8783 135.072 25.8783C133.559 25.8783 132.205 25.5586 131.012 24.9192C129.818 24.2585 128.87 23.3528 128.167 22.2019C127.485 21.0297 127.144 19.6976 127.144 18.2058ZM130.692 18.2058C130.692 19.1222 130.884 19.9321 131.268 20.6354C131.651 21.3174 132.173 21.8609 132.834 22.2658C133.495 22.6494 134.241 22.8412 135.072 22.8412C135.882 22.8412 136.617 22.6494 137.278 22.2658C137.96 21.8609 138.493 21.3174 138.876 20.6354C139.26 19.9321 139.452 19.1222 139.452 18.2058C139.452 17.2893 139.26 16.4794 138.876 15.7761C138.493 15.0728 137.96 14.5293 137.278 14.1457C136.617 13.7621 135.882 13.5703 135.072 13.5703C134.241 13.5703 133.495 13.7621 132.834 14.1457C132.173 14.5293 131.651 15.0728 131.268 15.7761C130.884 16.4794 130.692 17.2893 130.692 18.2058Z" fill="white"/>
<path d="M111.318 10.8545H115.09L118.926 20.3493L122.763 10.8545H126.567L118.926 26.9029L111.318 10.8545Z" fill="white"/>
<path d="M94.8921 18.2058C94.8921 16.6926 95.2331 15.3605 95.9151 14.2096C96.6184 13.0587 97.5668 12.1636 98.7603 11.5242C99.9538 10.8635 101.307 10.5332 102.82 10.5332C104.334 10.5332 105.676 10.8635 106.848 11.5242C108.042 12.1636 108.99 13.0587 109.694 14.2096C110.397 15.3605 110.749 16.6926 110.749 18.2058C110.749 19.6976 110.397 21.0297 109.694 22.2019C108.99 23.3528 108.042 24.2585 106.848 24.9192C105.676 25.5586 104.334 25.8783 102.82 25.8783C101.307 25.8783 99.9538 25.5586 98.7603 24.9192C97.5668 24.2585 96.6184 23.3528 95.9151 22.2019C95.2331 21.0297 94.8921 19.6976 94.8921 18.2058ZM98.4406 18.2058C98.4406 19.1222 98.6325 19.9321 99.0161 20.6354C99.3997 21.3174 99.9219 21.8609 100.583 22.2658C101.243 22.6494 101.989 22.8412 102.82 22.8412C103.63 22.8412 104.366 22.6494 105.026 22.2658C105.708 21.8609 106.241 21.3174 106.625 20.6354C107.008 19.9321 107.2 19.1222 107.2 18.2058C107.2 17.2893 107.008 16.4794 106.625 15.7761C106.241 15.0728 105.708 14.5293 105.026 14.1457C104.366 13.7621 103.63 13.5703 102.82 13.5703C101.989 13.5703 101.243 13.7621 100.583 14.1457C99.9219 14.5293 99.3997 15.0728 99.0161 15.7761C98.6325 16.4794 98.4406 17.2893 98.4406 18.2058Z" fill="white"/>
<path d="M88.0534 16.6073C88.0534 15.5204 87.8296 14.6998 87.382 14.1457C86.9345 13.5916 86.2418 13.3145 85.3041 13.3145C84.6647 13.3145 84.0999 13.453 83.6097 13.7301C83.1195 13.9858 82.7359 14.3695 82.4588 14.881C82.1818 15.3712 82.0432 15.9466 82.0432 16.6073V25.5586H78.5906V10.8529H82.0432V13.1227C82.5121 12.2489 83.1089 11.5988 83.8335 11.1726C84.5794 10.7463 85.4639 10.5332 86.4869 10.5332C88.1493 10.5332 89.4174 11.0447 90.2912 12.0677C91.165 13.0694 91.6019 14.4547 91.6019 16.2237V25.5586H88.0534V16.6073Z" fill="white"/>
<path d="M65.7006 20.7313C66.1694 21.2428 66.6383 21.6904 67.1072 22.074C67.5974 22.4363 68.0876 22.7134 68.5778 22.9052C69.068 23.0757 69.5582 23.1609 70.0483 23.1609C70.6664 23.1609 71.1459 23.0224 71.4869 22.7453C71.8493 22.4683 72.0304 22.0847 72.0304 21.5945C72.0304 21.1682 71.8919 20.8059 71.6148 20.5075C71.3378 20.1878 70.9541 19.9214 70.4639 19.7083C69.9737 19.4739 69.3983 19.2394 68.7376 19.005C68.0769 18.7492 67.4162 18.4508 66.7555 18.1098C66.1162 17.7475 65.5833 17.2787 65.1571 16.7032C64.7522 16.1278 64.5497 15.4031 64.5497 14.5293C64.5497 13.6342 64.7735 12.8882 65.221 12.2915C65.6899 11.6947 66.308 11.2578 67.0752 10.9808C67.8638 10.6824 68.7056 10.5332 69.6008 10.5332C70.4107 10.5332 71.1673 10.6504 71.8706 10.8849C72.5952 11.1193 73.2452 11.4283 73.8207 11.812C74.3961 12.1956 74.8863 12.6325 75.2913 13.1227L73.3731 15.1687C72.8829 14.5933 72.2968 14.1244 71.6148 13.7621C70.9328 13.3998 70.2295 13.2186 69.5049 13.2186C69.0147 13.2186 68.6097 13.3252 68.2901 13.5383C67.9704 13.7514 67.8105 14.0604 67.8105 14.4654C67.8105 14.8064 67.9491 15.1154 68.2261 15.3925C68.5245 15.6482 68.9081 15.8827 69.377 16.0958C69.8672 16.3089 70.4107 16.5327 71.0074 16.7671C71.8173 17.0868 72.5632 17.4385 73.2452 17.8221C73.9272 18.2058 74.4707 18.6746 74.8757 19.2288C75.3019 19.7829 75.515 20.5075 75.515 21.4026C75.515 22.788 75.0355 23.9069 74.0764 24.7594C73.1387 25.5906 71.8599 26.0062 70.2402 26.0062C69.2385 26.0062 68.3114 25.857 67.4589 25.5586C66.6277 25.2389 65.8924 24.834 65.253 24.3438C64.6349 23.8323 64.1128 23.2995 63.6865 22.7453L65.7006 20.7313Z" fill="white"/>
<path d="M45.9028 18.2058C45.9028 16.6926 46.2438 15.3605 46.9258 14.2096C47.6292 13.0587 48.5776 12.1636 49.7711 11.5242C50.9646 10.8635 52.3179 10.5332 53.8311 10.5332C55.3443 10.5332 56.687 10.8635 57.8592 11.5242C59.0527 12.1636 60.0011 13.0587 60.7045 14.2096C61.4078 15.3605 61.7594 16.6926 61.7594 18.2058C61.7594 19.6976 61.4078 21.0297 60.7045 22.2019C60.0011 23.3528 59.0527 24.2585 57.8592 24.9192C56.687 25.5586 55.3443 25.8783 53.8311 25.8783C52.3179 25.8783 50.9646 25.5586 49.7711 24.9192C48.5776 24.2585 47.6292 23.3528 46.9258 22.2019C46.2438 21.0297 45.9028 19.6976 45.9028 18.2058ZM49.4514 18.2058C49.4514 19.1222 49.6432 19.9321 50.0268 20.6354C50.4105 21.3174 50.9326 21.8609 51.5933 22.2658C52.254 22.6494 52.9999 22.8412 53.8311 22.8412C54.641 22.8412 55.3763 22.6494 56.037 22.2658C56.719 21.8609 57.2518 21.3174 57.6354 20.6354C58.0191 19.9321 58.2109 19.1222 58.2109 18.2058C58.2109 17.2893 58.0191 16.4794 57.6354 15.7761C57.2518 15.0728 56.719 14.5293 56.037 14.1457C55.3763 13.7621 54.641 13.5703 53.8311 13.5703C52.9999 13.5703 52.254 13.7621 51.5933 14.1457C50.9326 14.5293 50.4105 15.0728 50.0268 15.7761C49.6432 16.4794 49.4514 17.2893 49.4514 18.2058Z" fill="white"/>
</svg>
