<svg width="607" height="585" viewBox="0 0 607 585" fill="none" xmlns="http://www.w3.org/2000/svg">
<g clip-path="url(#clip0_43_2114)">
<path d="M333.174 803.622C316.73 803.622 304.184 801.209 294.806 796.253C284.547 790.828 278.218 782.496 275.463 770.79C275.425 770.702 275.394 770.609 275.375 770.515C273.182 764.665 270.977 756.233 272.707 748.883C274.063 743.19 276.331 737.858 278.524 732.702C281.761 725.083 284.822 717.889 284.597 710.464C283.541 673.695 283.341 646.501 284.01 629.632C284.022 628.957 284.035 628.213 284.047 627.426C284.147 620.869 284.303 610.963 286.69 601.207C286.721 601.063 286.759 600.888 286.809 600.713C287.284 598.344 287.634 597.369 287.677 597.269C287.734 597.119 287.815 596.982 287.915 596.863C294.562 576.094 310.345 565.562 334.824 565.562C337.285 565.562 339.866 565.669 342.502 565.881C360.084 567.3 373.286 573.606 381.733 584.619C395.472 602.532 391.917 626.488 391.455 629.207C391.498 629.538 391.536 629.863 391.573 630.188C391.629 630.651 391.686 631.144 391.736 631.632C391.911 633.282 392.067 635.088 392.204 637.138C392.273 638.051 392.323 638.97 392.373 640.063C392.61 644.645 392.673 649.264 392.567 653.789C392.448 658.732 392.136 663.801 391.623 668.857C388.131 704.033 386.862 719.721 386.712 737.671C386.712 737.696 386.712 737.721 386.712 737.752C386.712 739.858 386.712 741.971 386.712 744.152L386.744 745.946C386.769 747.308 386.787 748.696 386.819 750.115C387.65 751.84 387.974 755.521 388.093 757.834C388.299 761.702 388.212 767.671 386.619 774.152C383.695 786.053 375.391 800.671 352.43 802.709C345.508 803.328 339.041 803.64 333.212 803.64L333.174 803.622Z" fill="#142D24"/>
<path d="M334.811 566.944C337.21 566.944 339.735 567.044 342.377 567.263C400.508 571.957 390.03 629.164 390.03 629.164C390.08 629.551 390.13 629.939 390.174 630.326C390.236 630.801 390.286 631.276 390.33 631.751C390.517 633.514 390.667 635.332 390.792 637.22C390.867 638.17 390.911 639.114 390.955 640.108C391.173 644.339 391.267 648.895 391.142 653.733C391.03 658.439 390.736 663.439 390.205 668.695C386.812 702.865 385.444 719.14 385.282 737.64C385.282 737.665 385.282 737.69 385.282 737.69C385.282 739.809 385.282 741.927 385.282 744.127C385.319 746.171 385.35 748.265 385.394 750.446C386.887 751.409 393.779 797.609 352.274 801.297C345.526 801.897 339.154 802.222 333.174 802.222C302.391 802.222 282.185 793.653 276.775 770.272C276.75 770.24 276.719 770.234 276.756 770.215C274.357 763.884 272.47 755.99 274.069 749.203C277.393 735.259 286.39 723.302 285.99 710.421C285.622 697.521 284.416 654.701 285.397 629.682C285.534 623.02 285.409 612.27 288.04 601.532C288.077 601.363 288.108 601.207 288.152 601.045C288.152 601.026 288.152 601.013 288.165 600.995C288.633 598.651 288.971 597.745 288.971 597.745H289.077C294.038 581.794 305.934 566.944 334.805 566.944M334.805 564.15C309.726 564.15 293.525 574.932 286.634 596.207C286.521 596.376 286.428 596.563 286.353 596.757C286.284 596.938 285.922 597.963 285.447 600.32C285.434 600.363 285.422 600.413 285.416 600.457C285.378 600.607 285.347 600.751 285.309 600.907C282.891 610.801 282.735 620.789 282.635 627.401C282.623 628.176 282.61 628.907 282.598 629.601C281.935 646.501 282.135 673.72 283.191 710.502C283.41 717.627 280.411 724.684 277.231 732.159C275.019 737.365 272.726 742.753 271.339 748.559C269.883 754.734 270.783 762.24 274.013 770.884C274.044 771.009 274.082 771.134 274.126 771.253C276.962 783.14 283.697 791.966 294.144 797.491C303.728 802.559 316.486 805.022 333.162 805.022C339.035 805.022 345.545 804.709 352.512 804.084C362.908 803.159 371.33 799.603 377.553 793.503C382.533 788.622 386.025 782.222 387.931 774.465C389.561 767.822 389.655 761.703 389.443 757.74C389.205 753.328 388.693 751.003 388.162 749.728C388.137 748.446 388.118 747.196 388.099 745.971L388.068 744.109C388.074 741.946 388.081 739.852 388.068 737.765C388.068 737.734 388.068 737.696 388.068 737.665C388.218 719.765 389.486 704.108 392.973 668.977C393.485 663.883 393.804 658.776 393.922 653.801C394.035 649.251 393.972 644.595 393.729 639.964C393.685 639.039 393.635 638.026 393.56 637.008C393.423 634.97 393.266 633.157 393.091 631.476C393.048 630.989 392.992 630.489 392.929 630.001C392.898 629.745 392.867 629.482 392.835 629.226C393.423 625.557 396.59 601.732 382.807 583.763C374.11 572.425 360.578 565.938 342.584 564.488C339.91 564.269 337.292 564.163 334.793 564.163L334.805 564.15Z" fill="#010101"/>
<path opacity="0.38" d="M329.476 645.208C329.288 643.47 329.269 642.476 329.269 642.476L336.261 647.764C345.876 651.076 356.61 653.289 368.319 653.67V653.726C368.069 656.22 359.746 740.027 385.619 761.346C385.606 760.253 385.594 759.146 385.556 758.071C385.413 753.015 385.331 748.471 385.282 744.127C385.288 741.927 385.294 739.809 385.282 737.69V737.64C385.444 719.14 386.812 702.871 390.205 668.695C390.736 663.439 391.03 658.439 391.142 653.733C391.261 648.895 391.173 644.333 390.955 640.108C390.911 639.114 390.861 638.164 390.792 637.22C390.661 635.332 390.511 633.514 390.33 631.751C390.286 631.276 390.23 630.801 390.174 630.326C390.13 629.939 390.08 629.551 390.03 629.164C390.03 629.164 400.508 571.963 342.377 567.263C307.97 564.482 294.456 580.469 289.083 597.757H288.977C288.977 597.757 288.633 598.657 288.171 601.001C288.165 601.013 288.158 601.032 288.158 601.051C288.115 601.213 288.077 601.376 288.046 601.538C288.052 601.545 288.052 601.557 288.058 601.557C287.515 604.307 286.84 608.757 286.253 615.557C294.844 624.351 309.501 636.945 329.482 645.214L329.476 645.208Z" fill="#010101"/>
<path d="M236.488 406.655L247.934 379.698L261.074 350.866L277.099 325.529L288.502 320.416L307.514 326.397L320.322 338.298L325.021 352.923L311.35 383.767L281.579 443.799L236.807 426.874L236.488 406.655Z" fill="#D9D4CC"/>
<path d="M269.877 471.624C272.701 466.224 280.754 453.811 281.848 450.755C282.941 447.699 281.317 440.824 284.916 434.842C289.277 427.58 325.596 350.722 325.021 347.56C323.428 338.804 311.738 327.635 310.326 327.597C307.72 327.535 260.037 410.779 254.526 428.173C254.057 429.648 251.939 436.23 249.303 445.342C248.684 447.474 248.191 449.23 247.878 450.355L269.877 471.618V471.624Z" fill="#92928C"/>
<path d="M229.035 433.086L266.316 471.074L257.862 489.862L245.554 513.706L238.588 516.018C238.588 516.018 206.361 492.493 206.636 492.143C206.911 491.793 206.755 483.38 206.755 483.38C206.755 483.38 216.145 463.593 216.295 463.186C216.445 462.78 229.041 433.092 229.041 433.092L229.035 433.086Z" fill="#C77743"/>
<path d="M236.164 497.037C237.519 493.893 238.844 490.643 240.131 487.28C244.38 476.149 247.516 465.486 249.834 455.549L268.39 468.605L251.277 504.649L245.823 515.137C245.823 515.137 241.418 516.212 240.893 516.125C240.368 516.037 230.49 510.106 230.49 510.106L236.157 497.049L236.164 497.037Z" fill="#7D4927"/>
<path d="M282.666 322.16C279.118 323.253 273.038 326.178 259.812 352.241C253.208 365.248 247.71 379.948 236.969 408.817C223.618 444.724 222.374 448.136 219.644 454.58C216.202 462.699 213.709 471.23 209.747 479.105C207.005 484.568 205.824 486.118 206.017 489.099C206.136 490.899 206.898 495.349 227.104 508.856C237.451 515.774 240.699 516.912 243.586 515.749C245.891 514.824 247.428 512.337 250.409 507.406C252.933 503.224 254.195 501.137 255.926 496.593C258.525 489.774 271.714 462.555 298.092 408.117C320.922 361.004 327.457 354.666 322.984 343.391C317.067 328.485 296.962 317.728 282.654 322.147L282.666 322.16Z" stroke="#010101" stroke-width="5.32" stroke-linecap="round" stroke-linejoin="round"/>
<path d="M226.117 422.692L228.022 416.742L232.902 407.623L234.295 400.154L239.25 401.873L252.046 420.917L266.441 434.042L279.143 438.761L284.916 446.03L277.599 457.292L270.933 472.024L261.399 465.486L234.558 437.617L225.105 425.873L226.117 422.692Z" fill="#D9D4CC"/>
<path d="M267.771 432.561L254.526 457.674L269.877 472.562C269.877 472.562 272.851 471.311 272.67 471.105C272.489 470.899 282.904 445.205 282.904 445.205L276.618 437.967L267.771 432.567V432.561Z" fill="#92928C"/>
<path d="M237.157 400.354C236.807 400.198 235.839 399.773 234.889 400.129C233.021 400.823 232.658 404.029 232.471 405.292C231.24 413.442 226.023 415.417 225.48 421.373C224.973 426.923 228.935 431.423 233.383 436.33C265.616 471.905 269.739 472.555 271.239 471.505C272.045 470.943 271.558 470.255 273.251 465.449C273.569 464.543 274.944 460.724 277.037 456.961C280.898 450.017 283.891 449.236 283.585 446.036C283.379 443.861 281.829 442.411 279.53 440.317C274.794 435.998 269.883 434.261 268.502 433.723C254.082 428.073 243.517 403.154 237.151 400.354H237.157Z" stroke="#010101" stroke-width="5.32" stroke-linecap="round" stroke-linejoin="round"/>
<path d="M237.713 412.848C243.58 422.811 250.79 431.911 260.212 438.667C263.298 440.955 266.591 442.974 269.996 444.917C270.308 445.08 270.102 445.611 269.752 445.492C258.3 442.067 248.109 434.236 241.824 424.055C239.762 420.623 238.094 416.948 237.138 413.086C237.051 412.754 237.538 412.536 237.713 412.848Z" fill="#020304"/>
<path d="M241.799 432.424C250.509 442.874 259.83 449.799 272.732 454.286C273.013 454.38 272.913 454.836 272.614 454.793C262.736 453.574 253.289 448.549 246.722 441.055C244.554 438.524 242.68 435.736 241.362 432.692C241.243 432.43 241.612 432.186 241.805 432.417L241.799 432.424Z" fill="#020304"/>
<path d="M242.28 515.906C233.627 517.562 224.436 518.868 214.714 519.681C182.513 522.362 152.998 518.9 127.919 513.262C126.282 512.893 124.708 511.781 123.577 510.125C122.596 508.681 121.621 507.025 120.74 505.125C116.435 495.837 117.073 486.662 117.91 481.681C118.235 479.749 119.497 478.412 121.146 478.287C130.887 477.555 140.696 476.874 150.561 476.243C176.752 474.562 206.786 470.655 232.346 469.724" fill="#C77743"/>
<path d="M118.903 494.987C122.652 495.862 128.2 497.043 134.898 498.05C156.041 501.231 171.373 500.056 179.964 499.581C193.565 498.825 211.341 491.512 237.419 493.75L243.117 515.319L217.182 520.506L162.426 518.7L126.213 512.587L120.515 504.431L118.903 494.987Z" fill="#7D4927"/>
<path d="M242.28 515.906C233.627 517.562 224.436 518.868 214.714 519.681C182.513 522.362 152.998 518.9 127.919 513.262C126.282 512.893 124.708 511.781 123.577 510.125C122.596 508.681 121.621 507.025 120.74 505.125C116.435 495.837 117.073 486.662 117.91 481.681C118.235 479.749 119.497 478.412 121.146 478.287C130.887 477.555 140.696 476.874 150.561 476.243C176.752 474.562 206.786 470.655 232.346 469.724" stroke="#020304" stroke-width="5.28" stroke-miterlimit="10" stroke-linecap="round"/>
<path d="M144.669 478.137L144.657 478.306L141.327 517.012L132.249 518.719L116.067 521.869L104.714 525.825L82.528 529.025L73.7748 535.744L65.7525 539.3C65.7525 539.3 62.3537 538 62.3162 537.906C62.2787 537.813 60.5105 535.181 60.6417 535.025C60.7729 534.869 71.7505 524.237 71.7505 524.237L85.2834 517.825L71.7817 516.425L58.8548 523.762L49.0519 528.45L49.3268 522.619C49.3268 522.619 42.6479 524.862 42.8915 522C42.8103 521.881 40.3236 518.081 40.3236 518.081L39.4927 512.344L48.4834 495.387L57.5553 488.737L67.0708 481.674L89.7318 473.712L104.189 471.612L97.8603 465.112L86.2893 461.705L78.8543 453.943L80.1039 446.512L82.1344 445.062L99.5598 452.918L113.036 459.187L123.733 462.937L143.007 475.187L145.088 477.768" fill="#C77743"/>
<path d="M47.9648 527.763C52.5633 526.306 76.4427 509.344 83.2529 508.375C90.6941 507.319 94.7302 506.744 99.741 505.45C106.901 503.6 108.044 502.35 114.792 500.531C119.753 499.194 124.32 498.05 130.362 497.931C135.266 497.837 139.34 498.469 142.17 499.081L143.026 499.162L141.714 514.5L136.747 518.069L117.529 522.631C108.076 527.125 94.4928 525.013 85.0397 529.507C81.0224 531.419 80.8037 534.088 79.6916 539.307C78.9168 542.944 75.0619 545.138 72.7502 548.051L67.5644 548.701L63.8657 544.025L62.4787 538.257H57.4116L55.6747 535.894L57.068 530.807L53.463 532.319C52.3134 531.713 51.1638 531.1 50.0142 530.494" fill="#7D4927"/>
<path d="M141.758 515.775C141.314 516.475 140.646 516.775 139.409 517.638C137.178 519.194 134.979 519.106 129.493 519.575C128.131 519.694 125.726 519.9 124.164 520.125C118.678 520.906 115.936 522.981 112.249 524.531C110.231 525.381 104.808 526.15 93.5619 527.425C84.8024 528.419 83.1342 529.425 80.7287 531.994C79.8603 532.919 80.2851 536.413 78.5045 540.607C75.1306 548.557 72.4566 548.469 70.5884 549.007C67.9893 549.763 64.2531 547.075 63.5783 545.119C63.5596 545.057 63.5346 544.982 63.5283 544.969C63.4409 544.682 62.8911 542.807 63.7158 541.025C64.1219 540.144 64.4843 540.125 64.4093 539.844C64.1156 538.707 58.4738 540.525 56.4245 538.107C55.3249 536.807 55.5748 534.644 56.0746 533.381C56.9681 531.119 59.311 530.081 59.1986 529.906C59.0424 529.663 55.2811 533.1 52.1884 532.131C49.9829 531.438 48.8396 528.738 48.5084 527.063C48.4272 526.65 47.9961 524.288 49.2707 522.063C50.3453 520.188 52.076 519.375 51.976 519.213C51.8073 518.944 47.8337 522.688 44.2724 521.85C41.1859 521.125 38.868 517.081 38.8555 513.519C38.8555 511.719 40.0551 509.706 42.4667 505.744C42.4667 505.744 45.8718 500.15 51.1825 493.987C52.1322 492.881 53.0756 491.918 53.0756 491.918C53.1131 491.875 53.9191 491.056 54.7751 490.262C57.7865 487.475 60.8043 485.556 60.8043 485.556C61.8851 484.868 63.3846 484.106 66.3836 482.575C66.9834 482.268 67.7581 481.881 68.8328 481.481C70.0949 481.012 70.9758 480.825 71.8443 480.606C72.9001 480.343 74.2122 479.9 76.8301 479.018C78.8106 478.35 79.9353 477.925 82.3219 477.05C85.8707 475.75 88.9759 474.637 89.5632 474.431C92.5685 473.381 97.2419 472.375 104.421 472.743" stroke="black" stroke-width="5" stroke-miterlimit="10" stroke-linecap="round"/>
<path d="M78.4234 551.263C74.7746 551.263 71.4007 549.619 69.1703 546.75C69.0016 546.531 68.8391 546.306 68.6767 546.075L2.2555 447.124C0.506093 444.524 -0.118695 441.393 0.481101 438.318C1.08715 435.243 2.84905 432.586 5.45441 430.836L43.6477 405.18C45.0909 404.211 46.6904 403.586 48.3961 403.324C48.9834 403.23 49.5832 403.186 50.183 403.186C54.1004 403.186 57.7429 405.13 59.9296 408.38L126.357 507.325C128.106 509.925 128.731 513.056 128.131 516.131C127.532 519.206 125.764 521.862 123.158 523.612L84.9649 549.269C83.0218 550.575 80.7663 551.263 78.4359 551.263H78.4234Z" fill="#343233"/>
<path d="M50.1767 403.448C53.8692 403.448 57.493 405.23 59.7047 408.53L126.132 507.475C129.662 512.737 128.263 519.869 123.002 523.4L84.8087 549.056C82.8469 550.375 80.6226 551.006 78.4234 551.006C74.987 551.006 71.6069 549.463 69.3702 546.588C69.2015 546.375 69.0453 546.156 68.8891 545.925L2.46793 446.98C-1.06212 441.718 0.337404 434.586 5.59812 431.055L43.7914 405.398C45.2346 404.43 46.8216 403.83 48.4336 403.58C49.0146 403.492 49.5957 403.448 50.183 403.448M50.183 402.93C49.5707 402.93 48.9584 402.98 48.3586 403.067C46.6154 403.336 44.9847 403.973 43.5102 404.967L5.31696 430.624C2.66161 432.411 0.855978 435.124 0.237438 438.268C-0.381102 441.411 0.262429 444.605 2.04932 447.268L68.4767 546.213C68.6329 546.444 68.7954 546.669 68.9766 546.906C71.257 549.838 74.7059 551.519 78.4359 551.519C80.8163 551.519 83.1218 550.813 85.1086 549.481L123.302 523.825C125.957 522.037 127.763 519.325 128.381 516.181C129 513.037 128.356 509.843 126.57 507.181L60.1421 408.236C57.9116 404.911 54.1879 402.93 50.183 402.93Z" fill="#010101"/>
<path d="M45.9602 407.508L6.6736 433.897C3.26172 436.189 2.35303 440.814 4.64399 444.227L71.7109 544.143C74.0019 547.556 78.625 548.465 82.0369 546.174L121.323 519.785C124.735 517.493 125.644 512.868 123.353 509.455L56.2861 409.539C53.9951 406.126 49.3721 405.217 45.9602 407.508Z" fill="#070708" stroke="#010101" stroke-width="0.78" stroke-linecap="round" stroke-linejoin="round"/>
<g style="mix-blend-mode:soft-light">
<path d="M7.86612 429.53C7.86612 429.53 1.09342 434.324 1.51202 440.542C1.83067 445.236 3.9487 449.099 4.9671 450.711L2.4617 446.98C-1.06835 441.717 0.331176 434.586 5.59189 431.055L7.86612 429.53Z" fill="white"/>
</g>
<g style="mix-blend-mode:soft-light">
<path d="M40.1364 407.855C27.0971 418.205 11.5461 427.061 11.5461 427.061L40.1364 407.855Z" fill="white"/>
</g>
<path d="M80.4539 447.48L79.6917 455.674L88.5761 463.318L101.284 467.693L109.263 481.787L111.281 458.943L92.1874 449.355L82.1346 445.062L80.4539 447.48Z" fill="#C77743"/>
<path d="M144.488 477.631C143.695 476.806 142.445 475.574 140.815 474.193C136.841 470.831 133.954 469.449 127.338 465.68C118.204 460.474 119.478 460.693 117.366 459.912C111.718 457.818 112.387 459.237 107.251 456.499C104.452 455.005 101.722 453.987 98.0729 452.118C94.5178 450.299 93.6681 449.087 89.7195 447.293C83.5715 444.499 82.4844 444.03 80.9287 444.786C78.8856 445.78 78.6545 450.362 79.7229 453.605C81.7659 459.818 87.1203 461.943 88.3324 462.318C90.9378 463.118 93.6806 464.112 96.2422 465.024C97.2169 465.368 100.147 466.987 101.703 469.068C103.259 471.149 105.233 473.193 106.782 477.218C107.295 478.549 109.319 483.824 112.424 487.931C114.149 490.212 117.616 494.006 124.083 496.868" stroke="black" stroke-width="5" stroke-miterlimit="10" stroke-linecap="round"/>
<path fill-rule="evenodd" clip-rule="evenodd" d="M30.3272 475.012C30.3084 475.099 31.2893 476.605 34.5195 481.449C38.3932 487.262 38.7493 487.774 38.8805 487.787C39.0055 487.799 40.0801 487.106 45.2721 483.655C51.3638 479.612 51.52 479.505 51.5824 479.305L51.6449 479.105L47.4526 472.818C43.304 466.599 43.2603 466.53 43.0916 466.524C42.9416 466.518 42.1544 467.024 36.6375 470.705C31.8267 473.918 30.3459 474.924 30.3334 475.012H30.3272ZM45.3346 465.049C45.3096 465.205 45.6532 465.73 49.4957 471.499L53.6817 477.78L53.9129 477.768C54.1191 477.755 54.3503 477.618 55.9685 476.537C57.7179 475.368 58.1177 475.055 58.0427 474.899C58.0303 474.868 58.0053 474.812 57.9928 474.774C57.9803 474.737 57.3805 473.818 56.662 472.73L55.3562 470.755L57.368 469.412C59.0736 468.274 59.386 468.043 59.436 467.905C59.4923 467.749 59.4485 467.674 58.1365 465.711L56.7807 463.68L56.562 463.661C56.3496 463.643 56.2683 463.693 54.4377 464.93C53.3881 465.636 52.5009 466.237 52.4571 466.262C52.4009 466.293 52.051 465.812 51.0139 464.28C49.7081 462.355 49.6331 462.261 49.4769 462.249C49.3395 462.249 48.9521 462.48 47.3339 463.561C45.4908 464.793 45.3533 464.893 45.3283 465.049H45.3346ZM53.8879 459.305C53.8442 459.436 53.9504 459.611 55.2125 461.511C56.4745 463.411 56.5932 463.574 56.7369 463.561C56.8307 463.549 57.5991 463.068 58.8362 462.249C60.0733 461.43 60.8106 460.899 60.8543 460.818C60.923 460.693 60.873 460.605 59.5485 458.624C58.2239 456.643 58.1615 456.561 58.024 456.555C57.8053 456.543 53.9566 459.111 53.8817 459.318L53.8879 459.305ZM60.292 455.068C60.267 455.218 60.4107 455.455 61.579 457.205C62.7474 458.955 62.9161 459.18 63.066 459.243L63.241 459.311L65.2528 457.968C67.1334 456.711 67.2709 456.611 67.2896 456.455C67.3146 456.305 67.1709 456.068 65.9838 454.286C64.7967 452.505 64.6405 452.286 64.4843 452.261C64.3344 452.236 64.0969 452.38 62.3163 453.574C60.5357 454.768 60.317 454.918 60.292 455.074V455.068ZM68.8578 449.349C68.8328 449.499 68.9765 449.736 70.1449 451.486C71.3132 453.236 71.4819 453.461 71.6319 453.524L71.8068 453.593L73.7749 452.28C75.0245 451.449 75.7742 450.918 75.818 450.83C75.8867 450.705 75.8367 450.618 74.5059 448.624C73.4813 447.086 73.0939 446.549 73.0127 446.53C72.9252 446.511 72.3754 446.855 70.8946 447.849C69.0203 449.099 68.8891 449.199 68.8641 449.355L68.8578 449.349ZM67.4396 456.518C67.4396 456.68 67.6207 456.98 68.7329 458.649C69.845 460.318 70.0574 460.605 70.2011 460.661L70.3761 460.73L72.3691 459.399C74.2872 458.118 74.3685 458.061 74.3997 457.874C74.4372 457.693 74.3872 457.605 73.1126 455.693C71.8381 453.78 71.7756 453.699 71.6194 453.68C71.4694 453.655 71.232 453.799 69.4451 454.993L67.4396 456.33V456.518ZM37.6809 476.449C37.6247 476.562 37.7184 476.724 38.9055 478.499C39.6115 479.555 40.2301 480.443 40.2863 480.468C40.3613 480.499 40.8173 480.212 42.3668 479.162L44.3536 477.818L43.0603 475.843C42.1357 474.437 41.7295 473.862 41.6483 473.837C41.5546 473.805 41.1735 474.043 39.6428 475.068C38.4682 475.855 37.7309 476.38 37.6934 476.455L37.6809 476.449ZM59.636 467.73C59.586 467.805 59.5485 467.905 59.5485 467.955C59.5485 468.005 60.1608 468.949 60.898 470.049C62.0414 471.743 62.2663 472.055 62.3913 472.08C62.51 472.105 62.8411 471.905 64.4656 470.843C65.8339 469.943 66.4336 469.524 66.5149 469.405L66.6336 469.23L65.2528 467.162C64.0157 465.305 63.8595 465.086 63.7221 465.074C63.6034 465.061 63.1847 465.318 61.6478 466.33C60.5856 467.03 59.6797 467.662 59.6297 467.73H59.636ZM66.0338 463.474C65.9838 463.555 65.9713 463.699 66.0025 463.799C66.0338 463.899 66.6523 464.843 67.3771 465.893C68.6266 467.705 68.7016 467.805 68.8578 467.812C69.114 467.824 72.8877 465.293 72.9814 465.049L73.0501 464.874L71.6881 462.83C70.4635 460.999 70.3073 460.78 70.1761 460.768C69.9887 460.749 66.1712 463.243 66.0338 463.474ZM74.6184 457.705C74.4497 457.93 74.4934 458.011 75.8554 460.055C77.13 461.968 77.1862 462.043 77.3737 462.08C77.5549 462.118 77.6423 462.068 79.473 460.843C80.5726 460.105 81.4285 459.505 81.491 459.418L81.6035 459.261L80.1977 457.155L78.7919 455.049L78.6045 455.08C78.4108 455.111 74.7621 457.511 74.6246 457.699L74.6184 457.705Z" fill="white"/>
<mask id="mask0_43_2114" style="mask-type:luminance" maskUnits="userSpaceOnUse" x="41" y="462" width="52" height="43">
<path d="M83.9889 462.862L41.168 491.441L49.5489 504.007L92.3698 475.428L83.9889 462.862Z" fill="white"/>
</mask>
<g mask="url(#mask0_43_2114)">
<path d="M50.6329 489.612C51.4888 492.324 52.3511 495.031 53.207 497.743C53.382 498.312 53.5819 498.868 53.7256 499.449C53.7631 499.599 53.6256 499.787 53.5631 499.962C53.5631 499.974 53.5319 499.981 53.5194 499.993C53.0883 500.268 52.6509 500.768 52.2323 500.756C51.8262 500.743 51.4201 500.224 51.0327 499.906C48.015 497.393 45.0035 494.874 41.9921 492.362C41.8859 492.274 41.7921 492.174 41.6484 492.037C42.067 491.762 42.4357 491.468 42.8543 491.255C42.9855 491.187 43.2791 491.28 43.4166 491.399C45.4596 493.124 47.484 494.855 49.5083 496.593C50.233 497.212 50.9578 497.831 51.77 498.406C51.5326 497.631 51.3014 496.849 51.064 496.074C50.233 493.387 49.4021 490.705 48.5523 488.03C48.4336 487.655 48.4899 487.443 48.846 487.218C49.8082 486.612 49.7957 486.593 50.6516 487.312C53.1383 489.418 55.6249 491.53 58.1178 493.643C58.2365 493.743 58.3615 493.837 58.5802 494.012C58.0991 492.505 57.6492 491.118 57.2056 489.737C56.5309 487.643 55.8561 485.549 55.1751 483.462C55.0876 483.187 55.1126 483.012 55.3875 482.855C55.7499 482.649 56.0873 482.399 56.4871 482.13C56.862 483.33 57.2181 484.455 57.5743 485.587C58.5177 488.637 59.4486 491.693 60.4108 494.737C60.542 495.162 60.4733 495.381 60.0922 495.624C58.9113 496.374 58.9176 496.399 57.8554 495.506C55.6249 493.63 53.3944 491.755 51.164 489.88C51.0265 489.762 50.8703 489.655 50.7266 489.543C50.6954 489.568 50.6641 489.593 50.6391 489.618L50.6329 489.612Z" fill="white"/>
<path d="M66.2651 484.637C65.5779 483.318 64.7344 482.918 63.5973 483.324C62.0916 483.862 61.3481 485.024 61.6042 486.455L60.3547 487.287C59.8361 486.318 59.8298 485.337 60.3547 484.393C61.1794 482.93 62.4664 482.03 64.1034 481.711C65.4029 481.455 66.4088 482.024 67.1399 483.062C67.8958 484.13 68.6019 485.237 69.3266 486.324C69.7327 486.937 70.2763 487.062 70.9511 486.705L71.3072 487.243L71.6446 487.749C70.7074 488.837 69.7515 488.98 68.7081 488.199C68.4894 490.174 67.2461 491.262 65.4842 491.849C64.1346 492.299 63.01 491.893 62.2977 490.812C61.5418 489.662 61.598 488.43 62.5539 487.387C63.06 486.837 63.691 486.393 64.2971 485.943C64.9156 485.48 65.5779 485.074 66.2464 484.63L66.2651 484.637ZM67.0274 485.793C65.9528 486.512 64.8469 487.168 63.841 487.949C63.1912 488.449 63.1724 489.13 63.5411 489.799C63.8847 490.418 64.5407 490.68 65.3092 490.468C66.2152 490.224 66.9149 489.662 67.4023 488.874C68.0395 487.843 67.8709 486.643 67.0336 485.793H67.0274Z" fill="white"/>
<path d="M83.7029 474.412L77.5113 478.543C78.1361 479.943 79.9917 480.549 81.3912 479.824C82.8157 479.093 83.403 477.868 83.1094 476.649C83.0844 476.543 83.1219 476.355 83.2031 476.299C83.5467 476.037 83.9216 475.805 84.284 475.562C85.0025 476.837 84.6839 478.693 83.578 479.887C81.3475 482.293 77.9611 482.105 76.0805 479.462C75.1121 478.105 74.6498 476.63 75.1621 474.968C75.6744 473.293 77.5113 471.88 79.3669 471.711C81.0351 471.555 82.8095 472.58 83.6217 474.168C83.653 474.224 83.6655 474.293 83.6967 474.412H83.7029ZM76.824 477.437L81.6286 474.23C80.6602 472.999 79.242 472.793 77.8612 473.662C76.5804 474.468 76.1493 475.999 76.824 477.437Z" fill="white"/>
<path d="M83.7279 469.98L82.3034 470.93L81.5037 469.73L82.9282 468.78L81.46 466.58L82.7595 465.718L84.2153 467.899L86.2896 466.512L87.0893 467.705L85.0525 469.068C85.14 469.23 85.1962 469.349 85.2712 469.462C86.2208 470.887 87.1643 472.312 88.1202 473.73C88.645 474.518 89.0199 474.587 89.8259 474.074C90.207 473.824 90.5819 473.568 90.9942 473.293L91.8002 474.499C90.988 474.968 90.2132 475.493 89.376 475.868C88.6075 476.212 87.839 475.943 87.2955 475.193C86.3645 473.905 85.5023 472.574 84.6026 471.262C84.3215 470.843 84.0466 470.424 83.7404 469.974L83.7279 469.98Z" fill="white"/>
<path d="M65.4153 476.193L66.6711 475.355L73.9686 486.299L72.7128 487.137L65.4153 476.193Z" fill="white"/>
<path d="M77.0551 484.249L75.8055 485.08L68.5017 474.136L69.7513 473.305L77.0551 484.249Z" fill="white"/>
</g>
<path d="M292.263 314.979L307.27 310.31L335.38 306.703L344.783 303.828L417.795 302.478L446.423 307.735L461.774 309.079L476.226 302.778L486.216 301.16L497.862 304.36L503.991 310.022L514.325 318.322L520.792 329.372L510.058 438.955L513.257 488.468L517.749 511.45L527.952 559.6L532.656 593.519L533.431 624.42L527.746 656.295L518.842 677.714L483.298 674.845L444.005 659.801L414.347 637.682L396.94 626.607L380.583 625.97L361.714 634.189L346.126 640.076C346.126 640.076 330.969 639.889 330.419 639.864C329.869 639.839 312.644 640.189 312.644 640.189C312.644 640.189 290.97 646.107 289.845 646.632C288.721 647.157 277.955 652.995 277.955 652.995L274.6 632.857L275.331 608.413L283.372 565.632L285.597 543.55L285.016 520.912L282.373 498.281L282.71 478.168L285.459 438.13L283.816 392.711L283.741 366.86L282.167 340.104L285.378 324.979L292.269 314.979H292.263Z" fill="#793F91"/>
<path d="M315.168 309.735L309.789 368.229V410.63L309.682 430.418L309.158 462.787L308.227 487.506L309.689 520.944L312.494 549.588L313.431 571.882L311.144 597.507L304.996 625.632L299.773 643.739L317.805 639.482L343.027 639.645L344.258 626.464L344.358 593.857L342.384 551.356L341.759 515.944L341.278 478.337V397.605L341.953 321.86L344.72 305.297" fill="#3E8E69"/>
<path d="M488.322 675.245L519.923 681.046L528.252 656.983L533.425 624.064L532.163 588.332L528.177 561.232L518.186 513.544L514.431 494.481L511.07 469.174L509.82 437.924L502.96 309.079L496.694 303.71L486.216 301.166L472.471 304.722C472.471 304.722 467.629 321.085 464.923 337.529C462.037 355.042 461.274 372.711 461.349 372.929C461.499 373.348 463.686 395.323 463.686 395.323L470.453 425.949L479.618 463.968L487.74 498.862L492.845 533.55L493.982 584.069L492.539 624.42L490.864 652.301L488.315 675.252L488.322 675.245Z" fill="#3E8E69"/>
<path d="M413.341 331.322L409.342 369.067L400.701 416.986L398.883 430.424L399.97 450.005L404.55 475.212L411.735 523.337L415.903 558.444L419.133 599.382L421.257 644.276L444.224 659.07L451.097 662.089C451.097 662.089 452.14 653.858 452.14 653.133C452.14 652.408 452.852 606.569 452.852 606.569L450.684 571.675L442.668 514.381L438.814 457.711L437.033 371.054L442.537 307.491L414.291 302.472L413.341 331.316V331.322Z" fill="#3E8E69"/>
<path opacity="0.44" d="M473.376 398.754C473.458 407.586 473.508 420.142 473.376 435.211C473.327 440.824 472.82 493.012 470.459 527.506C468.447 556.888 463.149 601.876 447.879 660.682L477.881 672.201L519.192 680.633L529.158 651.239L533.15 605.632L528.995 566.775L518.855 516.675L512.944 487.405L510.551 459.486L509.677 437.517L473.376 398.754Z" fill="#1F2548"/>
<path d="M272.645 331.323L279.661 319.798L292.401 312.216L294 313.829L286.015 322.373L282.167 340.117L283.816 392.723L284.691 438.724L271.67 417.324L264.454 395.361C264.454 395.361 265.31 370.223 265.354 369.811C265.397 369.398 269.215 339.41 269.215 339.41L272.651 331.335L272.645 331.323Z" fill="#D9D4CC"/>
<path d="M514.407 317.016L524.128 338.629L528.933 363.229L528.152 397.192L516.487 431.043L503.579 441.037L490.209 438.13L478.856 418.274L472.477 388.048L473.483 364.792L475.464 338.542L490.515 314.116L501.642 310.085L514.407 317.016Z" fill="#D9D4CC"/>
<path d="M505.366 310.51C501.78 306.685 496.219 302.11 488.69 301.06C479.862 299.828 473.533 304.166 467.429 306.672C452.015 312.997 445.305 304.685 410.017 301.672C400.658 300.872 374.866 298.666 350.1 303.491C341.178 305.228 335.63 307.247 323.821 308.291C318.104 308.797 311.725 308.997 303.072 311.297C298.374 312.541 294.662 313.966 292.257 314.972C291.426 315.835 290.201 317.197 288.902 318.972C279.393 331.985 282.223 345.466 283.647 365.648C284.916 383.561 282.96 376.854 284.278 411.436C285.084 432.58 285.747 433.436 285.572 444.368C285.259 463.918 283.023 467.974 282.329 484.312C281.373 506.812 285.091 511.65 285.784 532.244C286.584 555.781 281.186 577.982 279.305 587.582C277.268 597.969 276.744 598.207 275.85 604.338C272.889 624.576 275.713 641.514 278.662 652.858C284.122 649.233 292.632 644.483 303.941 641.751C316.861 638.632 326.608 639.807 333.968 639.995C363.726 640.764 369.849 623.513 389.411 625.545C403.919 627.051 412.597 636.314 420.595 643.114C437.545 657.52 466.641 673.795 519.755 680.72C522.979 672.702 527.221 660.645 530.126 645.645C536.936 610.507 532.019 581.938 526.084 549.213C519.83 514.75 514.475 506.312 511.501 473.293C510.139 458.155 509.977 445.624 510.064 437.261" stroke="black" stroke-width="2.95" stroke-miterlimit="10" stroke-linecap="round"/>
<path d="M500.442 441.037C516.177 441.037 528.933 411.708 528.933 375.529C528.933 339.351 516.177 310.022 500.442 310.022C484.708 310.022 471.952 339.351 471.952 375.529C471.952 411.708 484.708 441.037 500.442 441.037Z" stroke="black" stroke-width="4.17" stroke-miterlimit="10" stroke-linecap="round"/>
<path d="M294.869 313.591C294.681 313.229 294.356 312.76 293.788 312.479C290.295 310.716 282.254 318.197 280.323 319.998C273.769 326.098 269.396 335.566 266.859 356.692C264.266 378.261 262.873 389.823 267.434 405.661C271.758 420.68 279.236 431.924 285.003 439.111" stroke="black" stroke-width="4.17" stroke-miterlimit="10" stroke-linecap="round"/>
<path d="M315.168 309.735C314.224 316.585 312.856 327.323 311.719 340.516C309.008 371.973 309.807 391.673 309.776 424.692C309.726 479.699 307.477 470.018 308.483 497.956C310.101 543.15 315.468 554.063 312.588 584.276C310.201 609.295 304.084 630.082 299.373 642.601" stroke="black" stroke-width="1.97" stroke-miterlimit="10" stroke-linecap="round"/>
<path d="M344.72 305.297C344.258 307.272 343.658 310.029 343.102 313.335C341.165 324.835 341.29 333.648 341.321 336.573C341.871 387.973 340.422 431.511 342.184 537.056C342.658 565.525 343.083 568.225 343.333 573.557C344.127 590.188 344.858 597.938 344.777 611.095C344.702 622.92 344.002 632.601 343.408 639.02" stroke="black" stroke-width="1.97" stroke-miterlimit="10" stroke-linecap="round"/>
<path d="M414.284 302.472C414.278 305.497 414.234 310.054 414.066 315.579C412.591 364.879 404.15 396.329 400.795 415.73C394.61 451.549 404.463 453.993 414.334 545.369C418.789 586.594 420.501 620.501 421.251 642.989" stroke="black" stroke-width="1.97" stroke-miterlimit="10" stroke-linecap="round"/>
<path d="M442.531 307.491C441.769 314.091 440.894 322.354 440.063 331.885C440.063 331.885 438.389 351.073 437.564 370.136C434.809 433.868 443.143 513.412 443.143 513.412C447.829 558.125 450.991 564.663 452.359 599.407C453.396 625.764 452.578 647.439 451.709 661.727" stroke="black" stroke-width="1.97" stroke-miterlimit="10" stroke-linecap="round"/>
<path d="M473.32 304.716C473.02 305.597 472.583 306.897 472.077 308.466C461.012 342.935 461.637 371.21 461.868 377.735C462.299 389.986 465.467 404.217 471.808 432.68C476.263 452.686 479.731 465.118 481.749 473.012C497.368 534.262 494.244 592.769 492.551 624.407C491.889 636.807 490.589 654.12 487.79 674.839" stroke="black" stroke-width="1.97" stroke-miterlimit="10" stroke-linecap="round"/>
<path d="M377.034 301.16C375.291 309.36 372.892 321.529 370.699 336.36C369.368 345.373 364.476 379.961 364.589 445.818C364.651 482.787 364.682 501.275 366.763 513.656C371.086 539.375 377.978 555.406 384.95 596.288C386.975 608.163 388.293 617.963 389.099 624.42" stroke="black" stroke-width="3.94" stroke-miterlimit="10" stroke-linecap="round"/>
<path d="M365.226 405.855C370.978 405.855 375.641 401.19 375.641 395.436C375.641 389.682 370.978 385.017 365.226 385.017C359.474 385.017 354.811 389.682 354.811 395.436C354.811 401.19 359.474 405.855 365.226 405.855Z" fill="#56B038" stroke="black" stroke-width="2" stroke-miterlimit="10"/>
<path d="M365.226 489.781C370.978 489.781 375.641 485.116 375.641 479.362C375.641 473.608 370.978 468.943 365.226 468.943C359.474 468.943 354.811 473.608 354.811 479.362C354.811 485.116 359.474 489.781 365.226 489.781Z" fill="#56B038" stroke="black" stroke-width="2" stroke-miterlimit="10"/>
<path d="M375.641 562.85C381.393 562.85 386.056 558.186 386.056 552.432C386.056 546.677 381.393 542.013 375.641 542.013C369.889 542.013 365.226 546.677 365.226 552.432C365.226 558.186 369.889 562.85 375.641 562.85Z" fill="#56B038" stroke="black" stroke-width="2" stroke-miterlimit="10"/>
<path d="M363.978 394.263C365.982 392.747 366.761 390.401 365.719 389.021C364.676 387.642 362.207 387.752 360.203 389.267C358.199 390.783 357.42 393.13 358.462 394.509C359.505 395.889 361.975 395.778 363.978 394.263Z" fill="#B3D598"/>
<path d="M363.075 478.708C365.079 477.193 365.858 474.846 364.816 473.466C363.773 472.087 361.303 472.197 359.3 473.713C357.296 475.228 356.517 477.575 357.559 478.954C358.602 480.334 361.071 480.224 363.075 478.708Z" fill="#B3D598"/>
<path d="M374.942 552.031C376.946 550.515 377.725 548.169 376.683 546.789C375.64 545.41 373.171 545.52 371.167 547.035C369.163 548.551 368.384 550.898 369.426 552.277C370.469 553.657 372.938 553.546 374.942 552.031Z" fill="#B3D598"/>
<path d="M513.85 321.735L517.718 324.373L521.435 329.685L524.959 340.26L530.513 357.361L542.834 381.355L549.22 388.123L556.405 392.08L557.76 397.742L557.311 404.48L559.222 409.686L564.271 415.73L564.008 427.186L560.503 436.18L545.233 446.874C545.233 446.874 518.367 457.706 518.093 457.706C517.818 457.706 505.947 459.162 505.947 459.162L498.587 452.012L496.787 439.549L495.113 435.205L487.94 434.136L486.297 430.205L484.148 422.98L472.483 415.755L465.192 399.642L463.018 373.117L465.423 350.585L474.87 329.491L481.705 320.723L497.962 313.56L507.54 315.479L513.857 321.729" fill="#D9D4CC"/>
<path d="M465.985 355.004C466.735 354.51 467.897 353.873 469.422 353.548C474.226 352.523 476.344 356.004 482.23 356.36C482.992 356.404 489.477 356.729 491.602 353.235C492.776 351.304 491.639 349.823 492.851 348.654C494.863 346.71 498.587 350.185 503.266 348.76C506.853 347.667 506.871 344.954 509.621 344.385C514.644 343.342 520.223 351.223 521.285 352.717C527.021 360.811 524.197 364.098 530.139 377.823C533.469 385.517 535.137 389.367 539.092 392.93C541.691 395.273 543.915 396.305 545.652 399.698C547.476 403.274 546.514 405.049 548.57 409.074C550.269 412.405 551.744 412.786 553.774 415.636C556.467 419.405 556.879 423.374 557.729 428.343C558.31 431.743 558.498 434.574 558.56 436.468L563.665 428.968L564.808 416.674L560.853 409.592L556.373 405.324V394.805L552.731 389.286L542.628 383.036L525.234 342.767L517.324 328.385C517.324 328.385 515.5 322.491 515.4 322.804C515.3 323.116 512.638 317.723 512.638 317.723L506.815 314.597L498.593 313.71L493.482 314.597L483.554 319.929L476.088 327.479L469.259 342.123L465.992 355.01L465.985 355.004Z" fill="#92928C"/>
<path d="M511.364 459.168C511.364 459.168 524.503 456.149 525.022 455.937C525.54 455.724 548.139 445.205 548.139 445.205L555.599 440.099L562.927 432.493L571.156 448.118L576.86 474.368V485.931L570.05 494.181L556.267 499.681L543.453 496.35L528.933 486.662L510.751 461.143L511.364 459.162V459.168Z" fill="#C77743"/>
<path d="M557.86 439.099C558.579 441.099 559.272 443.136 559.941 445.211C565.395 462.149 568.044 478.43 568.963 493.406L576.854 488.131L576.179 470.493L568.544 441.036L563.477 431.567L557.848 439.099H557.86Z" fill="#7D4927"/>
<path d="M505.941 314.197C510.52 316.047 513.069 319.741 515.519 323.779C525.903 340.879 530.595 357.492 538.636 374.404C541.51 380.448 543.478 383.736 546.964 386.698C551.969 390.948 555.449 390.579 556.961 394.405C558.685 398.767 555.299 402.123 557.792 407.111C558.829 409.18 560.035 409.861 561.122 411.067C565.826 416.305 564.564 426.517 561.747 432.736C558.498 439.905 550.969 443.555 535.924 450.861C535.924 450.861 528.783 454.324 518.224 457.112C509.483 459.418 507.065 458.937 505.31 458.155C500.586 456.055 497.725 450.499 496.769 446.28C495.6 441.13 497.356 438.336 495.101 436.28C492.758 434.143 489.265 435.711 487.397 433.155C486.403 431.799 486.71 430.436 486.566 428.986C485.985 423.336 478.762 419.717 476.569 418.361C466.591 412.205 464.661 393.717 463.449 382.111C461.412 362.598 466.954 347.935 469.49 341.485C473.245 331.923 476.95 322.854 486.36 317.316C488.322 316.16 497.481 310.779 505.934 314.191L505.941 314.197Z" stroke="black" stroke-width="4" stroke-miterlimit="10"/>
<path d="M510.033 459.337C510.926 460.605 512.27 462.518 513.919 464.824C523.272 477.893 527.952 484.424 530.788 487.118C532.594 488.831 546.339 501.506 561.334 498.018C562.54 497.737 572.693 495.231 576.054 487.118C576.76 485.412 577.279 483.193 576.404 475.174C575.205 464.162 572.887 456.005 572.587 454.968C570.781 448.73 567.907 440.43 563.215 431.011" stroke="black" stroke-width="4" stroke-miterlimit="10" stroke-linecap="round"/>
<path d="M485.941 426.68C494.038 424.786 503.985 421.661 514.681 416.323C531.063 408.148 542.734 398.029 550.226 390.348" stroke="black" stroke-width="4" stroke-miterlimit="10" stroke-linecap="round"/>
<path d="M504.504 432.436C517.224 431.536 529.683 427.442 540.229 420.242C543.771 417.88 547.052 415.161 550.163 412.255C550.669 411.786 551.463 411.811 551.931 412.317C552.369 412.792 552.369 413.517 551.956 413.992C550.5 415.661 548.938 417.248 547.295 418.742C540.698 424.73 532.744 429.211 524.253 431.88C517.912 433.899 511.226 434.93 504.585 434.93C503.004 434.899 502.898 432.58 504.497 432.43L504.504 432.436Z" fill="black"/>
<path d="M555.311 426.536C550.875 434.486 543.159 440.33 534.743 443.543C531.913 444.593 528.958 445.33 525.896 445.499C525.584 445.524 525.428 445.086 525.69 444.911C532.613 440.08 540.523 435.605 547.458 430.861C549.863 429.286 552.25 427.649 554.861 426.105C555.13 425.936 555.474 426.261 555.311 426.536Z" fill="black"/>
<path d="M525.34 480.174C523.753 486.343 519.386 497.818 517.031 510.287C513.769 527.587 514.288 530.362 511.064 545.75C509.133 554.963 507.059 562.775 502.91 578.407C500.58 587.194 498.543 594.494 497.087 599.644C498.393 602.563 500.905 607.001 505.566 610.751C516.512 619.551 530.02 617.063 532.257 616.613C536.174 609.063 541.728 598.151 548.101 584.838C561.322 557.219 568.013 543.063 572.118 526.075C574.367 516.775 576.81 503.156 576.86 485.974" fill="#C77743"/>
<path d="M568.238 484.605C568.001 487.374 567.595 491.493 566.889 496.462C565.514 506.162 562.79 520.718 555.086 542.85C543.896 575.007 528.314 605.613 522.735 616.326L532.869 616.882L549.738 583.2L565.083 548.956L574.317 519.868L577.647 492.437L576.648 485.068L568.238 484.605Z" fill="#7D4927"/>
<path d="M525.409 480.63C523.822 486.799 519.386 497.818 517.031 510.293C513.769 527.593 514.288 530.368 511.064 545.756C509.133 554.969 507.059 562.781 502.91 578.413C500.58 587.2 498.543 594.5 497.087 599.651C498.393 602.569 500.905 607.007 505.566 610.757C516.512 619.557 530.02 617.069 532.257 616.619C536.174 609.069 541.728 598.157 548.101 584.844C561.322 557.225 568.013 543.069 572.118 526.081C574.367 516.781 576.81 503.162 576.86 485.98" stroke="black" stroke-width="4" stroke-miterlimit="10" stroke-linecap="round"/>
<path d="M518.086 649.119L518.161 649.263C518.205 649.351 518.236 649.476 518.324 649.651C518.368 649.738 518.399 649.863 518.474 650.007C518.593 650.232 518.699 650.507 518.817 650.807L518.924 651.007L518.967 651.095C518.999 651.151 519.03 651.207 519.03 651.282C519.136 651.482 519.255 651.707 519.342 651.951C519.505 652.263 519.673 652.651 519.867 653.02C520.392 654.157 521.048 655.482 521.804 656.938L521.848 657.026L521.91 657.138C522.341 657.963 522.816 658.801 523.31 659.67C523.56 660.151 523.847 660.626 524.128 661.095C524.947 662.52 525.846 663.97 526.821 665.345L526.865 665.432C528.102 667.251 529.445 668.976 530.838 670.532C531.251 670.97 531.657 671.407 532.1 671.832C532.132 671.889 532.188 671.932 532.263 672.001C533.025 672.763 533.856 673.451 534.668 674.039C536.418 675.301 538.186 676.114 539.967 676.27C543.015 676.557 544.884 675.551 545.84 673.851C548.345 669.42 544.79 660.188 540.629 655.907C534.843 649.976 532.35 632.644 532.35 632.644C538.511 614.119 538.861 602.519 535.887 595.588C535.468 594.575 534.974 593.706 534.462 592.925C534.3 592.681 534.15 592.469 533.975 592.275C533.769 591.95 533.519 591.681 533.269 591.413C532.888 590.963 532.507 590.581 532.069 590.225C531.569 589.763 531.007 589.369 530.451 589.006C530.176 588.825 529.914 588.669 529.626 588.531C529.408 588.394 529.208 588.281 528.989 588.213C528.595 588.019 528.177 587.838 527.771 587.688C527.321 587.525 526.871 587.356 526.415 587.238C526.196 587.169 525.996 587.131 525.778 587.062" stroke="#010101" stroke-width="5.14" stroke-linecap="round" stroke-linejoin="round"/>
<path d="M260.187 298.128L289.564 284.734L314.056 274.928L448.31 266.965L484.485 277.503L518.886 288.266L520.86 304.447L518.886 317.428L524.959 327.71L523.916 329.516L511.838 328.197L501.148 332.985L498.368 338.054L488.44 336.254L485.941 342.916L467.197 342.016L425.337 352.291L408.467 359.235H404.444L392.573 352.71L382.782 354.379L379.59 363.266L369.174 355.835L360.427 356.041L356.473 366.029L348.075 355.766L342.59 354.029L334.811 359.929L331.344 353.61L324.052 351.979L315.518 355.973L312.737 348.823L309.195 348.266L303.959 350.21L302.047 344.86L284.203 348.129L288.964 335.885L277.887 340.416L273.032 330.904L260.187 327.572L264.629 321.46L261.642 314.266L265.672 302.572L260.187 298.128Z" fill="#D9D4CC"/>
<path d="M263.104 315.903C263.935 315.791 265.135 315.678 266.578 315.697C271.12 315.76 274.75 317.122 278.449 318.891C285.84 322.422 285.49 323.71 291.844 326.741C296.562 328.985 299.542 330.404 303.853 330.697C309.007 331.047 310.369 329.41 316.28 330.141C320.591 330.679 323.884 332.054 324.608 332.366C328.826 334.172 329.269 335.535 333.843 337.435C336.273 338.448 338.441 339.348 341.34 339.448C345.208 339.585 346.813 338.172 350.712 337.297C354.211 336.51 356.454 336.854 362.652 337.504C369.324 338.21 377.528 338.947 381.395 339.172C390.53 339.698 397.34 338.597 407.499 336.947C415.509 335.647 415.727 335.066 428.323 332.922C436.533 331.522 440.631 330.829 442.899 330.697C449.372 330.335 451.884 331.035 456.02 329.172C457.888 328.329 459.881 326.872 463.867 323.966C467.36 321.416 468.753 320.079 471.783 318.897C473.233 318.329 475.063 317.635 477.475 317.647C480.674 317.66 481.705 318.897 484.417 319.385C485.529 319.585 487.484 319.76 494.482 317.16C501.342 314.616 502.248 313.416 506.353 312.022C509.214 311.053 513.463 310.047 519.124 310.216L518.88 318.829C516.899 319.047 513.707 319.454 509.82 320.222C505.697 321.041 499.436 322.535 482.748 328.76C476.975 330.91 476.738 331.104 473.483 332.304C472.314 332.735 456.863 338.372 441.512 341.16C428.592 343.504 431.516 340.966 403.819 343.035C381.908 344.673 380.714 346.21 371.124 345.223C366.044 344.698 360.821 343.691 353.211 344.91C345.589 346.129 344.995 348.073 339.778 347.829C333.418 347.529 332.918 344.566 321.659 341.266C316.58 339.779 313.906 338.991 309.895 338.66C303.834 338.16 300.935 339.21 297.399 336.991C294.6 335.235 295.3 333.879 292.294 331.785C288.533 329.16 285.478 329.922 280.842 328.766C274.463 327.172 273.763 322.129 269.077 322.097C266.89 322.085 265.11 322.972 264.01 323.66" fill="#B5ACA7"/>
<path d="M448.31 266.965L518.318 288.366C520.754 298.278 520.617 305.485 519.961 310.36C519.511 313.728 518.48 318.497 521.01 323.078C522.66 326.072 524.953 327.404 524.453 328.466C523.691 330.079 518.343 327.179 510.839 328.916C508.908 329.366 505.253 330.21 502.011 333.104C499.424 335.416 499.686 336.729 497.675 337.591C493.732 339.285 490.108 335.347 487.653 337.141C485.954 338.379 487.184 340.622 485.71 342.379C483.205 345.347 476.707 342.416 470.003 341.629C466.741 341.247 466.148 341.691 446.667 346.566C423.444 352.379 424.962 351.579 421.688 352.854C411.223 356.91 408.605 360.066 403.288 358.691C397.834 357.279 396.097 352.798 389.824 352.854C388.643 352.866 384.925 352.898 382.495 355.398C379.721 358.248 381.052 361.804 379.202 362.579C376.541 363.698 373.448 356.441 366.488 355.698C365.513 355.591 362.514 355.273 360.203 357.041C356.51 359.879 357.591 365.791 356.017 366.023C354.436 366.254 353.948 360.204 348.838 356.748C347.944 356.141 344.702 353.948 341.359 354.804C337.629 355.76 336.836 359.748 334.63 359.441C332.468 359.141 332.974 355.285 329.694 353.304C325.958 351.048 320.504 353.148 320.122 353.304C317.28 354.441 316.292 356.054 315.187 355.548C313.443 354.748 315.105 350.379 313.094 348.516C311.981 347.485 309.564 347.041 303.822 349.566L302.622 344.179C302.622 344.179 284.972 347.473 284.822 347.473C284.672 347.473 288.414 336.847 288.414 336.847L278.093 339.691C277.949 339.154 275.569 330.972 267.622 328.616C262.255 327.022 257.712 329.091 256.55 329.666C263.623 324.291 264.691 321.203 264.179 319.341C263.779 317.891 262.373 317.035 262.086 314.553C262.042 314.172 261.948 313.103 262.836 310.066C264.185 305.422 265.341 304.666 265.079 302.884C264.91 301.741 264.148 300.109 261.192 298.397C261.192 298.397 313.425 274.59 314.174 274.59L448.329 266.972L448.31 266.965Z" stroke="black" stroke-width="3.27" stroke-miterlimit="10" stroke-linecap="round"/>
<path d="M261.18 298.391C267.415 296.509 271.514 297.334 274.069 298.391C280.636 301.103 281.454 307.141 287.608 307.916C291.813 308.447 294.556 306.022 296.774 307.916C298.817 309.659 297.605 312.672 299.479 313.747C301.797 315.084 304.496 310.972 307.808 311.666C312.481 312.647 311.831 321.81 316.555 323.335C320.329 324.553 322.065 319.122 328.426 317.916C336.723 316.347 339.703 324.466 350.918 324.372C355.535 324.335 354.779 322.96 362.371 322.078C370.943 321.085 373.848 322.61 380.489 322.078C387.593 321.51 391.023 319.228 397.359 316.872C403.125 314.722 416.346 313.603 442.55 311.453C450.697 310.784 458.582 308.159 466.71 307.284C470.034 306.928 475.938 306.397 478.581 302.284C480.112 299.897 479.343 298.184 480.874 297.078C484.154 294.691 488.928 301.697 496.494 301.034C498.787 300.834 503.26 298.053 512.113 292.49C514.306 291.109 516.106 289.947 517.318 289.159" stroke="black" stroke-width="3.27" stroke-miterlimit="10" stroke-linecap="round"/>
<path d="M280.267 301.353L303.903 290.94" stroke="black" stroke-width="3.27" stroke-miterlimit="10" stroke-linecap="round"/>
<path d="M309.895 312.085L322.528 295.053" stroke="black" stroke-width="3.27" stroke-miterlimit="10" stroke-linecap="round"/>
<path d="M344.258 323.328L348.638 305.209" stroke="black" stroke-width="3.27" stroke-miterlimit="10" stroke-linecap="round"/>
<path d="M377.372 321.46L376.816 309.072" stroke="black" stroke-width="3.27" stroke-miterlimit="10" stroke-linecap="round"/>
<path d="M418.095 313.566L411.804 304.234" stroke="black" stroke-width="3.27" stroke-miterlimit="10" stroke-linecap="round"/>
<path d="M466.191 306.772L436.108 292.997" stroke="black" stroke-width="3.27" stroke-miterlimit="10" stroke-linecap="round"/>
<path d="M507.428 295.435L451.528 281.453" stroke="black" stroke-width="3.27" stroke-miterlimit="10" stroke-linecap="round"/>
<path d="M263.66 315.628C264.91 315.497 266.759 315.391 268.971 315.628C275.238 316.303 279.243 319.197 283.654 321.878C289.795 325.61 294.844 328.672 300.835 330.21C310.438 332.672 311.513 328.403 320.722 330.628C331.019 333.11 331.881 338.978 340.922 339.378C346.07 339.603 346.52 337.735 354.248 337.085C361.09 336.51 364.807 337.635 371.011 338.441C381.839 339.841 390.155 338.966 401.001 337.816C410.229 336.841 408.661 336.166 424.849 333.441C451.228 328.997 452.409 331.278 459.319 327.191C466.66 322.847 469.859 317.584 477.438 317.609C482.011 317.622 483.111 319.541 488.265 319.172C494.17 318.747 496.444 315.959 502.948 313.341C506.434 311.934 511.707 310.347 518.88 310.109" stroke="black" stroke-width="2" stroke-miterlimit="10" stroke-linecap="round"/>
<path d="M275.007 332.291C276.287 331.579 278.212 330.297 279.799 328.122C282.417 324.529 281.935 321.454 283.754 316.766C284.547 314.716 286.022 311.76 288.958 308.535" stroke="black" stroke-width="2" stroke-miterlimit="10" stroke-linecap="round"/>
<path d="M296.774 344.273C298.305 343.472 300.467 342.122 302.503 339.897C303.441 338.872 305.471 336.435 308.02 328.754C309.051 325.654 310.251 321.422 311.144 316.253" stroke="black" stroke-width="2" stroke-miterlimit="10" stroke-linecap="round"/>
<path d="M320.304 351.979C323.328 349.529 324.99 347.098 325.927 345.416C329.757 338.535 327.745 332.991 331.969 324.166C332.912 322.197 333.862 320.691 334.468 319.791" stroke="black" stroke-width="2" stroke-miterlimit="10" stroke-linecap="round"/>
<path d="M348.075 355.417C349.594 354.892 351.793 353.86 353.699 351.804C357.229 347.992 352.999 341.923 356.822 337.223C357.547 336.335 357.666 336.541 358.422 335.623C361.333 332.085 361.084 327.141 360.365 323.397" stroke="black" stroke-width="2" stroke-miterlimit="10" stroke-linecap="round"/>
<path d="M374.454 358.335C376.216 356.379 378.609 353.16 379.59 348.754C380.783 343.397 378.978 340.466 379.521 335.21C379.852 331.991 381.127 327.322 385.7 321.878" stroke="black" stroke-width="2" stroke-miterlimit="10" stroke-linecap="round"/>
<path d="M421.588 313.822C420.245 315.079 419.732 316.26 419.507 317.016C417.908 322.379 424.549 326.516 423.256 333.335C422.969 334.848 422.638 334.679 422.213 336.323C420.807 341.804 423.643 347.185 426.38 350.973" stroke="black" stroke-width="2" stroke-miterlimit="10" stroke-linecap="round"/>
<path d="M457.132 309.722C455.989 313.316 456.345 315.828 456.926 317.497C458.057 320.747 460.381 321.772 461.024 325.485C461.368 327.485 460.881 328.266 460.818 330.135C460.731 332.779 461.537 336.547 465.61 341.316" stroke="black" stroke-width="2" stroke-miterlimit="10" stroke-linecap="round"/>
<path d="M488.028 299.516C487.422 300.903 486.341 303.884 486.71 307.709C486.885 309.497 487.191 312.685 489.415 315.278C490.533 316.585 491.271 316.728 491.708 317.916C492.514 320.135 490.914 322.278 490.252 323.96C489.296 326.378 489.265 330.378 493.795 337.222" stroke="black" stroke-width="2" stroke-miterlimit="10" stroke-linecap="round"/>
<path d="M510.377 294.028C510.464 295.353 510.514 296.741 510.514 298.197C510.514 302.716 509.358 303.641 510.027 306.185C510.527 308.085 511.32 308.435 511.551 310.56C511.745 312.322 511.376 313.672 511.276 314.104C510.77 316.204 510.976 320.054 513.844 327.716" stroke="black" stroke-width="2" stroke-miterlimit="10" stroke-linecap="round"/>
<path d="M290.714 261.878C296.93 270.415 302.304 277.472 306.871 281.984C320.216 295.166 326.889 298.384 336.198 302.36C342.49 305.047 355.867 308.216 355.867 308.216L377.64 309.853L395.453 307.178L415.852 301.622L438.564 291.741L455.17 281.459L468.46 270.653L479.625 259.646L490.677 243.984L499.043 227.952L505.422 211.452L507.171 204.102L520.13 207.502L538.248 208.483L553.187 206.815L576.929 197.633L590.899 186.702L595.473 180.258L596.266 171.439L593.148 167.32C593.148 167.32 585.857 164.664 585.201 164.602C584.551 164.545 573.743 164.602 573.743 164.602L550.594 158.958L531.982 152.158L516.212 149.114L501.736 148.558C501.736 148.558 500.511 139.776 500.467 139.651C500.424 139.526 498.174 134.214 498.174 134.214L486.61 139.983L472.608 143.12L459.125 133.658C459.125 133.658 451.69 122.157 451.64 122.039C451.59 121.92 449.104 114.545 449.104 114.545L449.354 109.451C449.354 109.451 455.002 103.445 455.052 103.301C455.095 103.163 457.251 97.2133 457.251 97.2133L449.104 95.3383L440.956 97.3071L435.664 99.8384L419.201 94.3258L405.562 92.9258C405.562 92.9258 390.124 94.8321 389.993 94.8633C389.861 94.8946 378.434 98.9759 378.434 98.9759L371.974 96.3446L363.327 95.5321L347.638 101.62C347.638 101.62 336.211 111.082 336.073 111.126C335.936 111.17 325.677 122.382 325.677 122.382L319.529 118.189L305.965 115.289L295 114.739L278.243 118.251L268.784 122.139L259.181 123.376L251.19 122.876L248.322 123.082L245.548 126.87L247.81 131.739L254.926 137.783L263.448 145.42C263.448 145.42 274.357 154.345 274.501 154.427C274.644 154.508 283.722 158.583 283.96 158.677C284.197 158.77 294.4 159.527 294.4 159.527L295.806 164.252L296.362 169.133L299.317 174.227L299.123 176.464L298.567 179.614L299.786 183.033L291.588 192.071L293.938 195.396L300.448 194.271L320.91 195.44L333.974 198.952L347.601 203.571L350.225 205.133L356.454 203.777L369.749 205.277L379.721 211.04L386.794 219.846L389.324 227.952L389.187 241.115L384.694 251.984L379.452 259.528C379.452 259.528 369.668 267.303 369.524 267.303C369.381 267.303 355.617 273.39 355.617 273.39L340.541 276.222C340.541 276.222 298.586 258.384 298.417 258.096C298.249 257.809 290.745 261.903 290.745 261.903L290.714 261.878Z" fill="#C77743"/>
<path d="M449.054 110.314C449.347 113.976 450.703 125.001 459.544 134.195C464.342 139.189 469.541 141.777 472.902 143.102C472.902 143.102 485.885 140.727 486.072 140.945C486.26 141.164 501.055 131.489 501.055 131.489L511.982 115.376L513.794 102.201L511.92 92.4573L501.242 75.0946L495.438 61.482L494.376 50.1756L497.437 40.8692L507.553 32.7504L518.93 24.7128L520.411 21.0127L516.981 17.4502L507.909 17.5564L487.622 23.4003L471.902 30.5066L458.238 42.5255L452.99 51.6131C452.99 51.6131 452.677 64.2882 452.615 64.4757C452.553 64.6633 458.451 80.2447 458.451 80.2447L459.544 92.4573L455.795 102.139L449.803 109.57L449.054 110.32V110.314Z" fill="#F6E0C2"/>
<path d="M461.199 135.108C463.049 134.633 465.56 133.851 468.378 132.514C470.765 131.383 482.698 125.72 487.672 113.307C491.177 104.557 489.59 96.5071 488.14 89.1383C486.079 78.6506 483.03 77.7944 481.774 67.9693C481.149 63.088 480.187 55.5691 483.554 47.4503C488.209 36.2189 498.206 30.9376 503.129 28.3376C509.639 24.8938 515.612 23.575 519.423 23L515.025 27.8688L500.511 37.7064L495.55 45.1065L494.244 54.0066L496.906 66.313L505.097 80.0944L513.432 96.1634L513.019 108.614L507.846 122.845L500.88 132.414L491.983 137.751L480.555 142.058L472.596 143.089L461.206 135.095L461.199 135.108Z" fill="#AF9F8C"/>
<path d="M357.841 96.951C353.174 99.4261 348.513 101.901 343.846 104.376C343.827 104.389 340.753 106.02 340.734 106.026C340.734 106.026 339.285 106.795 339.279 106.795C334.693 112.289 330.1 117.789 325.515 123.283L313.806 111.62L304.534 93.2572V79.9071L306.783 67.3069L317.13 53.3943L334.305 37.6316L340.31 27.2127L340.266 15.6876L336.517 7.06873L333.93 3.22493L335.111 0.556152L344.333 3.27493L357.023 16.9063L363.533 31.7065V43.9317L356.179 56.9506L348.451 67.2569L345.639 74.9883L346.526 84.6384L352.799 93.5822L357.822 96.9385L357.841 96.951Z" fill="#F6E0C2"/>
<path d="M332.868 112.564C331.537 112.076 329.676 111.251 327.72 109.845C318.761 103.438 316.211 91.0008 317.136 81.9257C318.129 72.2069 323.228 65.2943 326.502 60.8505C331.769 53.7004 334.143 54.1942 338.866 47.0816C341.572 43.0003 345.92 36.444 346.17 27.1251C346.239 24.6688 346.345 15.7687 340.272 7.82487C338.31 5.26234 336.242 3.49982 334.749 2.39355L333.943 3.77482L338.216 10.5874L340.859 19.1813C340.859 19.1813 340.066 26.7438 340.041 26.8188C340.016 26.8876 335.286 37.4065 335.099 37.544C334.911 37.6815 323.815 48.4816 323.815 48.4816L311.313 60.1442C309.389 62.7318 306.54 67.2256 304.921 73.4694C304.397 75.4819 303.185 80.8382 303.959 87.7071C304.89 95.9009 308.127 101.595 310.457 105.607C315.049 113.495 320.766 118.932 325.346 122.451L332.868 112.551V112.564Z" fill="#AF9F8C"/>
<path d="M359.778 109.664C363.133 107.726 368.15 105.17 374.573 103.132C377.878 102.082 391.654 97.9761 409.661 100.57C415.04 101.345 422.756 103.001 431.51 106.876L435.321 99.5699L420.901 94.1073L402.351 92.9761L388.124 94.6698L377.928 98.7574L368.081 95.5136L356.185 97.4824L342.196 106.089C343.483 105.095 344.695 104.589 345.67 104.32C352.611 102.401 359.078 109.201 359.528 109.689" fill="#7D4927"/>
<path d="M477.369 143.102C477.913 143.633 478.462 144.295 478.912 145.114C480.987 148.877 479.481 153.045 479.1 154.014L496.712 149.145L501.536 148.558L499.799 137.989L497.219 133.97C497.219 133.97 486.497 139.92 486.353 140.014C486.21 140.108 477.363 143.108 477.363 143.108L477.369 143.102Z" fill="#7D4927"/>
<path d="M546.664 207.534C542.822 207.534 539.692 207.115 537.492 206.715C532.875 205.871 530.37 205.377 529.533 203.434C528.745 201.609 529.789 199.352 530.845 198.096C532.538 196.084 535.318 195.946 536.274 195.846C539.685 195.502 544.84 193.984 552.287 188.634L542.734 191.796L528.539 191.227L518.324 187.552L506.059 181.046L495.107 177.483L487.128 180.496C486.853 181.34 486.453 182.665 486.085 184.315C484.192 192.771 485.373 199.596 485.616 201.371C486.847 210.321 482.249 221.684 477.656 233.034C465.973 261.903 444.768 279.06 437.576 284.747C429.585 291.06 416.927 299.622 399.396 306.104L418.583 300.429L446.286 288.21L469.134 270.878L486.928 250.828L499.474 227.878L507.059 204.459L523.735 207.959L537.492 208.378L546.67 207.534H546.664Z" fill="#7D4927"/>
<path d="M414.541 189.24C416.715 188.496 419.014 187.602 421.413 186.521C425.762 184.565 429.504 182.415 432.653 180.34L448.248 175.233C448.198 175.808 448.098 176.352 447.967 176.871C445.949 184.721 435.04 187.921 431.997 188.721L414.541 189.234V189.24Z" fill="#7D4927"/>
<path d="M326.739 187.458C327.764 187.04 328.845 186.533 329.969 185.915C332.774 184.365 334.955 182.596 336.592 181.015L348.557 178.265L358.116 174.158C358.035 175.627 357.685 176.789 357.297 177.671C354.53 183.965 345.97 184.94 345.101 185.027L328.713 188.265L326.745 187.458H326.739Z" fill="#7D4927"/>
<path d="M495.863 176.827C496 175.752 501.679 175.664 502.604 175.658C510.089 175.583 515.525 177.389 524.422 180.014C531.519 182.108 535.062 183.152 536.693 183.483C545.252 185.214 552.831 184.658 558.51 183.671C557.748 184.596 556.555 185.852 554.855 186.996C552.675 188.464 550.657 189.077 547.458 189.852C542.059 191.164 539.367 191.821 537.155 191.958C528.427 192.502 521.698 189.464 519.411 188.396C515.637 186.639 516.424 186.252 511.589 183.664C502.485 178.783 495.706 178.008 495.856 176.827H495.863Z" fill="#C37371"/>
<path d="M517.231 186.539C519.286 185.977 521.348 185.414 523.41 184.852C526.234 184.083 529.058 183.327 531.869 182.571L518.699 178.408L507.49 175.652L495.344 176.733L502.273 179.577L517.224 186.539H517.231Z" fill="#8D504D"/>
<path d="M260.012 133.983C262.242 133.558 263.86 133.845 264.91 134.17C266.884 134.783 267.453 135.733 269.371 136.201C271.177 136.639 272.639 136.283 273.957 135.983C280.836 134.439 279.836 135.545 286.815 133.795C291.607 132.595 291.182 132.295 296.462 131.014C301.46 129.801 303.803 129.589 306.327 130.17C308.633 130.701 310.357 131.714 311.413 132.451L300.892 140.695L296.955 146.283L294.987 153.683L286.996 152.933L269.702 144.627C269.702 144.627 261.242 138.508 261.211 138.414C261.18 138.32 259.993 133.983 259.993 133.983H260.012Z" fill="#C37371"/>
<path d="M274.363 136.383C276.519 137.345 278.911 138.276 281.529 139.101C288.265 141.214 294.412 141.945 299.367 142.101L311.563 131.82L302.972 129.458L280.611 135.245L274.363 136.395V136.383Z" fill="#8D504D"/>
<path d="M350.581 205.308L356.723 203.79L365.151 203.552L377.203 208.552L385.188 217.171L389.062 224.04C389.062 224.04 390.374 232.721 390.186 232.846C389.999 232.971 387.112 245.821 387.112 245.821L380.758 256.49L372.761 264.822L356.91 272.94L345.295 275.44L330.575 276.128L312.706 269.384L304.715 261.828L294.912 262.715L280.217 258.64L272.37 252.271L266.503 243.528L264.504 237.784V232.102L254.951 217.777C254.951 217.777 253.358 207.215 253.689 207.308C254.02 207.402 259.356 197.114 259.356 197.114L268.253 190.508L277.681 187.808L287.359 190.133L293.913 195.064L305.153 193.752C305.153 193.752 322.472 195.846 322.909 195.964C323.346 196.083 339.366 200.246 339.366 200.246L350.581 205.308Z" fill="#C37371"/>
<path d="M264.822 235.096C266.572 237.771 269.034 240.859 272.439 243.778C281.985 251.946 292.819 253.471 297.661 253.834L295.287 245.778C296.293 247.878 297.98 250.853 300.717 253.834C308.108 261.872 317.58 263.859 323.378 265.078C346.364 269.903 373.004 260.496 378.565 258.459L366.575 268.89L349.281 275.322L332.237 276.697L316.505 271.39L304.297 262.459L294.462 262.728L281.536 258.846L271.695 251.021L266.091 242.771L264.498 236.609L264.81 235.109L264.822 235.096Z" fill="#8D504D"/>
<path d="M356.91 217.171L365.307 218.296L370.299 224.496C370.299 224.496 371.574 228.172 371.586 228.322C371.599 228.472 369.643 235.097 369.643 235.097L364.495 235.784C364.495 235.784 357.541 229.472 357.429 229.297C357.316 229.122 354.423 221.515 354.423 221.515L356.91 217.178V217.171Z" fill="#8D504D"/>
<path d="M279.211 200.246L280.374 205.396C280.374 205.396 278.605 211.909 278.462 212.071C278.318 212.234 271.858 215.803 271.858 215.803L266.31 214.015C266.31 214.015 265.466 209.121 265.516 209.052C265.566 208.984 268.634 204.215 268.877 204.015C269.121 203.815 274.975 201.134 274.975 201.134L279.211 200.246Z" fill="#8D504D"/>
<path d="M506.584 205.121C504.097 215.834 498.799 232.615 486.728 249.997C483.304 254.928 466.335 278.609 433.44 294.31C423.806 298.91 377.547 320.985 335.717 301.572C331.512 299.622 328.182 297.635 325.933 296.185C322.784 294.366 319.516 292.253 316.199 289.803C304.153 280.884 295.943 270.722 290.458 262.303" stroke="black" stroke-width="2.7" stroke-miterlimit="10" stroke-linecap="round"/>
<path d="M492.633 198.933C494.513 199.646 497.262 200.665 500.592 201.84C506.778 204.021 511.707 205.571 512.676 205.871C518.83 207.746 535.337 210.602 554.724 205.965C554.724 205.965 571.774 201.89 586.751 190.414C589.05 188.652 593.948 184.658 595.835 178.139C596.404 176.164 597.253 173.064 595.741 170.177C594.011 166.877 590.174 165.752 588.344 165.214C585.17 164.283 582.54 164.502 581.696 164.558C579.316 164.727 573.93 163.858 563.152 162.12C548.151 159.702 544.902 155.27 526.908 151.252C519.592 149.62 513.925 148.351 506.678 148.345C491.258 148.339 479.137 154.064 472.027 158.277" stroke="black" stroke-width="2.7" stroke-miterlimit="10" stroke-linecap="round"/>
<path d="M497.675 134.195C498.406 135.095 498.231 134.939 498.912 136.17C501.373 140.62 501.748 144.983 501.723 147.695" stroke="black" stroke-width="2.7" stroke-miterlimit="10" stroke-linecap="round"/>
<path d="M485.516 181.602C487.447 180.177 490.458 178.289 494.507 177.014C494.601 176.983 495.763 176.621 497.025 176.339C504.679 174.633 513.394 176.583 517.918 177.764C523.966 179.346 523.472 179.821 528.689 181.233C540.223 184.358 549.77 183.989 552.287 183.858C561.303 183.383 568.901 181.246 574.667 178.989" stroke="black" stroke-width="2.7" stroke-miterlimit="10" stroke-linecap="round"/>
<path d="M560.622 182.914C559.029 184.158 555.749 186.577 552.475 188.102C550.956 188.808 537.598 194.777 523.322 189.883C517.224 187.796 517.293 185.889 506.059 181.046C501.786 179.202 497.55 177.646 495.107 176.839" stroke="black" stroke-width="2.7" stroke-miterlimit="10" stroke-linecap="round"/>
<path d="M472.596 143.102C474.72 142.958 477.688 142.608 481.118 141.695C484.998 140.664 501.03 136.395 509.027 120.714C510.345 118.126 516.131 106.033 512.12 93.8261C511.864 93.0386 508.571 87.2948 502.004 75.8384C498.043 68.9258 496.431 66.157 495.357 61.6007C494.632 58.5319 493.445 53.5131 494.982 47.7381C497.543 38.113 506.647 32.8191 507.253 32.4691C508.521 31.7316 510.689 30.3566 515.025 27.6003C517.993 25.7128 519.605 24.6565 519.986 22.7315C520.273 21.2878 519.83 19.594 518.768 18.519C517.605 17.3315 515.95 17.1377 514.738 17.1127C501.773 16.8815 487.016 23.669 487.016 23.669C474.901 29.2379 468.847 32.0254 463.98 36.5942C459.794 40.5255 454.995 45.0318 453.302 52.4256C451.54 60.1257 453.908 67.6696 454.708 70.2258C456.226 75.0821 457.42 75.5571 458.457 80.2509C458.932 82.4072 460.062 87.7948 458.55 94.2074C456.614 102.432 451.453 107.583 449.091 109.664C449.066 111.476 449.21 113.164 449.466 114.72C451.934 129.827 465.254 138.933 470.44 141.933L472.596 143.102Z" stroke="black" stroke-width="2.7" stroke-linecap="round" stroke-linejoin="round"/>
<path d="M434.758 118.464C434.146 117.501 433.34 116.033 432.79 114.107C432.49 113.051 431.047 107.97 433.396 103.289C436.751 96.6073 445.311 95.7823 447.117 95.6073C451.69 95.1635 455.345 96.4073 457.232 97.201" stroke="black" stroke-width="2.7" stroke-miterlimit="10" stroke-linecap="round"/>
<path d="M349.85 119.433C354.03 114.908 360.659 108.701 370.08 103.32C376.216 99.8137 386.762 93.9449 401.607 93.0136C404.363 92.8386 415.24 92.3386 428.142 96.7012C431.122 97.7074 433.559 98.7512 435.321 99.5762" stroke="black" stroke-width="2.7" stroke-miterlimit="10" stroke-linecap="round"/>
<path d="M364.339 138.358C365.332 135.901 367.044 132.42 370.018 128.926C381.926 114.951 400.882 116.232 401.795 116.314C415.671 117.476 424.418 126.033 426.767 128.495" stroke="black" stroke-width="2.7" stroke-miterlimit="10" stroke-linecap="round"/>
<path d="M332.375 130.176C334.168 130.52 336.261 131.108 338.491 132.114C344.246 134.708 347.813 138.695 349.669 141.17" stroke="black" stroke-width="2.7" stroke-miterlimit="10" stroke-linecap="round"/>
<path d="M325.189 123.614C330.688 115.045 336.798 109.557 340.922 106.376C342.29 105.32 351.98 97.9759 362.333 96.1321C367.3 95.2446 370.58 95.9571 371.949 96.3196C374.323 96.9509 376.147 97.9134 377.315 98.6321" stroke="black" stroke-width="2.7" stroke-miterlimit="10" stroke-linecap="round"/>
<path d="M325.252 122.37C324.383 121.682 323.184 120.689 321.816 119.432C318.748 116.607 312.381 110.651 308.27 101.57C306.565 97.8071 302.791 89.1882 304.334 78.0881C305.977 66.2942 312.669 58.5691 315.137 55.7941C318.286 52.2503 318.267 53.4503 325.627 46.4252C332.837 39.5439 336.486 35.9938 338.547 30.8125C339.341 28.825 341.521 23.3437 340.234 17.0124C339.834 15.0373 338.247 8.79352 335.867 6.45599C335.686 6.28099 334.336 4.96223 333.936 3.64346C333.861 3.39971 333.868 2.28095 334.493 1.45594C335.548 0.0621698 339.447 1.42469 340.422 1.76844C348.656 4.64972 354.592 14.2436 356.216 17.0061C360.909 24.9812 364.951 31.8375 363.645 40.4876C362.483 48.1815 357.478 54.7753 356.841 55.6003C354.411 58.7441 352.336 60.2379 349.6 64.8442C347.857 67.7817 346.482 70.0942 345.851 73.463C344.564 80.3819 347.494 86.0319 348.288 87.5132C351.324 93.1758 355.935 95.9383 357.841 96.9446" stroke="black" stroke-width="2.7" stroke-miterlimit="10" stroke-linecap="round"/>
<path d="M320.01 118.307C318.623 117.92 316.624 117.395 314.206 116.87C309.201 115.782 303.516 114.545 297.349 114.62C290.333 114.707 284.834 116.47 277.556 118.801C271.758 120.658 271.395 121.339 267.503 122.051C260.974 123.245 257.706 123.839 253.333 123.176C251.315 122.87 249.015 122.295 247.278 123.614C246.204 124.426 245.516 125.839 245.529 127.176C245.554 129.876 248.409 131.764 250.521 133.295C254.951 136.514 248.903 132.958 263.254 145.039C269.215 150.058 272.257 152.602 275.181 154.408C281.479 158.295 285.265 159.152 288.04 159.402C290.626 159.639 292.782 159.402 294.219 159.152" stroke="black" stroke-width="2.7" stroke-miterlimit="10" stroke-linecap="round"/>
<path d="M319.51 127.864C316.649 129.245 312.625 131.439 308.27 134.795C302.878 138.951 298.68 142.189 296.281 147.783C293.307 154.739 295.212 162.477 296.293 166.058" stroke="black" stroke-width="2.7" stroke-miterlimit="10" stroke-linecap="round"/>
<path d="M340.678 150.158C338.148 149.501 334.524 148.751 330.125 148.47C325.565 148.183 320.098 147.833 313.706 149.97C310.713 150.97 303.703 153.789 298.974 160.402C296.218 164.245 296.137 166.727 296.162 167.708C296.262 171.139 298.924 173.789 299.767 174.721" stroke="black" stroke-width="2.7" stroke-miterlimit="10" stroke-linecap="round"/>
<path d="M294.244 153.689C292.913 153.677 291.032 153.583 288.814 153.22C286.965 152.92 281.354 151.852 271.676 145.727C268.128 143.483 258.924 137.658 259.924 135.001C260.218 134.226 261.33 133.833 261.467 133.783C263.429 133.083 265.597 134.595 266.241 135.001C270.114 137.42 276.737 135.889 285.016 133.97C290.357 132.733 294.793 131.02 300.748 130.083C301.879 129.908 304.309 129.558 307.302 130.22C309.17 130.639 310.626 131.308 311.563 131.814" stroke="black" stroke-width="2.7" stroke-miterlimit="10" stroke-linecap="round"/>
<path d="M407.974 140.851C400.633 139.589 394.691 140.264 390.992 140.976C386.556 141.833 378.115 143.57 371.261 150.47C368.631 153.12 365.101 156.676 364.895 162.089C364.714 166.808 367.15 170.389 368.269 171.833" stroke="black" stroke-width="2.7" stroke-miterlimit="10" stroke-linecap="round"/>
<path d="M367.488 173.014C368.212 171.833 369.256 170.239 370.643 168.458C372.717 165.789 377.778 159.42 386.281 155.158C394.597 150.989 402.07 150.908 407.318 150.852C410.998 150.808 418.82 150.802 427.923 154.477C432.066 156.152 437.708 158.502 442.75 164.158C446.13 167.952 447.967 171.796 448.96 174.371C447.773 175.027 445.974 175.952 443.699 176.846C439.601 178.458 436.114 179.127 433.678 179.508C426.162 180.677 419.095 180.546 404.694 180.489C400.345 180.471 396.315 180.464 390.649 180.208C382.876 179.852 379.19 179.352 375.148 177.677C372.136 176.433 369.862 174.921 368.356 173.789L367.481 173.027L367.488 173.014Z" stroke="black" stroke-width="2.7" stroke-linecap="round" stroke-linejoin="round"/>
<path d="M431.585 189.052C429.598 189.258 426.318 189.565 422.269 189.802C422.269 189.802 405.4 190.796 383.451 187.271C383.451 187.271 376.747 186.196 370.905 181.933C369.156 180.658 367.619 179.165 367.157 176.971C366.825 175.414 367.156 174.046 367.438 173.221" stroke="black" stroke-width="2.7" stroke-linecap="round" stroke-linejoin="round"/>
<path d="M366.738 187.258C368.512 189.033 370.83 191.058 373.76 193.002C376.322 194.702 378.752 195.94 380.846 196.846" stroke="black" stroke-width="2.7" stroke-linecap="round" stroke-linejoin="round"/>
<path d="M357.291 182.146C355.854 183.621 354.073 185.221 351.905 186.784C348.219 189.434 344.658 191.052 341.859 192.052" stroke="black" stroke-width="2.7" stroke-linecap="round" stroke-linejoin="round"/>
<path d="M300.279 175.046C300.867 176.364 302.11 177.002 302.716 177.296C310.595 181.146 315.874 181.696 315.874 181.696C323.734 182.521 329.694 181.733 336.711 180.808C342.446 180.052 345.601 179.252 348.369 178.327C350.843 177.496 353.486 176.771 356.329 174.908C356.454 174.827 356.573 174.746 356.691 174.664C358.041 173.746 358.297 171.852 357.21 170.633C356.448 169.777 355.542 168.839 354.505 167.877C346.345 160.345 337.21 158.277 333.48 157.477C329.857 156.702 326.002 155.914 320.935 156.633C315.218 157.445 311.238 159.708 309.695 160.664C307.952 161.746 303.522 164.758 301.035 169.889C299.792 172.452 299.804 173.952 300.286 175.039L300.279 175.046Z" stroke="black" stroke-width="2.7" stroke-linecap="round" stroke-linejoin="round"/>
<path d="M299.798 175.515C299.636 175.69 299.423 175.946 299.205 176.277C299.086 176.458 298.28 177.721 298.224 179.102C298.161 180.696 299.117 181.902 299.579 182.49C302.266 185.884 308.339 186.971 308.989 187.077C320.803 189.071 330.644 187.965 331.793 187.827C334.93 187.452 339.416 186.765 344.764 185.39" stroke="black" stroke-width="2.7" stroke-miterlimit="10" stroke-linecap="round"/>
<path d="M299.404 183.208C298.817 183.752 298.23 184.315 297.636 184.909C295.131 187.421 293.05 189.965 291.313 192.402" stroke="black" stroke-width="2.7" stroke-miterlimit="10" stroke-linecap="round"/>
<path d="M416.215 227.928C417.871 227.559 421.282 227.046 425.249 228.253C431.378 230.122 434.446 234.759 435.221 236.028C437.714 240.084 437.914 244.047 437.889 245.815" stroke="black" stroke-width="2.7" stroke-miterlimit="10" stroke-linecap="round"/>
<path d="M428.579 221.703C430.36 222.153 433.553 223.221 436.589 225.915C441.263 230.071 442.418 235.315 442.725 237.065" stroke="black" stroke-width="2.7" stroke-miterlimit="10" stroke-linecap="round"/>
<path d="M356.098 217.252C356.654 216.815 357.51 216.559 359.472 216.927C361.14 217.24 366.007 218.14 369.212 222.784C370.199 224.215 372.248 227.184 371.461 230.796C371.361 231.259 370.612 234.709 367.994 235.715C363.908 237.29 359.053 231.428 358.491 230.753C355.629 227.296 355.267 223.715 355.117 221.996C354.979 220.371 354.823 218.265 356.098 217.265V217.252Z" stroke="black" stroke-width="2.7" stroke-miterlimit="10" stroke-linecap="round"/>
<path d="M283.173 199.621C281.642 199.571 279.668 199.646 277.431 200.121C275.513 200.527 273.257 200.984 270.877 202.559C269.321 203.59 266.922 205.178 266.103 208.165C265.903 208.89 265.01 212.565 267.272 214.628C269.452 216.615 272.845 215.546 273.688 215.284C277.212 214.171 278.905 211.09 279.449 209.896C281.511 205.39 279.536 201.065 279.218 200.39" stroke="black" stroke-width="2.7" stroke-miterlimit="10" stroke-linecap="round"/>
<path d="M290.045 195.627C293.95 194.896 298.211 194.371 302.778 194.19C323.109 193.383 339.635 199.796 349.975 205.121" stroke="black" stroke-width="2.7" stroke-miterlimit="10" stroke-linecap="round"/>
<path d="M339.241 211.302C341.284 209.771 344.314 207.79 348.294 206.184C349.863 205.546 353.186 204.227 357.098 203.746C368.775 202.321 377.934 209.384 378.696 209.99C381.164 211.952 385.775 216.271 388.187 223.415C390.155 229.24 389.693 234.121 389.437 236.528C388.112 249.053 380.183 257.39 377.197 260.447C367.769 270.097 356.829 272.872 350.85 274.309C344.92 275.734 336.155 277.841 325.44 274.872C311.269 270.947 303.466 260.847 301.342 258.009C297.612 253.034 295.587 248.253 294.475 245.022" stroke="black" stroke-width="2.7" stroke-miterlimit="10" stroke-linecap="round"/>
<path d="M293.369 194.546C292.345 193.502 290.758 192.108 288.565 190.908C283.298 188.033 278.237 188.314 276.356 188.439C266.322 189.127 260.205 196.108 259.362 197.102C257.837 198.902 253.739 203.727 253.695 210.683C253.658 217.015 256.988 222.834 259.312 225.015C259.593 225.277 260.712 226.29 261.886 227.921C262.43 228.671 263.404 230.046 263.992 231.809C264.723 234.003 264.541 235.84 264.504 236.584C264.317 240.615 267.003 244.546 269.371 248.015C275.188 256.522 283.847 259.734 286.322 260.615C293.813 263.278 300.429 262.84 304.066 262.303" stroke="black" stroke-width="2.7" stroke-miterlimit="10" stroke-linecap="round"/>
<path d="M296.918 272.841C301.604 275.891 287.065 271.603 296.118 274.353C307.851 277.91 317.304 277.828 324.477 277.71C342.271 277.416 355.76 273.172 369.174 268.841C384.026 264.047 391.236 260.997 394.091 259.147C394.991 258.566 400.201 256.097 404.95 255.166C406.268 254.903 412.747 253.678 414.984 257.084C417.489 260.903 409.779 269.653 407.574 272.16C392.835 288.966 354.461 295.216 331.968 295.629C325.077 295.754 311.65 292.372 305.99 285.097" fill="#784F30"/>
<path d="M275.4 264.678C274.525 264.241 273.182 263.397 272.32 261.853C270.602 258.809 271.595 254.584 273.694 252.509C276.925 249.322 283.085 250.916 290.964 253.072C298.63 255.166 306.171 258.072 309.032 258.778C323.459 262.36 332.331 261.485 346.164 258.709C362.189 255.497 377.397 248.778 377.397 248.778C381.014 247.184 386.362 244.634 394.266 242.928C400.108 241.666 405.387 240.584 411.729 242.209C413.94 242.778 421.982 244.847 425.655 250.891C431.616 260.697 422.681 275.435 420.576 278.916C403.938 306.366 366.001 310.598 354.373 311.898C354.373 311.898 331.5 314.448 307.983 305.198C304.247 303.729 298.13 300.885 294.112 294.735C292.738 292.635 290.52 289.122 291.02 284.441C291.507 279.835 295.406 276.141 296.487 275.091" fill="#784F30"/>
<path d="M313.337 289.497C313.425 288.935 313.55 288.354 313.712 287.766C315.03 282.966 318.354 279.785 320.71 277.997L312.225 289.541L329.013 296.085C329.013 296.085 364.907 293.06 365.038 292.972C365.17 292.885 390.224 284.891 390.224 284.891L405.768 275.635L414.953 263.066L416.633 257.878L413.035 254.928C413.035 254.928 406.474 254.434 406.149 254.553C405.825 254.672 385.15 263.416 385.15 263.416L353.417 274.003L323.071 277.947L320.304 277.691" fill="#753030"/>
<path d="M315.462 286.772C317.167 286.241 318.973 285.766 320.878 285.366C331.331 283.184 340.678 284.278 347.638 285.941C352.686 283.547 360.053 280.741 369.3 279.428C380.483 277.847 389.805 279.116 395.803 280.416L376.816 289.359L350.4 294.266L324.99 294.897L314.293 290.347L315.462 286.772Z" fill="#A56060"/>
<path d="M276.25 264.447C280.936 267.497 287.908 271.372 296.968 274.116C308.701 277.672 318.154 277.591 325.327 277.472C343.121 277.178 356.61 272.934 370.024 268.603C384.875 263.809 392.085 260.759 394.941 258.909C395.84 258.328 401.051 255.859 405.799 254.928C407.118 254.665 413.597 253.44 415.834 256.847C418.339 260.665 410.629 269.416 408.424 271.922C393.685 288.728 355.31 294.978 332.818 295.391C325.927 295.516 312.5 292.135 306.839 284.859" stroke="black" stroke-width="3.77" stroke-miterlimit="10" stroke-linecap="round"/>
<path d="M276.25 264.447C275.375 264.009 274.032 263.166 273.169 261.622C271.451 258.578 272.445 254.353 274.544 252.278C277.774 249.09 283.935 250.684 291.813 252.84C299.479 254.934 307.02 257.841 309.882 258.547C324.308 262.128 333.18 261.253 347.013 258.478C363.039 255.266 378.246 248.547 378.246 248.547C381.864 246.953 387.212 244.403 395.116 242.697C400.957 241.434 406.237 240.353 412.578 241.978C414.79 242.547 422.831 244.615 426.505 250.659C432.465 260.466 423.531 275.203 421.425 278.685C404.787 306.135 366.85 310.366 355.223 311.666C355.223 311.666 332.349 314.216 308.832 304.966C305.096 303.497 298.979 300.654 294.962 294.503C293.588 292.403 291.37 288.891 291.869 284.21C292.357 279.603 296.255 275.91 297.336 274.859" stroke="black" stroke-width="3.77" stroke-miterlimit="10" stroke-linecap="round"/>
<path d="M355.916 272.903C354.723 274.297 353.505 275.841 352.299 277.547C350.081 280.666 348.35 283.678 346.988 286.41" stroke="black" stroke-width="3.77" stroke-miterlimit="10" stroke-linecap="round"/>
<path d="M313.706 289.36C314.049 288.529 314.424 287.672 314.837 286.81C316.424 283.497 318.229 280.685 320.016 278.322" stroke="black" stroke-width="3.77" stroke-miterlimit="10" stroke-linecap="round"/>
<path d="M350.625 205.308L356.766 203.79L365.195 203.552L377.247 208.552L385.232 217.171L389.105 224.04C389.105 224.04 390.417 232.721 390.23 232.846C390.042 232.971 387.156 245.821 387.156 245.821L380.802 256.49L372.805 264.822L356.954 272.94L345.339 275.44L330.619 276.128L312.75 269.384L304.759 261.828L294.956 262.715L280.261 258.64L272.414 252.271L266.547 243.528L264.548 237.784V232.102L254.995 217.777C254.995 217.777 253.401 207.215 253.733 207.308C254.064 207.402 259.399 197.114 259.399 197.114L268.296 190.508L277.724 187.808L287.402 190.133L293.956 195.064L305.196 193.752C305.196 193.752 322.515 195.846 322.953 195.964C323.39 196.083 339.41 200.246 339.41 200.246L350.625 205.308Z" fill="#C37371"/>
<path d="M264.866 235.096C266.616 237.771 269.077 240.859 272.483 243.778C282.029 251.946 292.863 253.471 297.705 253.834L295.331 245.778C296.337 247.878 298.024 250.853 300.76 253.834C308.152 261.872 317.623 263.859 323.422 265.078C346.407 269.903 373.048 260.496 378.609 258.459L366.619 268.89L349.325 275.322L332.281 276.697L316.549 271.39L304.34 262.459L294.506 262.728L281.579 258.846L271.739 251.021L266.135 242.771L264.542 236.609L264.854 235.109L264.866 235.096Z" fill="#8D504D"/>
<path d="M356.954 217.171L365.351 218.296L370.343 224.496C370.343 224.496 371.617 228.172 371.63 228.322C371.642 228.472 369.687 235.097 369.687 235.097L364.539 235.784C364.539 235.784 357.585 229.472 357.472 229.297C357.36 229.122 354.467 221.515 354.467 221.515L356.954 217.178V217.171Z" fill="#8D504D"/>
<path d="M279.255 200.246L280.417 205.396C280.417 205.396 278.649 211.909 278.505 212.071C278.362 212.234 271.901 215.803 271.901 215.803L266.353 214.015C266.353 214.015 265.51 209.121 265.56 209.052C265.61 208.984 268.677 204.215 268.921 204.015C269.165 203.815 275.019 201.134 275.019 201.134L279.255 200.246Z" fill="#8D504D"/>
<path d="M356.141 217.252C356.698 216.815 357.553 216.559 359.515 216.927C361.183 217.24 366.051 218.14 369.256 222.784C370.243 224.215 372.292 227.184 371.505 230.796C371.405 231.259 370.655 234.709 368.037 235.715C363.951 237.29 359.097 231.428 358.534 230.753C355.673 227.296 355.31 223.715 355.161 221.996C355.023 220.371 354.867 218.265 356.141 217.265V217.252Z" stroke="black" stroke-width="2.7" stroke-miterlimit="10" stroke-linecap="round"/>
<path d="M283.223 199.621C281.692 199.571 279.718 199.646 277.481 200.121C275.563 200.527 273.307 200.984 270.927 202.559C269.371 203.59 266.972 205.178 266.153 208.165C265.954 208.89 265.06 212.565 267.322 214.628C269.502 216.615 272.895 215.546 273.738 215.284C277.262 214.171 278.955 211.09 279.499 209.896C281.561 205.39 279.586 201.065 279.268 200.39" stroke="black" stroke-width="2.7" stroke-miterlimit="10" stroke-linecap="round"/>
<path d="M290.089 195.627C293.994 194.896 298.255 194.371 302.822 194.19C323.153 193.383 339.678 199.796 350.018 205.121" stroke="black" stroke-width="2.7" stroke-miterlimit="10" stroke-linecap="round"/>
<path d="M339.285 211.302C341.328 209.771 344.358 207.79 348.338 206.184C349.906 205.546 353.23 204.227 357.141 203.746C368.819 202.321 377.978 209.384 378.74 209.99C381.208 211.952 385.819 216.271 388.231 223.415C390.199 229.24 389.736 234.121 389.48 236.528C388.156 249.053 380.227 257.39 377.241 260.447C367.813 270.097 356.873 272.872 350.893 274.309C344.964 275.734 336.198 277.841 325.483 274.872C311.313 270.947 303.509 260.847 301.385 258.009C297.655 253.034 295.631 248.253 294.519 245.022" stroke="black" stroke-width="2.7" stroke-miterlimit="10" stroke-linecap="round"/>
<path d="M293.413 194.546C292.388 193.502 290.801 192.108 288.608 190.908C283.341 188.033 278.281 188.314 276.4 188.439C266.366 189.127 260.249 196.108 259.406 197.102C257.881 198.902 253.783 203.727 253.739 210.683C253.701 217.015 257.031 222.834 259.356 225.015C259.637 225.277 260.755 226.29 261.93 227.921C262.473 228.671 263.448 230.046 264.035 231.809C264.766 234.003 264.585 235.84 264.548 236.584C264.36 240.615 267.047 244.546 269.415 248.015C275.232 256.522 283.891 259.734 286.365 260.615C293.856 263.278 300.473 262.84 304.109 262.303" stroke="black" stroke-width="2.7" stroke-miterlimit="10" stroke-linecap="round"/>
<path d="M367.956 171.827L372.83 165.321L384.563 155.027L400.545 150.521L423.994 152.377L437.708 159.364L446.33 168.883L448.491 174.39L436.758 178.821L395.053 180.008L379.071 178.508L369.887 174.627L367.956 171.827Z" fill="white"/>
<path d="M416.265 182.727C424.757 182.727 431.641 175.841 431.641 167.346C431.641 158.851 424.757 151.964 416.265 151.964C407.773 151.964 400.889 158.851 400.889 167.346C400.889 175.841 407.773 182.727 416.265 182.727Z" fill="black"/>
<path d="M424.787 162.021C426.25 162.021 427.436 160.834 427.436 159.371C427.436 157.907 426.25 156.721 424.787 156.721C423.324 156.721 422.138 157.907 422.138 159.371C422.138 160.834 423.324 162.021 424.787 162.021Z" fill="white"/>
<path d="M414.828 168.308C416.639 168.308 418.108 166.839 418.108 165.027C418.108 163.215 416.639 161.746 414.828 161.746C413.016 161.746 411.548 163.215 411.548 165.027C411.548 166.839 413.016 168.308 414.828 168.308Z" fill="white"/>
<path d="M422.744 171.565C424.034 171.565 425.08 170.518 425.08 169.227C425.08 167.936 424.034 166.89 422.744 166.89C421.453 166.89 420.407 167.936 420.407 169.227C420.407 170.518 421.453 171.565 422.744 171.565Z" fill="white"/>
<path d="M371.18 168.671C369.793 170.452 368.75 172.046 368.025 173.227L368.9 173.996C370.399 175.121 372.68 176.633 375.691 177.883C379.727 179.552 383.42 180.052 391.186 180.408C396.859 180.671 400.889 180.677 405.237 180.689C419.639 180.746 426.699 180.877 434.221 179.708C436.658 179.327 440.144 178.658 444.243 177.046C444.468 176.958 444.687 176.871 444.899 176.777L429.873 185.946L412.035 190.465L381.421 187.408L368.231 180.114L366.632 173.796L367.95 170.846L364.889 165.889L366.419 155.908L375.66 145.877L391.904 140.064H407.974C414.491 141.295 419.558 143.252 423 144.839C429.111 147.645 442.431 153.777 447.648 167.127C448.735 169.908 449.216 172.352 449.454 174.002L449.304 174.089C448.279 171.533 446.461 167.921 443.287 164.358C438.245 158.702 432.603 156.352 428.461 154.677C419.364 151.008 411.542 151.014 407.855 151.058C402.607 151.114 395.135 151.195 386.819 155.364C378.309 159.627 373.255 166.002 371.18 168.671Z" fill="#C77743"/>
<path d="M414.541 189.158C416.715 188.415 419.014 187.521 421.413 186.439C425.762 184.483 429.504 182.333 432.653 180.258L448.248 175.152C448.198 175.727 448.098 176.271 447.967 176.789C445.949 184.639 435.04 187.84 431.997 188.64L414.541 189.152V189.158Z" fill="#7D4927"/>
<path d="M431.585 188.971C429.598 189.177 426.318 189.483 422.269 189.721C422.269 189.721 405.4 190.714 383.451 187.189C383.451 187.189 376.747 186.114 370.905 181.852C369.156 180.577 367.619 179.083 367.157 176.889C366.825 175.333 367.156 173.964 367.438 173.139" stroke="black" stroke-width="2.7" stroke-linecap="round" stroke-linejoin="round"/>
<path d="M407.974 140.77C400.633 139.508 394.691 140.183 390.992 140.895C386.556 141.752 378.115 143.489 371.261 150.389C368.631 153.039 365.101 156.595 364.895 162.008C364.714 166.727 367.15 170.308 368.269 171.752" stroke="black" stroke-width="2.7" stroke-miterlimit="10" stroke-linecap="round"/>
<path d="M367.488 172.933C368.212 171.752 369.256 170.158 370.643 168.377C372.717 165.708 377.778 159.339 386.281 155.077C394.597 150.908 402.07 150.827 407.318 150.771C410.998 150.727 418.82 150.721 427.923 154.396C432.066 156.071 437.708 158.421 442.75 164.077C446.13 167.871 447.967 171.715 448.96 174.29C447.773 174.946 445.974 175.871 443.699 176.765C439.601 178.377 436.114 179.046 433.678 179.427C426.162 180.596 419.095 180.465 404.694 180.408C400.345 180.39 396.315 180.383 390.649 180.127C382.876 179.771 379.19 179.271 375.148 177.596C372.136 176.352 369.862 174.84 368.356 173.708L367.481 172.946L367.488 172.933Z" stroke="black" stroke-width="2.7" stroke-linecap="round" stroke-linejoin="round"/>
<path d="M299.979 173.39C299.954 173.015 302.86 166.877 302.86 166.877L311.569 159.102L323.884 156.246L341.022 159.527L354.061 167.364L358.116 171.521L357.297 174.615L345.895 178.977L325.433 181.471L314.431 181.177L302.678 177.615L299.986 173.402L299.979 173.39Z" fill="white"/>
<path d="M331.743 182.039C338.531 182.039 344.033 176.535 344.033 169.746C344.033 162.956 338.531 157.452 331.743 157.452C324.956 157.452 319.454 162.956 319.454 169.746C319.454 176.535 324.956 182.039 331.743 182.039Z" fill="black"/>
<path d="M338.56 165.483C339.73 165.483 340.678 164.535 340.678 163.364C340.678 162.194 339.73 161.246 338.56 161.246C337.39 161.246 336.442 162.194 336.442 163.364C336.442 164.535 337.39 165.483 338.56 165.483Z" fill="white"/>
<path d="M330.6 170.515C332.049 170.515 333.224 169.339 333.224 167.89C333.224 166.44 332.049 165.265 330.6 165.265C329.151 165.265 327.976 166.44 327.976 167.89C327.976 169.339 329.151 170.515 330.6 170.515Z" fill="white"/>
<path d="M336.923 173.115C337.955 173.115 338.791 172.278 338.791 171.246C338.791 170.214 337.955 169.377 336.923 169.377C335.891 169.377 335.055 170.214 335.055 171.246C335.055 172.278 335.891 173.115 336.923 173.115Z" fill="white"/>
<path d="M358.909 171.946L358.41 172.596C358.36 172.052 358.141 171.515 357.747 171.071C356.985 170.215 356.085 169.283 355.042 168.321C346.882 160.79 337.748 158.715 334.018 157.921C330.388 157.146 326.533 156.358 321.466 157.077C315.749 157.89 311.769 160.152 310.226 161.102C308.489 162.183 304.059 165.196 301.566 170.333C300.323 172.896 300.336 174.396 300.817 175.484C301.404 176.802 302.647 177.44 303.253 177.734C311.132 181.584 316.411 182.134 316.411 182.134C324.271 182.959 330.232 182.171 337.248 181.246C342.977 180.49 346.139 179.69 348.907 178.765C351.056 178.04 353.336 177.402 355.76 176.021L352.662 180.04L340.066 187.19C340.066 187.19 324.858 188.684 324.69 188.684C324.521 188.684 307.539 187.259 307.539 187.259L298.724 181.359L298.411 177.365L300.486 175.002L296.156 168.721L298.136 161.183L303.928 156.371L308.302 153.127L314.968 150.177L323.853 148.752L334.999 149.414L341.347 150.596C343.215 151.096 345.264 151.889 347.32 153.165C356.342 158.752 358.447 169.202 358.909 171.946Z" fill="#C77743"/>
<path d="M326.739 187.602C327.764 187.184 328.845 186.677 329.969 186.059C332.774 184.509 334.955 182.74 336.592 181.159L348.557 178.409L358.116 174.302C358.035 175.771 357.685 176.934 357.297 177.815C354.53 184.109 345.97 185.084 345.101 185.171L328.713 188.409L326.745 187.602H326.739Z" fill="#7D4927"/>
<path d="M340.678 150.302C338.148 149.646 334.524 148.896 330.125 148.614C325.565 148.327 320.098 147.977 313.706 150.114C310.713 151.114 303.703 153.933 298.974 160.546C296.218 164.389 296.137 166.871 296.162 167.852C296.262 171.283 298.924 173.933 299.767 174.865" stroke="black" stroke-width="2.7" stroke-miterlimit="10" stroke-linecap="round"/>
<path d="M299.798 175.658C299.636 175.833 299.423 176.089 299.205 176.421C299.086 176.602 298.28 177.864 298.224 179.246C298.161 180.84 299.117 182.046 299.58 182.633C302.266 186.027 308.339 187.115 308.989 187.221C320.804 189.215 330.644 188.108 331.794 187.971C334.93 187.596 339.416 186.908 344.764 185.533" stroke="black" stroke-width="2.7" stroke-miterlimit="10" stroke-linecap="round"/>
<path d="M300.392 174.702C300.979 176.021 302.222 176.658 302.829 176.952C310.707 180.802 315.987 181.352 315.987 181.352C323.846 182.177 329.807 181.389 336.823 180.464C342.559 179.708 345.714 178.908 348.482 177.983C350.956 177.152 353.599 176.427 356.442 174.564C356.566 174.483 356.685 174.402 356.804 174.321C358.153 173.402 358.41 171.508 357.322 170.289C356.56 169.433 355.654 168.496 354.617 167.533C346.457 160.002 337.323 157.933 333.593 157.133C329.969 156.358 326.114 155.57 321.047 156.289C315.33 157.102 311.351 159.364 309.807 160.32C308.064 161.402 303.634 164.414 301.148 169.546C299.904 172.108 299.917 173.608 300.398 174.696L300.392 174.702Z" stroke="black" stroke-width="2.7" stroke-linecap="round" stroke-linejoin="round"/>
<path d="M473.558 124.527L486.06 106.17L508.615 86.8949L532.463 73.751L561.64 66.4321H597.028L606.194 69.8572L575.354 85.1511L537.917 111.164L516.812 137.683L498.287 158.839L481.986 169.083L467.073 171.04L473.558 124.527Z" fill="#D1CCB4"/>
<path d="M464.486 171.115C468.06 171.052 471.777 170.646 475.589 169.771C499.768 164.208 513.132 141.745 518.98 133.095C550.388 86.6198 607.725 73.8571 605.426 69.3321C603.295 65.1383 555.418 78.7572 512.082 111.558C489.328 128.783 473.464 147.027 463.143 160.683" stroke="black" stroke-width="4.85" stroke-linecap="round" stroke-linejoin="round"/>
<path d="M605.419 69.3321C603.226 68.7571 599.909 67.9634 595.835 67.2884C564.002 62.0321 524.372 70.5447 495.432 97.4262C476.769 114.764 467.997 134.683 463.811 147.396" stroke="black" stroke-width="4.85" stroke-linecap="round" stroke-linejoin="round"/>
<path d="M341.084 201.303C351.862 198.902 359.272 193.715 362.052 191.609L364.239 189.421C366.344 192.559 385.475 220.115 417.496 220.315C422.063 220.346 434.196 220.265 445.949 212.778C469.797 197.577 472.658 164.233 474.639 141.008C475.688 128.758 475.22 118.583 474.639 111.814C462.312 123.464 450.447 128.87 441.081 131.52C431.416 134.264 422.069 134.733 413.36 135.17C393.029 136.202 384.988 133.27 374.941 138.821C368.462 142.402 364.514 147.646 362.289 151.227C352.274 141.033 343.365 137.989 337.004 137.121C328.001 135.896 325.065 139.171 311.469 137.608C298.749 136.139 292.313 132.239 290.795 131.283C285.109 127.702 281.479 123.333 279.368 120.339C279.48 125.164 279.811 132.258 280.83 140.771C283.91 166.671 285.528 180.221 295.9 190.396C297.499 191.965 299.18 193.327 300.904 194.521C301.941 194.365 302.991 194.234 304.066 194.134C317.342 192.834 329.332 195.909 339.147 200.178L341.078 201.309L341.084 201.303ZM352.387 169.183C350.762 178.146 337.842 183.29 323.54 180.69C309.233 178.083 298.961 168.715 300.592 159.758C302.216 150.802 315.137 145.652 329.438 148.258C343.746 150.858 354.017 160.227 352.387 169.183ZM405.825 189.109C385.813 189.109 369.587 180.259 369.587 169.34C369.587 158.421 385.813 149.577 405.825 149.577C425.837 149.577 442.062 158.427 442.062 169.34C442.062 180.252 425.837 189.109 405.825 189.109Z" fill="#793F91"/>
<path d="M280.892 136.758C281.829 137.214 283.16 137.839 284.785 138.521C288.702 140.158 296.793 143.133 307.846 144.083C320.716 145.183 319.335 141.964 328.963 143.433C338.979 144.964 346.795 149.408 351.193 151.958C355.917 154.696 359.547 157.477 362.033 159.558C363.433 157.546 365.732 154.671 369.168 151.958C376.31 146.327 384.057 144.827 390.011 144.083C410.298 141.552 418.564 146.739 437.064 146.027C454.352 145.364 460.256 144.389 464.942 140.746C470.64 136.321 473.327 130.264 474.67 126.014V113.32L454.502 127.308L430.554 134.202L403.444 135.677L384.363 135.189L367.025 144.458L362.415 151.871L347.213 140.158L335.274 137.071L317.211 138.364L303.716 136.439L291.326 131.114L279.418 121.57L280.898 136.764L280.892 136.758Z" fill="#9D6DAD"/>
<path d="M341.084 201.303C351.862 198.902 359.272 193.715 362.052 191.609L364.239 189.421C366.344 192.559 385.475 220.115 417.496 220.315C422.063 220.346 434.196 220.265 445.949 212.778C469.797 197.577 472.658 164.233 474.639 141.008C475.688 128.758 475.22 118.583 474.639 111.814C462.312 123.464 450.447 128.87 441.081 131.52C431.416 134.264 422.069 134.733 413.36 135.17C393.029 136.202 384.988 133.27 374.941 138.821C368.462 142.402 364.514 147.646 362.289 151.227C352.274 141.033 343.365 137.989 337.004 137.121C328.001 135.896 325.065 139.171 311.469 137.608C298.749 136.139 292.313 132.239 290.795 131.283C285.109 127.702 281.479 123.333 279.368 120.339C279.48 125.164 279.811 132.258 280.83 140.771C283.91 166.671 285.528 180.221 295.9 190.396C297.499 191.965 299.18 193.327 300.904 194.521C301.941 194.365 302.991 194.234 304.066 194.134C317.342 192.834 329.332 195.909 339.147 200.178L341.078 201.309L341.084 201.303ZM352.387 169.183C350.762 178.146 337.842 183.29 323.54 180.69C309.233 178.083 298.961 168.715 300.592 159.758C302.216 150.802 315.137 145.652 329.438 148.258C343.746 150.858 354.017 160.227 352.387 169.183ZM405.825 189.109C385.813 189.109 369.587 180.259 369.587 169.34C369.587 158.421 385.813 149.577 405.825 149.577C425.837 149.577 442.062 158.427 442.062 169.34C442.062 180.252 425.837 189.109 405.825 189.109Z" stroke="black" stroke-width="3.56" stroke-linejoin="round"/>
</g>
<defs>
<clipPath id="clip0_43_2114">
<rect width="607" height="1066" fill="white"/>
</clipPath>
</defs>
</svg>
