<svg width="1920" height="237" viewBox="0 0 1920 237" fill="none" xmlns="http://www.w3.org/2000/svg">
<path d="M-12 150H96V287C96 314.614 73.6142 337 46 337H38C10.3858 337 -12 314.614 -12 287V150Z" fill="#B92C00"/>
<path d="M96 150H204V287C204 314.614 181.614 337 154 337H146C118.386 337 96 314.614 96 287V150Z" fill="#FFE6E1"/>
<path d="M204 150H312V287C312 314.614 289.614 337 262 337H254C226.386 337 204 314.614 204 287V150Z" fill="#B92C00"/>
<path d="M312 150H420V287C420 314.614 397.614 337 370 337H362C334.386 337 312 314.614 312 287V150Z" fill="#FFE6E1"/>
<path d="M420 150H528V287C528 314.614 505.614 337 478 337H470C442.386 337 420 314.614 420 287V150Z" fill="#B92C00"/>
<path d="M528 150H636V287C636 314.614 613.614 337 586 337H578C550.386 337 528 314.614 528 287V150Z" fill="#FFE6E1"/>
<path d="M636 150H744V287C744 314.614 721.614 337 694 337H686C658.386 337 636 314.614 636 287V150Z" fill="#B92C00"/>
<path d="M744 150H852V287C852 314.614 829.614 337 802 337H794C766.386 337 744 314.614 744 287V150Z" fill="#FFE6E1"/>
<path d="M852 150H960V287C960 314.614 937.614 337 910 337H902C874.386 337 852 314.614 852 287V150Z" fill="#B92C00"/>
<path d="M960 150H1068V287C1068 314.614 1045.61 337 1018 337H1010C982.386 337 960 314.614 960 287V150Z" fill="#FFE6E1"/>
<path d="M1068 150H1176V287C1176 314.614 1153.61 337 1126 337H1118C1090.39 337 1068 314.614 1068 287V150Z" fill="#B92C00"/>
<path d="M1176 150H1284V287C1284 314.614 1261.61 337 1234 337H1226C1198.39 337 1176 314.614 1176 287V150Z" fill="#FFE6E1"/>
<path d="M1284 150H1392V287C1392 314.614 1369.61 337 1342 337H1334C1306.39 337 1284 314.614 1284 287V150Z" fill="#B92C00"/>
<path d="M1392 150H1500V287C1500 314.614 1477.61 337 1450 337H1442C1414.39 337 1392 314.614 1392 287V150Z" fill="#FFE6E1"/>
<path d="M1500 150H1608V287C1608 314.614 1585.61 337 1558 337H1550C1522.39 337 1500 314.614 1500 287V150Z" fill="#B92C00"/>
<path d="M1608 150H1716V287C1716 314.614 1693.61 337 1666 337H1658C1630.39 337 1608 314.614 1608 287V150Z" fill="#FFE6E1"/>
<path d="M1716 150H1824V287C1824 314.614 1801.61 337 1774 337H1766C1738.39 337 1716 314.614 1716 287V150Z" fill="#B92C00"/>
<path d="M1824 150H1932V287C1932 314.614 1909.61 337 1882 337H1874C1846.39 337 1824 314.614 1824 287V150Z" fill="#FFE6E1"/>
<path d="M127.816 0H1782.73L1920 102.941H-12L127.816 0Z" fill="#0E9CE4"/>
<path d="M-12 102.941H1920V150H-12V102.941Z" fill="#097CA9"/>
</svg>
