<svg width="39" height="38" viewBox="0 0 39 38" fill="none" xmlns="http://www.w3.org/2000/svg">
<g id="ri:instagram-fill">
<path id="Vector" d="M20.9612 3.1665C22.7424 3.17125 23.6465 3.18075 24.4271 3.20292L24.7343 3.214C25.0889 3.22667 25.4388 3.2425 25.8616 3.2615C27.5462 3.34067 28.6957 3.60667 29.7043 3.99775C30.7493 4.39992 31.6297 4.94459 32.51 5.82334C33.3154 6.61458 33.9385 7.57208 34.3356 8.629C34.7267 9.63759 34.9927 10.7871 35.0718 12.4733C35.0908 12.8945 35.1067 13.2444 35.1193 13.6007L35.1288 13.9078C35.1526 14.6868 35.1621 15.5909 35.1653 17.3722L35.1668 18.5533V20.6275C35.1707 21.7824 35.1585 22.9373 35.1304 24.0918L35.1209 24.399C35.1083 24.7553 35.0924 25.1052 35.0734 25.5263C34.9942 27.2126 34.7251 28.3605 34.3356 29.3707C33.9385 30.4276 33.3154 31.3851 32.51 32.1763C31.7188 32.9818 30.7613 33.6048 29.7043 34.0019C28.6957 34.393 27.5462 34.659 25.8616 34.7382L24.7343 34.7857L24.4271 34.7952C23.6465 34.8173 22.7424 34.8284 20.9612 34.8316L19.78 34.8332H17.7074C16.552 34.8372 15.3966 34.8251 14.2415 34.7968L13.9343 34.7873C13.5585 34.773 13.1827 34.7567 12.807 34.7382C11.1223 34.659 9.97283 34.393 8.96267 34.0019C7.90632 33.6046 6.94937 32.9816 6.15858 32.1763C5.35258 31.3853 4.72901 30.4277 4.33142 29.3707C3.94033 28.3621 3.67433 27.2126 3.59517 25.5263L3.54767 24.399L3.53975 24.0918C3.51056 22.9373 3.49737 21.7824 3.50017 20.6275V17.3722C3.49579 16.2173 3.5074 15.0624 3.535 13.9078L3.54608 13.6007C3.55875 13.2444 3.57458 12.8945 3.59358 12.4733C3.67275 10.7871 3.93875 9.63917 4.32983 8.629C4.72835 7.57165 5.35302 6.61411 6.16017 5.82334C6.95049 5.01829 7.90688 4.39529 8.96267 3.99775C9.97283 3.60667 11.1208 3.34067 12.807 3.2615C13.2282 3.2425 13.5797 3.22667 13.9343 3.214L14.2415 3.2045C15.3961 3.17637 16.5509 3.16423 17.7058 3.16809L20.9612 3.1665ZM19.3335 11.0832C17.2339 11.0832 15.2202 11.9172 13.7356 13.4019C12.2509 14.8866 11.4168 16.9002 11.4168 18.9998C11.4168 21.0995 12.2509 23.1131 13.7356 24.5978C15.2202 26.0824 17.2339 26.9165 19.3335 26.9165C21.4331 26.9165 23.4468 26.0824 24.9314 24.5978C26.4161 23.1131 27.2502 21.0995 27.2502 18.9998C27.2502 16.9002 26.4161 14.8866 24.9314 13.4019C23.4468 11.9172 21.4331 11.0832 19.3335 11.0832ZM19.3335 14.2498C19.9573 14.2497 20.575 14.3725 21.1513 14.6111C21.7276 14.8497 22.2513 15.1995 22.6925 15.6405C23.1336 16.0815 23.4836 16.6051 23.7224 17.1814C23.9612 17.7576 24.0842 18.3753 24.0843 18.999C24.0844 19.6228 23.9616 20.2405 23.723 20.8169C23.4844 21.3932 23.1346 21.9169 22.6936 22.358C22.2526 22.7992 21.729 23.1492 21.1528 23.388C20.5765 23.6268 19.9589 23.7497 19.3351 23.7498C18.0753 23.7498 16.8671 23.2494 15.9763 22.3586C15.0855 21.4678 14.5851 20.2596 14.5851 18.9998C14.5851 17.7401 15.0855 16.5319 15.9763 15.6411C16.8671 14.7503 18.0753 14.2498 19.3351 14.2498M27.6476 8.70817C27.1227 8.70817 26.6193 8.91669 26.2481 9.28786C25.8769 9.65902 25.6684 10.1624 25.6684 10.6873C25.6684 11.2122 25.8769 11.7157 26.2481 12.0868C26.6193 12.458 27.1227 12.6665 27.6476 12.6665C28.1725 12.6665 28.6759 12.458 29.0471 12.0868C29.4182 11.7157 29.6267 11.2122 29.6267 10.6873C29.6267 10.1624 29.4182 9.65902 29.0471 9.28786C28.6759 8.91669 28.1725 8.70817 27.6476 8.70817Z" fill="white"/>
</g>
</svg>
