<svg width="36" height="30" viewBox="0 0 36 30" fill="none" xmlns="http://www.w3.org/2000/svg">
<path d="M2.95772 12.9908C12.3223 8.91173 18.5654 6.22229 21.6869 4.92299C30.6099 1.21279 32.4617 0.568408 33.6712 0.546577C33.9372 0.542311 34.5293 0.608053 34.9158 0.920457C35.237 1.18393 35.3273 1.54025 35.3725 1.79042C35.4126 2.04035 35.4678 2.60995 35.4226 3.05459C34.9409 8.13335 32.8481 20.4579 31.7842 26.1464C31.3376 28.5533 30.4493 29.3603 29.5911 29.4391C27.7242 29.6107 26.309 28.2065 24.5023 27.0226C21.6769 25.1693 20.081 24.016 17.3358 22.2078C14.1641 20.1181 16.2217 18.9694 18.0284 17.0924C18.5001 16.6011 26.7205 9.12602 26.8761 8.44801C26.8962 8.3632 26.9162 8.04703 26.7255 7.88042C26.5398 7.7133 26.2638 7.77051 26.0631 7.81568C25.777 7.87992 21.2654 10.8649 12.513 16.7703C11.2333 17.6505 10.074 18.0796 9.03015 18.057C7.88593 18.0324 5.67777 17.4086 4.03671 16.8756C2.02929 16.2217 0.428377 15.876 0.568897 14.7654C0.639156 14.1872 1.4371 13.5955 2.95772 12.9908Z" fill="white"/>
</svg>
