<svg width="1053" height="164" viewBox="0 0 1053 164" fill="none" xmlns="http://www.w3.org/2000/svg">
<g filter="url(#filter0_ii_32_3434)">
<path d="M31.4695 51.1366C33.9518 47.9926 37.3209 45.6664 41.1405 44.4594L77.2531 33.0477C79.2026 32.4316 81.235 32.1182 83.2795 32.1182H1029.31C1040.36 32.1182 1049.31 41.0725 1049.31 52.1182V142.26C1049.31 153.292 1040.38 162.241 1029.34 162.26L23.6525 163.968C13.0765 163.986 4.31466 155.767 3.65719 145.211L0.735244 98.3002C0.429071 93.3847 1.94738 88.529 4.99927 84.6635L31.4695 51.1366Z" fill="white"/>
</g>
<path d="M1048.31 52.1182V142.26C1048.31 152.74 1039.82 161.242 1029.34 161.26L23.6508 162.968C13.6036 162.985 5.27985 155.177 4.65525 145.149L1.73331 98.2381C1.44245 93.5683 2.88484 88.9554 5.78413 85.2832L32.2544 51.7562C34.6125 48.7694 37.8132 46.5596 41.4418 45.4129L77.5545 34.0012C79.4064 33.416 81.3372 33.1182 83.2795 33.1182H1029.31C1039.8 33.1182 1048.31 41.6248 1048.31 52.1182Z" stroke="black" stroke-width="2"/>
<g filter="url(#filter1_i_32_3434)">
<path d="M0.259766 28.8769C0.259766 24.8475 10.6994 0 46.9312 0C79.4785 0 92.3745 10.7449 92.3745 10.7449V127.595C92.3745 127.595 27.6759 117.954 16.2263 147.742C9.47124 165.316 5.78665 149.375 5.78665 149.375C5.78665 149.375 0.259766 131.207 0.259766 97.3754C0.259766 63.5441 0.259766 32.9062 0.259766 28.8769Z" fill="white"/>
</g>
<path d="M6.76096 149.15L6.76086 149.15L6.75329 149.117L6.74345 149.084L6.74341 149.084L6.74336 149.084L6.74295 149.083L6.74053 149.075L6.72985 149.039C6.72016 149.006 6.70541 148.956 6.68593 148.888C6.64696 148.751 6.58907 148.545 6.51496 148.269C6.36674 147.717 6.15362 146.886 5.89717 145.782C5.38427 143.572 4.69804 140.268 4.01103 135.906C2.63701 127.184 1.25977 114.236 1.25977 97.3755V28.8769C1.25977 28.5354 1.38238 27.8281 1.72747 26.7964C2.06424 25.7895 2.59049 24.5396 3.3394 23.1356C4.83687 20.3284 7.20939 16.9335 10.6938 13.6558C17.6449 7.11689 29.0668 1 46.9312 1C63.0925 1 74.3358 3.66725 81.5124 6.3108C85.1017 7.63295 87.6773 8.95046 89.3451 9.92858C90.1791 10.4177 90.7864 10.8222 91.1801 11.1001C91.252 11.1509 91.3168 11.1974 91.3745 11.2395V126.451C90.93 126.393 90.3631 126.323 89.6861 126.246C87.8822 126.039 85.2954 125.777 82.1565 125.557C75.8822 125.116 67.3859 124.84 58.5196 125.501C49.6633 126.162 40.3798 127.762 32.5613 131.108C24.7376 134.457 18.2853 139.598 15.2929 147.383C13.6091 151.764 12.194 153.821 11.1432 154.613C10.656 154.98 10.3187 155.023 10.0924 154.991C9.83992 154.956 9.53578 154.802 9.185 154.446C8.46142 153.713 7.84919 152.444 7.40587 151.245C7.19145 150.665 7.02894 150.136 6.92019 149.753C6.86594 149.562 6.82541 149.408 6.79876 149.303C6.78545 149.251 6.77562 149.211 6.76931 149.185L6.76249 149.156L6.76106 149.15L6.76096 149.15Z" stroke="black" stroke-width="2"/>
<g filter="url(#filter2_i_32_3434)">
<path d="M1053 32.9342C1053 28.8968 1042.16 4 1004.55 4C970.763 4 957.376 14.7662 957.376 14.7662V131.849C957.376 131.849 1029.64 120.845 1036.43 152.035C1039.61 166.686 1047.26 153.672 1047.26 153.672C1047.26 153.672 1053 135.467 1053 101.569C1053 67.6702 1053 36.9715 1053 32.9342Z" fill="white"/>
</g>
<path d="M1037.4 151.823C1038.19 155.444 1039.2 157.051 1040.05 157.661C1040.75 158.167 1041.53 158.1 1042.52 157.496C1043.51 156.881 1044.48 155.827 1045.23 154.864C1045.59 154.393 1045.89 153.963 1046.09 153.652C1046.19 153.497 1046.27 153.372 1046.33 153.288C1046.33 153.278 1046.34 153.269 1046.34 153.26C1046.35 153.236 1046.36 153.207 1046.37 153.174C1046.41 153.038 1046.47 152.832 1046.55 152.555C1046.7 152.002 1046.92 151.17 1047.19 150.064C1047.72 147.851 1048.43 144.54 1049.14 140.171C1050.57 131.433 1052 118.461 1052 101.569V32.9342C1052 32.5975 1051.87 31.8926 1051.52 30.8592C1051.17 29.8516 1050.62 28.6 1049.84 27.1936C1048.29 24.3818 1045.83 20.9795 1042.21 17.6934C1034.99 11.1367 1023.12 5 1004.55 5C987.765 5 976.085 7.67394 968.628 10.3253C964.899 11.6513 962.222 12.9728 960.488 13.9542C959.621 14.445 958.99 14.8509 958.58 15.13C958.505 15.1815 958.437 15.2287 958.376 15.2714V130.698C958.887 130.629 959.559 130.542 960.375 130.444C962.375 130.203 965.238 129.893 968.694 129.62C975.603 129.073 984.897 128.67 994.417 129.247C1003.92 129.824 1013.72 131.383 1021.61 134.805C1029.5 138.232 1035.61 143.595 1037.4 151.823Z" stroke="black" stroke-width="2"/>
<path d="M91.3813 49H122.597" stroke="black" stroke-width="2" stroke-linecap="round"/>
<path d="M971.656 145.398H1002.87" stroke="black" stroke-width="2" stroke-linecap="round"/>
<path d="M968.147 151.312L1033.7 151.313" stroke="black" stroke-width="2" stroke-linecap="round"/>
<path d="M91.4999 56.038L136.762 56.0413" stroke="black" stroke-width="2" stroke-linecap="round"/>
<defs>
<filter id="filter0_ii_32_3434" x="-3.30347" y="32.1182" width="1056.61" height="135.85" filterUnits="userSpaceOnUse" color-interpolation-filters="sRGB">
<feFlood flood-opacity="0" result="BackgroundImageFix"/>
<feBlend mode="normal" in="SourceGraphic" in2="BackgroundImageFix" result="shape"/>
<feColorMatrix in="SourceAlpha" type="matrix" values="0 0 0 0 0 0 0 0 0 0 0 0 0 0 0 0 0 0 127 0" result="hardAlpha"/>
<feOffset dx="38" dy="4"/>
<feGaussianBlur stdDeviation="2"/>
<feComposite in2="hardAlpha" operator="arithmetic" k2="-1" k3="1"/>
<feColorMatrix type="matrix" values="0 0 0 0 0 0 0 0 0 0 0 0 0 0 0 0 0 0 0.25 0"/>
<feBlend mode="normal" in2="shape" result="effect1_innerShadow_32_3434"/>
<feColorMatrix in="SourceAlpha" type="matrix" values="0 0 0 0 0 0 0 0 0 0 0 0 0 0 0 0 0 0 127 0" result="hardAlpha"/>
<feOffset dx="-33" dy="4"/>
<feGaussianBlur stdDeviation="2"/>
<feComposite in2="hardAlpha" operator="arithmetic" k2="-1" k3="1"/>
<feColorMatrix type="matrix" values="0 0 0 0 0 0 0 0 0 0 0 0 0 0 0 0 0 0 0.25 0"/>
<feBlend mode="normal" in2="effect1_innerShadow_32_3434" result="effect2_innerShadow_32_3434"/>
</filter>
<filter id="filter1_i_32_3434" x="0.259766" y="0" width="96.1147" height="160" filterUnits="userSpaceOnUse" color-interpolation-filters="sRGB">
<feFlood flood-opacity="0" result="BackgroundImageFix"/>
<feBlend mode="normal" in="SourceGraphic" in2="BackgroundImageFix" result="shape"/>
<feColorMatrix in="SourceAlpha" type="matrix" values="0 0 0 0 0 0 0 0 0 0 0 0 0 0 0 0 0 0 127 0" result="hardAlpha"/>
<feOffset dx="10" dy="4"/>
<feGaussianBlur stdDeviation="2"/>
<feComposite in2="hardAlpha" operator="arithmetic" k2="-1" k3="1"/>
<feColorMatrix type="matrix" values="0 0 0 0 0 0 0 0 0 0 0 0 0 0 0 0 0 0 0.25 0"/>
<feBlend mode="normal" in2="shape" result="effect1_innerShadow_32_3434"/>
</filter>
<filter id="filter2_i_32_3434" x="953.376" y="4" width="99.624" height="159" filterUnits="userSpaceOnUse" color-interpolation-filters="sRGB">
<feFlood flood-opacity="0" result="BackgroundImageFix"/>
<feBlend mode="normal" in="SourceGraphic" in2="BackgroundImageFix" result="shape"/>
<feColorMatrix in="SourceAlpha" type="matrix" values="0 0 0 0 0 0 0 0 0 0 0 0 0 0 0 0 0 0 127 0" result="hardAlpha"/>
<feOffset dx="-13" dy="4"/>
<feGaussianBlur stdDeviation="2"/>
<feComposite in2="hardAlpha" operator="arithmetic" k2="-1" k3="1"/>
<feColorMatrix type="matrix" values="0 0 0 0 0 0 0 0 0 0 0 0 0 0 0 0 0 0 0.25 0"/>
<feBlend mode="normal" in2="shape" result="effect1_innerShadow_32_3434"/>
</filter>
</defs>
</svg>
