<svg width="1920" height="187" viewBox="0 0 1920 187" fill="none" xmlns="http://www.w3.org/2000/svg">
<path d="M-12 0H96V137C96 164.614 73.6142 187 46 187H38C10.3858 187 -12 164.614 -12 137V0Z" fill="#B92C00"/>
<path d="M96 0H204V137C204 164.614 181.614 187 154 187H146C118.386 187 96 164.614 96 137V0Z" fill="#FFE6E1"/>
<path d="M204 0H312V137C312 164.614 289.614 187 262 187H254C226.386 187 204 164.614 204 137V0Z" fill="#B92C00"/>
<path d="M312 0H420V137C420 164.614 397.614 187 370 187H362C334.386 187 312 164.614 312 137V0Z" fill="#FFE6E1"/>
<path d="M420 0H528V137C528 164.614 505.614 187 478 187H470C442.386 187 420 164.614 420 137V0Z" fill="#B92C00"/>
<path d="M528 0H636V137C636 164.614 613.614 187 586 187H578C550.386 187 528 164.614 528 137V0Z" fill="#FFE6E1"/>
<path d="M636 0H744V137C744 164.614 721.614 187 694 187H686C658.386 187 636 164.614 636 137V0Z" fill="#B92C00"/>
<path d="M744 0H852V137C852 164.614 829.614 187 802 187H794C766.386 187 744 164.614 744 137V0Z" fill="#FFE6E1"/>
<path d="M852 0H960V137C960 164.614 937.614 187 910 187H902C874.386 187 852 164.614 852 137V0Z" fill="#B92C00"/>
<path d="M960 0H1068V137C1068 164.614 1045.61 187 1018 187H1010C982.386 187 960 164.614 960 137V0Z" fill="#FFE6E1"/>
<path d="M1068 0H1176V137C1176 164.614 1153.61 187 1126 187H1118C1090.39 187 1068 164.614 1068 137V0Z" fill="#B92C00"/>
<path d="M1176 0H1284V137C1284 164.614 1261.61 187 1234 187H1226C1198.39 187 1176 164.614 1176 137V0Z" fill="#FFE6E1"/>
<path d="M1284 0H1392V137C1392 164.614 1369.61 187 1342 187H1334C1306.39 187 1284 164.614 1284 137V0Z" fill="#B92C00"/>
<path d="M1392 0H1500V137C1500 164.614 1477.61 187 1450 187H1442C1414.39 187 1392 164.614 1392 137V0Z" fill="#FFE6E1"/>
<path d="M1500 0H1608V137C1608 164.614 1585.61 187 1558 187H1550C1522.39 187 1500 164.614 1500 137V0Z" fill="#B92C00"/>
<path d="M1608 0H1716V137C1716 164.614 1693.61 187 1666 187H1658C1630.39 187 1608 164.614 1608 137V0Z" fill="#FFE6E1"/>
<path d="M1716 0H1824V137C1824 164.614 1801.61 187 1774 187H1766C1738.39 187 1716 164.614 1716 137V0Z" fill="#B92C00"/>
<path d="M1824 0H1932V137C1932 164.614 1909.61 187 1882 187H1874C1846.39 187 1824 164.614 1824 137V0Z" fill="#FFE6E1"/>
</svg>
